<?xml version="1.0" encoding="utf-8"?>
<!-- Generator: Adobe Illustrator 26.3.1, SVG Export Plug-In . SVG Version: 6.00 Build 0)  -->
<svg version="1.1" id="圖層_1" xmlns="http://www.w3.org/2000/svg" xmlns:xlink="http://www.w3.org/1999/xlink" x="0px" y="0px"
	 viewBox="0 0 80 93" style="enable-background:new 0 0 80 93;" xml:space="preserve">
<style type="text/css">
	.st0{fill:#FFFFFF;}
</style>
<g id="圖層_2_00000054237143868730061030000016432082568326014609_">
	<g id="圖層_1-2">
		<path class="st0" d="M0.46,77.83c-0.14-0.15-0.22-0.35-0.21-0.56v-6.98c-0.01-0.2,0.06-0.4,0.21-0.55
			c0.15-0.14,0.35-0.22,0.55-0.21c0.21-0.01,0.41,0.06,0.57,0.21c0.14,0.15,0.22,0.35,0.21,0.55v7.01c0.01,0.21-0.07,0.41-0.21,0.56
			c-0.15,0.15-0.36,0.22-0.57,0.21C0.8,78.07,0.6,77.98,0.46,77.83z"/>
		<path class="st0" d="M12.48,69.74c0.14,0.15,0.21,0.35,0.21,0.55v7.08c0.01,0.19-0.06,0.39-0.19,0.53
			c-0.13,0.13-0.32,0.2-0.5,0.19c-0.18,0.01-0.36-0.06-0.49-0.19c-0.13-0.15-0.19-0.33-0.18-0.53v-4.92l-2.03,3.86
			c-0.07,0.15-0.18,0.28-0.31,0.39c-0.11,0.08-0.25,0.13-0.39,0.12c-0.14,0-0.28-0.04-0.39-0.12c-0.13-0.11-0.24-0.24-0.31-0.39
			l-2.04-3.78v4.86c0.01,0.19-0.06,0.38-0.19,0.52c-0.13,0.14-0.31,0.21-0.5,0.2c-0.18,0.01-0.36-0.06-0.49-0.19
			c-0.13-0.15-0.19-0.33-0.18-0.53v-7.08c-0.01-0.2,0.06-0.4,0.2-0.55c0.14-0.14,0.33-0.22,0.53-0.21c0.32,0.01,0.61,0.21,0.73,0.51
			l2.66,5.03l2.64-5.04c0.11-0.3,0.39-0.5,0.7-0.51C12.15,69.52,12.34,69.6,12.48,69.74z"/>
		<path class="st0" d="M15.64,77.86c-0.14-0.15-0.22-0.36-0.21-0.57v-6.98c-0.01-0.2,0.06-0.39,0.2-0.53
			c0.15-0.13,0.34-0.2,0.54-0.19h2.93c0.76-0.05,1.5,0.18,2.1,0.64c1,1.06,1,2.73,0,3.79c-0.59,0.48-1.34,0.73-2.1,0.68h-2.12v2.57
			c0.03,0.4-0.26,0.75-0.66,0.78c-0.04,0-0.08,0-0.12,0C16,78.07,15.79,78,15.64,77.86z M18.91,73.55c1.06,0,1.59-0.46,1.59-1.38
			c0-0.92-0.53-1.39-1.59-1.42h-1.93v2.77L18.91,73.55z"/>
		<path class="st0" d="M31.07,77.45c0,0.18-0.08,0.34-0.22,0.45c-0.15,0.12-0.33,0.18-0.52,0.18c-0.26,0-0.5-0.14-0.64-0.36
			l-1.59-2.41c-0.12-0.22-0.3-0.4-0.51-0.53c-0.21-0.11-0.45-0.16-0.69-0.15h-1.18v2.67c0.01,0.21-0.06,0.41-0.2,0.57
			c-0.15,0.14-0.34,0.22-0.55,0.21c-0.2,0.01-0.4-0.06-0.55-0.21c-0.14-0.15-0.22-0.36-0.21-0.57v-6.98
			c-0.01-0.2,0.06-0.39,0.2-0.53c0.15-0.13,0.34-0.2,0.54-0.19h2.97c0.78-0.05,1.55,0.18,2.17,0.64c0.52,0.47,0.79,1.15,0.75,1.85
			c0.02,0.58-0.17,1.16-0.55,1.6c-0.42,0.44-0.97,0.72-1.57,0.8c0.22,0.05,0.43,0.15,0.61,0.3c0.2,0.17,0.37,0.37,0.51,0.6
			l1.09,1.66C31.02,77.16,31.07,77.3,31.07,77.45z M28.98,73.11c0.29-0.25,0.44-0.63,0.41-1.01c0.03-0.38-0.12-0.76-0.41-1.01
			c-0.38-0.24-0.84-0.35-1.29-0.32H25.7v2.66h2.01C28.16,73.47,28.61,73.36,28.98,73.11z"/>
		<path class="st0" d="M33.58,77.83c-0.14-0.14-0.21-0.34-0.2-0.53v-6.98c-0.01-0.2,0.06-0.39,0.2-0.53
			c0.15-0.13,0.34-0.2,0.54-0.19h4.3c0.19-0.01,0.38,0.04,0.53,0.15c0.13,0.11,0.2,0.27,0.19,0.44c0.01,0.17-0.06,0.34-0.19,0.46
			c-0.15,0.12-0.34,0.17-0.53,0.16h-3.54v2.32h3.33c0.19-0.01,0.38,0.04,0.53,0.15c0.13,0.11,0.2,0.28,0.19,0.46
			c0.01,0.17-0.06,0.34-0.19,0.44c-0.15,0.11-0.34,0.17-0.53,0.15h-3.33v2.46h3.55c0.19-0.01,0.38,0.05,0.53,0.16
			c0.13,0.11,0.2,0.28,0.19,0.46c0.01,0.17-0.06,0.34-0.19,0.44c-0.15,0.11-0.34,0.17-0.53,0.15h-4.3
			C33.93,78.02,33.74,77.96,33.58,77.83z"/>
		<path class="st0" d="M42.37,77.86c-0.48-0.13-0.93-0.35-1.33-0.64c-0.31-0.25-0.36-0.7-0.12-1.01c0.08-0.11,0.21-0.18,0.35-0.19
			c0.18,0.01,0.34,0.07,0.49,0.17c0.33,0.24,0.69,0.42,1.07,0.53c0.4,0.12,0.82,0.17,1.24,0.17c0.47,0.03,0.93-0.08,1.34-0.3
			c0.3-0.19,0.48-0.53,0.46-0.89c0-0.3-0.17-0.57-0.44-0.69c-0.46-0.22-0.95-0.38-1.45-0.47c-0.59-0.12-1.16-0.29-1.71-0.53
			c-0.39-0.16-0.73-0.43-0.99-0.77c-0.23-0.35-0.35-0.76-0.33-1.18c0-0.47,0.14-0.93,0.41-1.31c0.3-0.41,0.7-0.72,1.16-0.91
			c1.49-0.59,3.17-0.37,4.46,0.58c0.09,0.07,0.16,0.16,0.22,0.26c0.11,0.25,0.08,0.54-0.08,0.75c-0.08,0.11-0.21,0.18-0.35,0.19
			c-0.07,0-0.15-0.01-0.22-0.04c-0.09-0.03-0.18-0.08-0.27-0.13c-0.29-0.22-0.61-0.4-0.95-0.53c-0.36-0.12-0.74-0.18-1.13-0.17
			c-0.45-0.02-0.9,0.09-1.29,0.33c-0.31,0.2-0.48,0.55-0.47,0.91c-0.01,0.31,0.15,0.6,0.42,0.75c0.45,0.24,0.93,0.4,1.42,0.49
			c0.59,0.12,1.17,0.3,1.72,0.53c0.4,0.16,0.74,0.42,1.02,0.75c0.24,0.33,0.37,0.73,0.35,1.13c0,0.46-0.14,0.91-0.41,1.29
			c-0.3,0.39-0.7,0.7-1.16,0.88c-0.54,0.22-1.13,0.33-1.71,0.32C43.52,78.12,42.93,78.03,42.37,77.86z"/>
		<path class="st0" d="M50.87,77.86c-0.48-0.13-0.93-0.35-1.33-0.64c-0.31-0.25-0.37-0.69-0.13-1.01c0.08-0.11,0.21-0.18,0.35-0.19
			c0.18,0.01,0.34,0.07,0.49,0.17c0.33,0.24,0.69,0.42,1.07,0.53c0.4,0.12,0.82,0.17,1.24,0.17c0.47,0.03,0.93-0.08,1.34-0.3
			c0.3-0.19,0.48-0.53,0.46-0.89c0-0.3-0.17-0.57-0.44-0.69c-0.46-0.22-0.95-0.38-1.45-0.47c-0.59-0.12-1.16-0.29-1.71-0.53
			c-0.39-0.17-0.73-0.44-0.98-0.78c-0.23-0.35-0.35-0.76-0.33-1.18c-0.01-0.48,0.14-0.94,0.42-1.33c0.3-0.41,0.7-0.72,1.16-0.91
			c1.49-0.59,3.17-0.37,4.46,0.58c0.09,0.07,0.16,0.16,0.22,0.26c0.11,0.25,0.08,0.54-0.08,0.75c-0.08,0.11-0.21,0.18-0.35,0.19
			c-0.07,0-0.15-0.01-0.22-0.04c-0.09-0.03-0.18-0.08-0.27-0.13c-0.29-0.22-0.61-0.4-0.95-0.53c-0.36-0.12-0.74-0.18-1.13-0.17
			c-0.45-0.02-0.9,0.09-1.29,0.33c-0.31,0.2-0.48,0.55-0.47,0.91c-0.01,0.31,0.15,0.6,0.42,0.75c0.45,0.24,0.93,0.4,1.42,0.49
			c0.59,0.12,1.17,0.3,1.72,0.53c0.4,0.16,0.74,0.42,1.02,0.75c0.24,0.33,0.37,0.73,0.35,1.13c0,0.46-0.14,0.91-0.41,1.29
			c-0.3,0.39-0.7,0.7-1.16,0.88c-0.54,0.22-1.13,0.33-1.71,0.32C52.03,78.1,51.44,78.02,50.87,77.86z"/>
		<path class="st0" d="M58.42,77.83c-0.14-0.15-0.22-0.35-0.21-0.56v-6.98c-0.03-0.4,0.28-0.74,0.67-0.77c0.03,0,0.06,0,0.09,0
			c0.21-0.01,0.41,0.06,0.57,0.21c0.14,0.15,0.22,0.35,0.21,0.55v7.01c0.01,0.21-0.07,0.41-0.21,0.56
			c-0.15,0.15-0.36,0.22-0.57,0.21C58.76,78.07,58.56,77.98,58.42,77.83z"/>
		<path class="st0" d="M64.07,77.58c-0.61-0.35-1.1-0.87-1.4-1.51c-0.65-1.46-0.65-3.12,0-4.58c0.3-0.63,0.79-1.15,1.39-1.5
			c1.34-0.7,2.93-0.7,4.27,0c0.6,0.35,1.08,0.87,1.38,1.5c0.65,1.46,0.65,3.12,0,4.58c-0.3,0.63-0.79,1.15-1.39,1.51
			C66.99,78.28,65.4,78.28,64.07,77.58z M68.01,76.08c0.87-1.4,0.87-3.17,0-4.58c-0.93-1-2.49-1.06-3.49-0.14
			c-0.05,0.04-0.09,0.09-0.14,0.14c-0.87,1.4-0.87,3.17,0,4.58c0.92,1,2.47,1.07,3.47,0.16C67.91,76.18,67.96,76.13,68.01,76.08z"/>
		<path class="st0" d="M79.55,69.74c0.14,0.15,0.21,0.35,0.2,0.55v7.01c0.01,0.21-0.07,0.41-0.21,0.56
			c-0.3,0.29-0.77,0.29-1.06-0.01c-0.01-0.01-0.03-0.03-0.04-0.05l-4.36-5.67v5.15c0.01,0.2-0.06,0.4-0.19,0.56
			c-0.29,0.29-0.76,0.29-1.05,0c-0.13-0.16-0.2-0.36-0.19-0.56v-6.99c-0.01-0.2,0.07-0.4,0.21-0.55c0.14-0.14,0.34-0.21,0.53-0.21
			c0.23-0.02,0.44,0.09,0.57,0.28l4.34,5.64v-5.15c-0.01-0.2,0.06-0.4,0.2-0.55c0.14-0.14,0.33-0.22,0.52-0.21
			C79.22,69.53,79.41,69.6,79.55,69.74z"/>
		<path class="st0" d="M16.51,92.17c-0.14-0.15-0.22-0.35-0.21-0.55v-6.43h-2.17c-0.48,0-0.71-0.21-0.71-0.64s0.24-0.64,0.71-0.64
			h5.88c0.48,0,0.71,0.21,0.71,0.64s-0.24,0.64-0.71,0.64h-2.17v6.43c0.03,0.4-0.28,0.74-0.67,0.77c-0.03,0-0.06,0-0.09,0
			C16.87,92.39,16.66,92.31,16.51,92.17z"/>
		<path class="st0" d="M29.21,91.71c0,0.18-0.08,0.35-0.22,0.46c-0.14,0.13-0.32,0.19-0.51,0.19c-0.28,0.02-0.54-0.15-0.64-0.42
			l-0.71-1.6h-4.2l-0.71,1.6c-0.05,0.13-0.15,0.24-0.26,0.32c-0.11,0.07-0.24,0.1-0.37,0.1c-0.19,0-0.36-0.07-0.5-0.19
			c-0.14-0.11-0.23-0.28-0.23-0.46c0-0.11,0.02-0.21,0.07-0.31l3.29-7.08c0.07-0.16,0.18-0.28,0.33-0.37c0.29-0.17,0.65-0.17,0.94,0
			c0.15,0.08,0.26,0.21,0.33,0.37l3.31,7.08C29.17,91.49,29.2,91.6,29.21,91.71z M23.47,89.13h3.15l-1.6-3.52L23.47,89.13z"/>
		<path class="st0" d="M31.45,92.18c-0.14-0.15-0.22-0.35-0.21-0.56v-7.01c-0.03-0.4,0.28-0.74,0.67-0.77c0.03,0,0.06,0,0.09,0
			c0.21-0.01,0.41,0.06,0.57,0.21c0.14,0.15,0.22,0.35,0.21,0.55v7.01c0.01,0.21-0.07,0.41-0.21,0.56
			c-0.15,0.15-0.36,0.22-0.57,0.21C31.8,92.4,31.6,92.32,31.45,92.18z"/>
		<path class="st0" d="M46.31,83.95c0.12-0.08,0.27-0.12,0.41-0.12c0.18,0,0.36,0.06,0.5,0.18c0.14,0.12,0.22,0.29,0.21,0.48
			c-0.01,0.11-0.03,0.21-0.06,0.31l-2.57,7.08c-0.06,0.16-0.17,0.29-0.32,0.37c-0.15,0.09-0.31,0.13-0.48,0.13
			c-0.17,0-0.34-0.04-0.49-0.13c-0.15-0.08-0.26-0.21-0.31-0.37l-1.98-5.62l-2.01,5.62c-0.06,0.16-0.17,0.29-0.32,0.37
			c-0.3,0.18-0.67,0.18-0.97,0c-0.14-0.08-0.25-0.22-0.3-0.37l-2.57-7.08c-0.04-0.1-0.06-0.2-0.06-0.31
			c-0.01-0.18,0.07-0.36,0.22-0.48c0.27-0.21,0.65-0.24,0.95-0.06c0.13,0.08,0.23,0.21,0.28,0.36l2.03,5.84l2.09-5.79
			c0.05-0.15,0.15-0.28,0.28-0.37c0.12-0.09,0.27-0.14,0.42-0.14c0.15,0,0.3,0.05,0.42,0.14c0.13,0.09,0.23,0.23,0.28,0.39
			l2.03,5.86l2.07-5.91C46.08,84.17,46.18,84.04,46.31,83.95z"/>
		<path class="st0" d="M56.52,91.71c0,0.18-0.08,0.35-0.22,0.46c-0.14,0.13-0.32,0.19-0.51,0.19c-0.28,0.02-0.54-0.15-0.64-0.42
			l-0.71-1.6h-4.18l-0.71,1.6c-0.05,0.13-0.15,0.24-0.26,0.32c-0.11,0.07-0.24,0.1-0.37,0.1c-0.19,0-0.36-0.07-0.5-0.19
			c-0.14-0.11-0.23-0.28-0.23-0.46c0-0.11,0.02-0.21,0.07-0.31l3.29-7.08c0.07-0.16,0.18-0.28,0.33-0.37c0.29-0.17,0.65-0.17,0.94,0
			c0.15,0.08,0.26,0.21,0.33,0.37l3.31,7.08C56.5,91.5,56.53,91.6,56.52,91.71z M50.78,89.13h3.15l-1.56-3.52L50.78,89.13z"/>
		<path class="st0" d="M65.48,84.06c0.14,0.15,0.21,0.35,0.2,0.55v7.01c0.01,0.21-0.07,0.41-0.21,0.56
			c-0.14,0.14-0.33,0.22-0.53,0.21c-0.23,0.01-0.45-0.09-0.59-0.28l-4.36-5.67v5.15c0.01,0.2-0.06,0.4-0.19,0.56
			c-0.29,0.29-0.76,0.29-1.05,0c-0.13-0.16-0.2-0.36-0.19-0.56v-6.98c-0.01-0.2,0.07-0.4,0.21-0.55c0.14-0.14,0.34-0.21,0.53-0.21
			c0.23-0.02,0.44,0.09,0.57,0.28l4.34,5.64v-5.15c-0.01-0.2,0.06-0.4,0.2-0.55c0.14-0.14,0.33-0.22,0.52-0.21
			C65.15,83.85,65.34,83.92,65.48,84.06z"/>
		<circle class="st0" cx="37.32" cy="17.44" r="0.67"/>
		<circle class="st0" cx="40.57" cy="17.89" r="0.9"/>
		<circle class="st0" cx="36.67" cy="39.94" r="0.9"/>
		<circle class="st0" cx="45.01" cy="39.94" r="0.9"/>
		<circle class="st0" cx="43.29" cy="17.44" r="0.67"/>
		<circle class="st0" cx="40.57" cy="15.44" r="0.67"/>
		<circle class="st0" cx="37.38" cy="15.36" r="0.67"/>
		<circle class="st0" cx="34.67" cy="15.14" r="0.36"/>
		<circle class="st0" cx="42.76" cy="15.29" r="0.36"/>
		<circle class="st0" cx="36.79" cy="42.36" r="0.67"/>
		<circle class="st0" cx="45.23" cy="42.96" r="0.67"/>
		<circle class="st0" cx="18.6" cy="41.02" r="0.9"/>
		<circle class="st0" cx="14.78" cy="27.2" r="0.67"/>
		<circle class="st0" cx="43.66" cy="37.96" r="0.67"/>
		<circle class="st0" cx="43.71" cy="34.89" r="0.67"/>
		<circle class="st0" cx="65" cy="37.37" r="0.67"/>
		<circle class="st0" cx="12.34" cy="24.32" r="0.36"/>
		<circle class="st0" cx="38.61" cy="37.89" r="0.36"/>
		<circle class="st0" cx="36.83" cy="44.6" r="0.36"/>
		<circle class="st0" cx="45.58" cy="19.3" r="0.36"/>
		<circle class="st0" cx="45.14" cy="41.61" r="0.36"/>
		<circle class="st0" cx="12.88" cy="28.16" r="0.36"/>
		<circle class="st0" cx="38.26" cy="35.47" r="0.36"/>
		<circle class="st0" cx="45.51" cy="15.4" r="0.34"/>
		<circle class="st0" cx="18.63" cy="32.25" r="0.34"/>
		<circle class="st0" cx="18.51" cy="36.07" r="0.34"/>
		<circle class="st0" cx="16.83" cy="36.07" r="0.34"/>
		<circle class="st0" cx="45.51" cy="13.8" r="0.34"/>
		<circle class="st0" cx="48.21" cy="13.8" r="0.34"/>
		<circle class="st0" cx="48.21" cy="15.14" r="0.34"/>
		<circle class="st0" cx="45.51" cy="17.49" r="0.67"/>
		<circle class="st0" cx="40.57" cy="20.33" r="0.67"/>
		<circle class="st0" cx="20.77" cy="30.07" r="0.6"/>
		<circle class="st0" cx="45.51" cy="17.33" r="0.06"/>
		<circle class="st0" cx="46.8" cy="41.43" r="0.6"/>
		<circle class="st0" cx="74.36" cy="16.58" r="0.6"/>
		<circle class="st0" cx="64.91" cy="29.32" r="0.6"/>
		<circle class="st0" cx="64.91" cy="33.71" r="0.6"/>
		<circle class="st0" cx="70.19" cy="56.74" r="0.67"/>
		<circle class="st0" cx="15.73" cy="30.69" r="0.6"/>
		<circle class="st0" cx="18.44" cy="34.28" r="0.6"/>
		<circle class="st0" cx="18.51" cy="39.36" r="0.34"/>
		<circle class="st0" cx="16.83" cy="39.36" r="0.34"/>
		<circle class="st0" cx="18.44" cy="37.56" r="0.6"/>
		<circle class="st0" cx="67.01" cy="29.34" r="0.6"/>
		<circle class="st0" cx="67.01" cy="27.37" r="0.6"/>
		<circle class="st0" cx="68.91" cy="27.37" r="0.6"/>
		<circle class="st0" cx="68.7" cy="29.4" r="0.33"/>
		<circle class="st0" cx="74.12" cy="18.65" r="0.6"/>
		<circle class="st0" cx="18.66" cy="30.18" r="0.6"/>
		<circle class="st0" cx="15.81" cy="32.81" r="0.6"/>
		<circle class="st0" cx="72.17" cy="23.43" r="0.33"/>
		<circle class="st0" cx="61.35" cy="29.72" r="0.33"/>
		<circle class="st0" cx="64.94" cy="35.74" r="0.31"/>
		<circle class="st0" cx="71.95" cy="56.83" r="0.31"/>
		<circle class="st0" cx="64.94" cy="31.73" r="0.31"/>
		<circle class="st0" cx="62.81" cy="31.39" r="0.6"/>
		<circle class="st0" cx="12.34" cy="28.14" r="0.05"/>
		<circle class="st0" cx="62.47" cy="31.3" r="0.05"/>
		<circle class="st0" cx="5.41" cy="8.77" r="1.24"/>
		<circle class="st0" cx="4.11" cy="5.73" r="0.68"/>
		<circle class="st0" cx="6.1" cy="2.44" r="1.24"/>
		<circle class="st0" cx="44.68" cy="26.21" r="1.84"/>
		<circle class="st0" cx="44.68" cy="29.22" r="1.61"/>
		<circle class="st0" cx="44.68" cy="32.23" r="1.38"/>
		<circle class="st0" cx="48.55" cy="41.43" r="1.15"/>
		<circle class="st0" cx="45.68" cy="34.62" r="0.68"/>
		<circle class="st0" cx="62.65" cy="5.73" r="0.68"/>
		<circle class="st0" cx="69.86" cy="20.24" r="0.68"/>
		<circle class="st0" cx="66.41" cy="25.42" r="0.68"/>
		<circle class="st0" cx="73.35" cy="13.99" r="0.68"/>
		<circle class="st0" cx="52.3" cy="12.76" r="0.68"/>
		<circle class="st0" cx="45.73" cy="21.05" r="0.5"/>
		<circle class="st0" cx="56.16" cy="52.9" r="0.5"/>
		<circle class="st0" cx="48.01" cy="20.2" r="1.65"/>
		<circle class="st0" cx="51.02" cy="20.2" r="1.65"/>
		<circle class="st0" cx="48.01" cy="23.21" r="1.8"/>
		<circle class="st0" cx="51.02" cy="23.21" r="1.8"/>
		<circle class="st0" cx="48.01" cy="26.21" r="1.78"/>
		<circle class="st0" cx="51.02" cy="26.21" r="1.78"/>
		<circle class="st0" cx="48.01" cy="29.22" r="1.65"/>
		<circle class="st0" cx="51.02" cy="29.22" r="1.65"/>
		<circle class="st0" cx="48.01" cy="32.23" r="1.51"/>
		<circle class="st0" cx="51.02" cy="32.23" r="1.51"/>
		<circle class="st0" cx="51.02" cy="44.27" r="1.38"/>
		<circle class="st0" cx="52.07" cy="49.47" r="1.1"/>
		<circle class="st0" cx="54.48" cy="53.65" r="0.96"/>
		<circle class="st0" cx="55.33" cy="55.61" r="0.96"/>
		<circle class="st0" cx="54.42" cy="20.2" r="1.65"/>
		<circle class="st0" cx="51.02" cy="16.89" r="1.65"/>
		<circle class="st0" cx="54.42" cy="16.89" r="1.65"/>
		<circle class="st0" cx="54.42" cy="23.21" r="1.8"/>
		<circle class="st0" cx="54.42" cy="26.21" r="1.78"/>
		<circle class="st0" cx="54.42" cy="29.22" r="1.65"/>
		<circle class="st0" cx="54.42" cy="32.23" r="1.51"/>
		<circle class="st0" cx="54.42" cy="44.27" r="1.38"/>
		<circle class="st0" cx="54.42" cy="49.56" r="1.1"/>
		<circle class="st0" cx="43.53" cy="21.52" r="0.96"/>
		<circle class="st0" cx="54.42" cy="51.63" r="0.96"/>
		<circle class="st0" cx="51.2" cy="14.08" r="0.96"/>
		<circle class="st0" cx="61.18" cy="51.63" r="0.96"/>
		<circle class="st0" cx="57.69" cy="52.31" r="0.96"/>
		<circle class="st0" cx="73.09" cy="5.38" r="0.96"/>
		<circle class="st0" cx="59.66" cy="30.63" r="0.5"/>
		<circle class="st0" cx="57.69" cy="32.17" r="1.51"/>
		<circle class="st0" cx="48.01" cy="35.2" r="1.65"/>
		<circle class="st0" cx="51.02" cy="35.2" r="1.65"/>
		<circle class="st0" cx="51.02" cy="41.48" r="1.51"/>
		<circle class="st0" cx="54.42" cy="35.2" r="1.65"/>
		<circle class="st0" cx="57.69" cy="35.2" r="1.65"/>
		<circle class="st0" cx="57.69" cy="49.71" r="1.65"/>
		<circle class="st0" cx="61.18" cy="54.25" r="1.65"/>
		<circle class="st0" cx="64.31" cy="54.21" r="1.39"/>
		<circle class="st0" cx="54.42" cy="41.48" r="1.51"/>
		<circle class="st0" cx="57.69" cy="41.42" r="1.51"/>
		<circle class="st0" cx="57.69" cy="44.21" r="1.38"/>
		<circle class="st0" cx="63.58" cy="47.05" r="1.1"/>
		<circle class="st0" cx="57.69" cy="29.57" r="1.1"/>
		<circle class="st0" cx="60.59" cy="32.43" r="1.1"/>
		<circle class="st0" cx="48.54" cy="43.91" r="0.96"/>
		<circle class="st0" cx="63.05" cy="49.44" r="0.5"/>
		<circle class="st0" cx="68.85" cy="59.33" r="0.5"/>
		<circle class="st0" cx="43.44" cy="19.39" r="0.5"/>
		<circle class="st0" cx="37.99" cy="19.39" r="0.5"/>
		<circle class="st0" cx="61.18" cy="44.27" r="1.38"/>
		<circle class="st0" cx="61.88" cy="56.89" r="1.15"/>
		<circle class="st0" cx="51.02" cy="47.04" r="1.38"/>
		<circle class="st0" cx="54.42" cy="47.04" r="1.38"/>
		<circle class="st0" cx="57.69" cy="46.97" r="1.38"/>
		<circle class="st0" cx="57.69" cy="54.74" r="1.38"/>
		<circle class="st0" cx="61.18" cy="47.04" r="1.38"/>
		<circle class="st0" cx="61.18" cy="49.56" r="1.1"/>
		<circle class="st0" cx="63.54" cy="58.48" r="0.96"/>
		<circle class="st0" cx="63.78" cy="44.09" r="0.96"/>
		<circle class="st0" cx="66.34" cy="58.19" r="0.96"/>
		<circle class="st0" cx="61.88" cy="59.02" r="0.5"/>
		<circle class="st0" cx="69.04" cy="54.98" r="0.5"/>
		<circle class="st0" cx="62.56" cy="33.35" r="0.5"/>
		<circle class="st0" cx="69.31" cy="21.88" r="0.5"/>
		<circle class="st0" cx="65.05" cy="56.64" r="1.1"/>
		<circle class="st0" cx="67.95" cy="56.64" r="1.1"/>
		<circle class="st0" cx="74.12" cy="56.64" r="1.1"/>
		<circle class="st0" cx="73.94" cy="1.71" r="1.1"/>
		<circle class="st0" cx="67.14" cy="54.17" r="1.1"/>
		<circle class="st0" cx="10.63" cy="20.86" r="1.1"/>
		<circle class="st0" cx="63.3" cy="51.59" r="1.1"/>
		<circle class="st0" cx="59.66" cy="56.66" r="0.96"/>
		<circle class="st0" cx="71.88" cy="52.85" r="0.96"/>
		<circle class="st0" cx="61.18" cy="35.2" r="1.65"/>
		<circle class="st0" cx="45.68" cy="37.61" r="0.68"/>
		<circle class="st0" cx="48.01" cy="38.2" r="1.65"/>
		<circle class="st0" cx="51.02" cy="38.2" r="1.65"/>
		<circle class="st0" cx="54.42" cy="38.2" r="1.65"/>
		<circle class="st0" cx="57.69" cy="38.2" r="1.65"/>
		<circle class="st0" cx="61.18" cy="38.2" r="1.65"/>
		<circle class="st0" cx="61.18" cy="41.48" r="1.51"/>
		<circle class="st0" cx="48.01" cy="17.29" r="1.24"/>
		<circle class="st0" cx="44.88" cy="23.23" r="1.24"/>
		<circle class="st0" cx="37.33" cy="23.23" r="1.24"/>
		<circle class="st0" cx="64.81" cy="4.59" r="1.24"/>
		<circle class="st0" cx="54.42" cy="13.97" r="1.24"/>
		<circle class="st0" cx="54.42" cy="11.5" r="1.24"/>
		<circle class="st0" cx="67.53" cy="3.06" r="1.24"/>
		<circle class="st0" cx="57.72" cy="20.2" r="1.65"/>
		<circle class="st0" cx="57.72" cy="16.84" r="1.65"/>
		<circle class="st0" cx="57.72" cy="13.49" r="1.65"/>
		<circle class="st0" cx="57.72" cy="9.59" r="1.65"/>
		<circle class="st0" cx="57.72" cy="26.55" r="1.65"/>
		<circle class="st0" cx="60.73" cy="20.2" r="1.65"/>
		<circle class="st0" cx="57.72" cy="23.21" r="1.8"/>
		<circle class="st0" cx="60.73" cy="23.21" r="1.8"/>
		<circle class="st0" cx="60.73" cy="26.85" r="1.78"/>
		<circle class="st0" cx="64.12" cy="20.2" r="1.65"/>
		<circle class="st0" cx="64.12" cy="26.55" r="1.65"/>
		<circle class="st0" cx="60.73" cy="16.89" r="1.65"/>
		<circle class="st0" cx="60.73" cy="11.27" r="1.65"/>
		<circle class="st0" cx="60.73" cy="7.32" r="1.65"/>
		<circle class="st0" cx="64.12" cy="16.89" r="1.65"/>
		<circle class="st0" cx="64.12" cy="8.36" r="1.65"/>
		<circle class="st0" cx="74.15" cy="8.36" r="1.65"/>
		<circle class="st0" cx="74.15" cy="11.54" r="1.65"/>
		<circle class="st0" cx="75.78" cy="5.45" r="1.65"/>
		<circle class="st0" cx="67.71" cy="6.28" r="1.65"/>
		<circle class="st0" cx="64.12" cy="23.21" r="1.8"/>
		<circle class="st0" cx="60.73" cy="14.08" r="0.96"/>
		<circle class="st0" cx="76.23" cy="2.44" r="1.24"/>
		<circle class="st0" cx="64.12" cy="13.97" r="1.24"/>
		<circle class="st0" cx="64.12" cy="11.5" r="1.24"/>
		<circle class="st0" cx="67.62" cy="18.11" r="1.65"/>
		<circle class="st0" cx="67.62" cy="14.8" r="1.65"/>
		<circle class="st0" cx="67.62" cy="11.89" r="1.24"/>
		<circle class="st0" cx="67.62" cy="21.14" r="1.24"/>
		<circle class="st0" cx="67.62" cy="23.63" r="1.24"/>
		<circle class="st0" cx="67.62" cy="9.41" r="1.24"/>
		<circle class="st0" cx="71.11" cy="2.73" r="2.08"/>
		<circle class="st0" cx="71.02" cy="14.99" r="1.65"/>
		<circle class="st0" cx="71.02" cy="11.68" r="1.65"/>
		<circle class="st0" cx="71.02" cy="8.77" r="1.24"/>
		<circle class="st0" cx="71.02" cy="18.02" r="1.24"/>
		<circle class="st0" cx="71.02" cy="6.29" r="1.24"/>
		<circle class="st0" cx="37.66" cy="26.21" r="1.84"/>
		<circle class="st0" cx="37.66" cy="29.22" r="1.61"/>
		<circle class="st0" cx="37.66" cy="32.23" r="1.38"/>
		<circle class="st0" cx="33.79" cy="41.43" r="1.15"/>
		<circle class="st0" cx="36.66" cy="34.62" r="0.68"/>
		<circle class="st0" cx="19.69" cy="5.73" r="0.68"/>
		<circle class="st0" cx="12.48" cy="20.24" r="0.68"/>
		<circle class="st0" cx="15.93" cy="25.42" r="0.68"/>
		<circle class="st0" cx="8.99" cy="13.99" r="0.68"/>
		<circle class="st0" cx="30.04" cy="12.76" r="0.68"/>
		<circle class="st0" cx="36.61" cy="21.05" r="0.5"/>
		<circle class="st0" cx="26.18" cy="52.9" r="0.5"/>
		<circle class="st0" cx="34.32" cy="20.2" r="1.65"/>
		<circle class="st0" cx="31.32" cy="20.2" r="1.65"/>
		<circle class="st0" cx="34.32" cy="23.21" r="1.8"/>
		<circle class="st0" cx="31.32" cy="23.21" r="1.8"/>
		<circle class="st0" cx="34.32" cy="26.21" r="1.78"/>
		<circle class="st0" cx="31.32" cy="26.21" r="1.78"/>
		<circle class="st0" cx="34.32" cy="29.22" r="1.65"/>
		<circle class="st0" cx="31.32" cy="29.22" r="1.65"/>
		<circle class="st0" cx="34.32" cy="32.23" r="1.51"/>
		<circle class="st0" cx="31.32" cy="32.23" r="1.51"/>
		<circle class="st0" cx="31.32" cy="44.27" r="1.38"/>
		<circle class="st0" cx="30.28" cy="49.47" r="1.1"/>
		<circle class="st0" cx="27.86" cy="53.65" r="0.96"/>
		<circle class="st0" cx="27" cy="55.61" r="0.96"/>
		<circle class="st0" cx="27.92" cy="20.2" r="1.65"/>
		<circle class="st0" cx="31.32" cy="16.89" r="1.65"/>
		<circle class="st0" cx="27.92" cy="16.89" r="1.65"/>
		<circle class="st0" cx="27.92" cy="23.21" r="1.8"/>
		<circle class="st0" cx="27.92" cy="26.21" r="1.78"/>
		<circle class="st0" cx="27.92" cy="29.22" r="1.65"/>
		<circle class="st0" cx="27.92" cy="32.23" r="1.51"/>
		<circle class="st0" cx="27.92" cy="44.27" r="1.38"/>
		<circle class="st0" cx="27.92" cy="49.56" r="1.1"/>
		<circle class="st0" cx="27.92" cy="51.63" r="0.96"/>
		<circle class="st0" cx="31.14" cy="14.08" r="0.96"/>
		<circle class="st0" cx="21.17" cy="51.63" r="0.96"/>
		<circle class="st0" cx="24.65" cy="52.31" r="0.96"/>
		<circle class="st0" cx="9.24" cy="5.38" r="0.96"/>
		<circle class="st0" cx="22.68" cy="30.63" r="0.5"/>
		<circle class="st0" cx="24.65" cy="32.17" r="1.51"/>
		<circle class="st0" cx="34.32" cy="35.2" r="1.65"/>
		<circle class="st0" cx="31.32" cy="35.2" r="1.65"/>
		<circle class="st0" cx="31.32" cy="41.48" r="1.51"/>
		<circle class="st0" cx="27.92" cy="35.2" r="1.65"/>
		<circle class="st0" cx="24.65" cy="35.2" r="1.65"/>
		<circle class="st0" cx="24.65" cy="49.71" r="1.65"/>
		<circle class="st0" cx="21.17" cy="54.25" r="1.65"/>
		<circle class="st0" cx="17.99" cy="54.25" r="1.65"/>
		<circle class="st0" cx="27.92" cy="41.48" r="1.51"/>
		<circle class="st0" cx="24.65" cy="41.42" r="1.51"/>
		<circle class="st0" cx="24.65" cy="44.21" r="1.38"/>
		<circle class="st0" cx="18.76" cy="47.05" r="1.1"/>
		<circle class="st0" cx="24.65" cy="29.57" r="1.1"/>
		<circle class="st0" cx="21.75" cy="32.43" r="1.1"/>
		<circle class="st0" cx="33.8" cy="43.91" r="0.96"/>
		<circle class="st0" cx="19.29" cy="49.44" r="0.5"/>
		<circle class="st0" cx="17.07" cy="59.7" r="0.5"/>
		<circle class="st0" cx="13.94" cy="58.78" r="0.5"/>
		<circle class="st0" cx="21.17" cy="44.27" r="1.38"/>
		<circle class="st0" cx="20.46" cy="56.89" r="1.15"/>
		<circle class="st0" cx="31.32" cy="47.04" r="1.38"/>
		<circle class="st0" cx="27.92" cy="47.04" r="1.38"/>
		<circle class="st0" cx="24.65" cy="46.97" r="1.38"/>
		<circle class="st0" cx="24.65" cy="54.74" r="1.38"/>
		<circle class="st0" cx="21.17" cy="47.04" r="1.38"/>
		<circle class="st0" cx="21.17" cy="49.56" r="1.1"/>
		<circle class="st0" cx="18.8" cy="58.48" r="0.96"/>
		<circle class="st0" cx="18.57" cy="44.09" r="0.96"/>
		<circle class="st0" cx="16" cy="58.19" r="0.96"/>
		<circle class="st0" cx="20.46" cy="59.02" r="0.5"/>
		<circle class="st0" cx="13.3" cy="54.98" r="0.5"/>
		<circle class="st0" cx="19.78" cy="33.35" r="0.5"/>
		<circle class="st0" cx="13.03" cy="21.88" r="0.5"/>
		<circle class="st0" cx="17.29" cy="56.64" r="1.1"/>
		<circle class="st0" cx="14.38" cy="56.64" r="1.1"/>
		<circle class="st0" cx="11.91" cy="57" r="1.1"/>
		<circle class="st0" cx="8.4" cy="1.71" r="1.1"/>
		<circle class="st0" cx="15.21" cy="54.17" r="1.1"/>
		<circle class="st0" cx="19.04" cy="51.59" r="1.1"/>
		<circle class="st0" cx="22.68" cy="56.66" r="0.96"/>
		<circle class="st0" cx="30.28" cy="51.63" r="0.96"/>
		<circle class="st0" cx="21.17" cy="35.2" r="1.65"/>
		<circle class="st0" cx="36.66" cy="37.61" r="0.68"/>
		<circle class="st0" cx="34.32" cy="38.2" r="1.65"/>
		<circle class="st0" cx="31.32" cy="38.2" r="1.65"/>
		<circle class="st0" cx="27.92" cy="38.2" r="1.65"/>
		<circle class="st0" cx="24.65" cy="38.2" r="1.65"/>
		<circle class="st0" cx="21.17" cy="38.2" r="1.65"/>
		<circle class="st0" cx="21.17" cy="41.48" r="1.51"/>
		<circle class="st0" cx="34.32" cy="17.29" r="1.24"/>
		<circle class="st0" cx="17.54" cy="4.59" r="1.24"/>
		<circle class="st0" cx="27.92" cy="13.97" r="1.24"/>
		<circle class="st0" cx="27.92" cy="11.5" r="1.24"/>
		<circle class="st0" cx="14.81" cy="3.06" r="1.24"/>
		<circle class="st0" cx="24.62" cy="20.2" r="1.65"/>
		<circle class="st0" cx="24.62" cy="16.84" r="1.65"/>
		<circle class="st0" cx="24.62" cy="13.49" r="1.65"/>
		<circle class="st0" cx="24.62" cy="9.59" r="1.65"/>
		<circle class="st0" cx="24.62" cy="26.55" r="1.65"/>
		<circle class="st0" cx="21.62" cy="20.2" r="1.65"/>
		<circle class="st0" cx="24.62" cy="23.21" r="1.8"/>
		<circle class="st0" cx="21.62" cy="23.21" r="1.8"/>
		<circle class="st0" cx="21.62" cy="26.85" r="1.78"/>
		<circle class="st0" cx="18.21" cy="20.2" r="1.65"/>
		<circle class="st0" cx="18.21" cy="26.55" r="1.65"/>
		<circle class="st0" cx="21.62" cy="16.89" r="1.65"/>
		<circle class="st0" cx="21.62" cy="11.27" r="1.65"/>
		<circle class="st0" cx="21.62" cy="7.32" r="1.65"/>
		<circle class="st0" cx="18.21" cy="16.89" r="1.65"/>
		<circle class="st0" cx="18.21" cy="8.36" r="1.65"/>
		<circle class="st0" cx="8.19" cy="8.36" r="1.65"/>
		<circle class="st0" cx="8.19" cy="11.54" r="1.65"/>
		<circle class="st0" cx="6.56" cy="5.45" r="1.65"/>
		<circle class="st0" cx="14.63" cy="6.28" r="1.65"/>
		<circle class="st0" cx="18.21" cy="23.21" r="1.8"/>
		<circle class="st0" cx="21.62" cy="14.08" r="0.96"/>
		<circle class="st0" cx="18.21" cy="13.97" r="1.24"/>
		<circle class="st0" cx="18.21" cy="11.5" r="1.24"/>
		<circle class="st0" cx="14.72" cy="18.11" r="1.65"/>
		<circle class="st0" cx="14.72" cy="14.8" r="1.65"/>
		<circle class="st0" cx="14.72" cy="11.89" r="1.24"/>
		<circle class="st0" cx="14.72" cy="21.14" r="1.24"/>
		<circle class="st0" cx="14.72" cy="23.63" r="1.24"/>
		<circle class="st0" cx="14.72" cy="9.41" r="1.24"/>
		<circle class="st0" cx="11.24" cy="2.73" r="2.08"/>
		<circle class="st0" cx="11.33" cy="14.99" r="1.65"/>
		<circle class="st0" cx="11.33" cy="11.68" r="1.65"/>
		<circle class="st0" cx="11.33" cy="8.77" r="1.24"/>
		<circle class="st0" cx="11.33" cy="18.02" r="1.24"/>
		<circle class="st0" cx="11.33" cy="6.29" r="1.24"/>
		<circle class="st0" cx="40.96" cy="26.97" r="1.56"/>
		<circle class="st0" cx="40.96" cy="29.86" r="1.76"/>
		<circle class="st0" cx="40.96" cy="32.73" r="1.54"/>
		<circle class="st0" cx="40.96" cy="35.61" r="1.32"/>
		<circle class="st0" cx="40.96" cy="23.76" r="0.87"/>
		<circle class="st0" cx="40.96" cy="40.51" r="0.87"/>
		<circle class="st0" cx="40.96" cy="42.51" r="0.87"/>
		<circle class="st0" cx="40.96" cy="26.97" r="1.66"/>
		<circle class="st0" cx="40.96" cy="23.65" r="1.66"/>
		<circle class="st0" cx="40.96" cy="29.86" r="1.7"/>
		<circle class="st0" cx="40.96" cy="32.73" r="1.49"/>
		<circle class="st0" cx="40.96" cy="35.61" r="1.29"/>
		<circle class="st0" cx="40.96" cy="38.09" r="1.29"/>
	</g>
</g>
</svg>
