<?xml version="1.0" encoding="utf-8"?>
<!-- Generator: Adobe Illustrator 26.3.1, SVG Export Plug-In . SVG Version: 6.00 Build 0)  -->
<svg version="1.1" id="圖層_1" xmlns="http://www.w3.org/2000/svg" xmlns:xlink="http://www.w3.org/1999/xlink" x="0px" y="0px"
	 viewBox="0 0 210 50" style="enable-background:new 0 0 210 50;" xml:space="preserve">
<style type="text/css">
	.st0{fill:#FFFFFF;}
</style>
<g>
	<path class="st0" d="M49.78,25c0-7.33-3.23-13.91-8.33-18.39v25.78c0,2.45-2.22,3.05-2.22,3.05l-30,8.04
		c4.3,3.74,9.92,6.02,16.07,6.02C38.82,49.49,49.78,38.52,49.78,25L49.78,25z M23.27,35.13v-6.06l7.19-1.93v-4.04l-7.19,1.93v-5.05
		l8.37-2.24v-4.04l-12.7,3.4v19.18L23.27,35.13L23.27,35.13z M41.36,6.53c-4.3-3.74-9.92-6.02-16.07-6.02
		C11.77,0.51,0.8,11.48,0.8,25c0,7.33,3.23,13.91,8.33,18.39V17.61c0-2.45,2.22-3.05,2.22-3.05L41.36,6.53L41.36,6.53z"/>
	<path class="st0" d="M143.01,33.61v-0.64h-4.41v7.02h0.71V37.2h3.3v-0.65h-3.3v-2.95H143.01L143.01,33.61z M145.06,34.34
		c0.27,0,0.5-0.21,0.49-0.49c-0.01-0.29-0.22-0.5-0.49-0.5c-0.28,0-0.51,0.21-0.51,0.5C144.55,34.14,144.78,34.34,145.06,34.34
		L145.06,34.34z M147.14,34.36c0.28,0,0.51-0.21,0.5-0.5c-0.01-0.29-0.22-0.5-0.5-0.5c-0.27,0-0.5,0.21-0.5,0.5
		C146.64,34.16,146.87,34.36,147.14,34.36L147.14,34.36z M147.54,35.39v2.56c-0.01,0.66-0.49,1.44-1.46,1.45
		c-0.83,0-1.36-0.63-1.36-1.59v-2.42h-0.71v2.55c0,1.29,0.8,2.14,1.99,2.14c0.77,0,1.34-0.4,1.61-0.88l0.02,0.79h0.62v-4.59H147.54
		L147.54,35.39z M152.2,35.3c-0.86,0-1.41,0.49-1.59,1.05l-0.04-0.96h-0.62v4.59h0.71v-2.57c0.01-0.66,0.45-1.44,1.42-1.44
		c0.17,0,0.3,0.02,0.42,0.06l0.06-0.71C152.46,35.31,152.33,35.3,152.2,35.3L152.2,35.3z M159.85,32.86v3.33
		c-0.33-0.48-0.93-0.89-1.79-0.89c-1.25,0-2.21,1.02-2.21,2.39c0,1.37,0.98,2.39,2.23,2.39c0.86,0,1.46-0.4,1.81-0.93l0.03,0.84
		h0.62v-7.13H159.85L159.85,32.86z M158.2,39.43c-0.9,0-1.64-0.74-1.64-1.74c0-1,0.74-1.74,1.64-1.74c0.99,0,1.66,0.74,1.66,1.74
		C159.86,38.7,159.19,39.43,158.2,39.43L158.2,39.43z M162.6,34.43c0.32,0,0.56-0.22,0.56-0.54c0-0.32-0.24-0.54-0.56-0.54
		c-0.31,0.01-0.55,0.22-0.55,0.54C162.05,34.22,162.29,34.43,162.6,34.43L162.6,34.43z M162.25,39.99h0.72v-4.59h-0.71L162.25,39.99
		L162.25,39.99z M168.82,37.6c0-1.37-0.88-2.3-2.14-2.3c-1.38,0-2.32,1.04-2.32,2.39c0,1.38,1.02,2.39,2.44,2.39
		c0.89,0,1.42-0.31,1.78-0.6l-0.33-0.52c-0.31,0.25-0.71,0.51-1.38,0.51c-0.99,0-1.72-0.64-1.82-1.56h3.75
		C168.81,37.91,168.82,37.78,168.82,37.6L168.82,37.6z M166.7,35.91c0.78,0,1.39,0.55,1.44,1.42h-3.07
		C165.21,36.48,165.84,35.91,166.7,35.91L166.7,35.91z M177.36,33.61v-0.64h-4.41v7.02h0.71V37.2h3.31v-0.65h-3.31v-2.95H177.36
		L177.36,33.61z M180.64,35.3c-0.86,0-1.41,0.49-1.59,1.05l-0.04-0.96h-0.62v4.59h0.71v-2.57c0.01-0.66,0.45-1.44,1.42-1.44
		c0.17,0,0.3,0.02,0.42,0.06l0.06-0.71C180.9,35.31,180.77,35.3,180.64,35.3L180.64,35.3z M186.15,37.6c0-1.37-0.88-2.3-2.14-2.3
		c-1.38,0-2.32,1.04-2.32,2.39c0,1.38,1.02,2.39,2.44,2.39c0.89,0,1.42-0.31,1.78-0.6l-0.33-0.52c-0.31,0.25-0.71,0.51-1.38,0.51
		c-0.99,0-1.72-0.64-1.82-1.56h3.75C186.14,37.91,186.15,37.78,186.15,37.6L186.15,37.6z M184.04,35.91c0.78,0,1.39,0.55,1.44,1.42
		h-3.07C182.55,36.48,183.18,35.91,184.04,35.91L184.04,35.91z M187.87,34.43c0.32,0,0.56-0.22,0.56-0.54
		c0-0.32-0.24-0.54-0.56-0.54c-0.31,0.01-0.55,0.22-0.55,0.54C187.33,34.22,187.56,34.43,187.87,34.43L187.87,34.43z M187.52,39.99
		h0.72v-4.59h-0.71L187.52,39.99L187.52,39.99z M192.26,35.3c-0.79,0-1.35,0.39-1.62,0.86v-3.3h-0.69v7.13h0.71v-2.6
		c0.01-0.65,0.5-1.44,1.48-1.44c0.85-0.01,1.42,0.63,1.42,1.58v2.46h0.71v-2.55C194.27,36.15,193.46,35.3,192.26,35.3L192.26,35.3z
		 M200.06,37.6c0-1.37-0.88-2.3-2.14-2.3c-1.38,0-2.32,1.04-2.32,2.39c0,1.38,1.02,2.39,2.44,2.39c0.89,0,1.42-0.31,1.78-0.6
		l-0.33-0.52c-0.31,0.25-0.71,0.51-1.38,0.51c-0.99,0-1.72-0.64-1.82-1.56h3.75C200.05,37.91,200.06,37.78,200.06,37.6L200.06,37.6z
		 M197.94,35.91c0.78,0,1.39,0.55,1.44,1.42h-3.07C196.45,36.48,197.08,35.91,197.94,35.91L197.94,35.91z M201.78,34.43
		c0.32,0,0.56-0.22,0.56-0.54c0-0.32-0.24-0.54-0.56-0.54c-0.31,0.01-0.55,0.22-0.55,0.54C201.23,34.22,201.47,34.43,201.78,34.43
		L201.78,34.43z M201.42,39.99h0.72v-4.59h-0.71L201.42,39.99L201.42,39.99z M205.8,40.08c0.76,0,1.17-0.32,1.31-0.43l-0.27-0.55
		c-0.11,0.07-0.4,0.35-0.92,0.35c-0.67,0-1.03-0.29-1.03-0.96v-2.52h1.93v-0.58h-1.93v-1.58h-0.69v1.58h-0.95v0.58h0.94v2.52
		C204.19,39.51,204.87,40.08,205.8,40.08L205.8,40.08z M208.66,40.08c0.31,0,0.54-0.24,0.54-0.55c0-0.3-0.23-0.55-0.54-0.55
		c-0.32,0-0.55,0.25-0.55,0.55C208.11,39.84,208.34,40.08,208.66,40.08L208.66,40.08z"/>
	<path class="st0" d="M71.27,40.11c2,0,3.21-1.09,3.21-2.72c0-1.8-1.27-2.31-2.56-2.74c-1.19-0.39-1.7-0.51-1.7-1.03
		c0-0.53,0.51-0.71,1.16-0.71c0.81,0,1.55,0.29,2.14,0.7l0.95-1.57c-0.74-0.56-1.79-0.94-3.06-0.94c-2.01,0-3.33,1.04-3.33,2.67
		c0,1.63,1.26,2.14,2.65,2.58c1.2,0.38,1.65,0.58,1.65,1.16c0,0.58-0.48,0.79-1.05,0.79c-0.9,0-1.75-0.29-2.6-0.98l-1.02,1.65
		C68.61,39.69,69.7,40.11,71.27,40.11L71.27,40.11z M83.26,31.21h-7.84v1.85h2.86V40h2.1v-6.94h2.88V31.21L83.26,31.21z M84.44,40
		h2.1v-8.79h-2.1V40L84.44,40z M94.84,33.06v-1.85h-6.16V40h2.1v-2.78h3.49v-1.85h-3.49v-2.31H94.84L94.84,33.06z M103.57,31.21
		h-7.84v1.85h2.86V40h2.1v-6.94h2.88V31.21L103.57,31.21z M108.66,40.11c2.4,0,3.99-1.36,3.99-3.97v-4.93h-2.1v5.09
		c0,0.98-0.55,1.94-1.89,1.94c-1.33,0-1.86-0.96-1.86-1.94v-5.09h-2.1v4.93C104.69,38.75,106.28,40.11,108.66,40.11L108.66,40.11z
		 M120.81,31.21v5.18l-4.93-5.26h-1.16V40h2.05v-5.18l4.94,5.29h1.16v-8.9H120.81L120.81,31.21z M130.68,35.45v2.51
		c-0.36,0.19-0.8,0.28-1.3,0.28c-1.49,0-2.68-1.08-2.68-2.64c0-1.55,1.09-2.53,2.67-2.53c1.16,0,1.89,0.43,2.1,0.55l0.91-1.66
		c-0.33-0.21-1.25-0.86-3.07-0.86c-2.85,0-4.78,1.99-4.78,4.5c0,2.53,1.92,4.51,4.73,4.51c1.89,0,2.94-0.7,3.36-1.09v-3.58H130.68
		L130.68,35.45z"/>
	<path class="st0" d="M74.58,18.06v-1.85h-6.16V25h2.1v-2.78h3.49v-1.85h-3.49v-2.31H74.58L74.58,18.06z M83.05,23.38
		c-0.89,0-1.06-0.7-1.8-1.2c1.05-0.52,1.66-1.49,1.66-2.71c0-1.93-1.45-3.26-3.66-3.26h-3.21V25h2.1v-2.35h0.83
		c0.9,0.04,1.25,2.46,3.48,2.46c0.64,0,0.96-0.11,0.96-0.11v-1.62C83.29,23.38,83.16,23.38,83.05,23.38L83.05,23.38z M78.13,20.82
		v-2.79h0.99c1.01,0,1.65,0.63,1.65,1.44c0,0.79-0.65,1.35-1.64,1.35H78.13L78.13,20.82z M84.94,25h2.1v-8.79h-2.1V25L84.94,25z
		 M91.15,23.16V21.5h3.6v-1.85h-3.6v-1.59h4.08v-1.85h-6.17V25h6.24v-1.84H91.15L91.15,23.16z M100.64,16.21h-3.57V25h3.57
		c2.78,0,4.63-1.76,4.63-4.4C105.26,17.96,103.42,16.21,100.64,16.21L100.64,16.21z M100.51,23.15h-1.35v-5.09h1.35
		c1.66,0,2.61,1.03,2.61,2.56C103.13,22.13,102.18,23.15,100.51,23.15L100.51,23.15z M113.82,23.38c-0.89,0-1.06-0.7-1.8-1.2
		c1.05-0.52,1.66-1.49,1.66-2.71c0-1.93-1.45-3.26-3.66-3.26h-3.21V25h2.1v-2.35h0.83c0.9,0.04,1.25,2.46,3.48,2.46
		c0.64,0,0.96-0.11,0.96-0.11v-1.62C114.05,23.38,113.93,23.38,113.82,23.38L113.82,23.38z M108.9,20.82v-2.79h0.99
		c1.01,0,1.65,0.63,1.65,1.44c0,0.79-0.65,1.35-1.64,1.35H108.9L108.9,20.82z M115.71,25h2.1v-8.79h-2.1V25L115.71,25z
		 M124.04,25.11c1.55,0,2.49-0.54,2.93-0.87l-0.91-1.66c-0.19,0.13-0.86,0.56-1.93,0.56c-1.59,0-2.63-0.98-2.63-2.54
		c0-1.55,1.04-2.53,2.63-2.53c1.06,0,1.74,0.44,1.93,0.56l0.91-1.66c-0.44-0.34-1.43-0.87-2.93-0.87c-2.86,0-4.71,1.99-4.71,4.5
		C119.33,23.12,121.18,25.11,124.04,25.11L124.04,25.11z M134.33,16.21v3.49h-3.98v-3.49h-2.1V25h2.1v-3.45h3.98V25h2.1v-8.79
		H134.33L134.33,16.21z M147.28,16.21v5.18l-4.93-5.26h-1.16V25h2.05v-5.18l4.94,5.29h1.16v-8.9H147.28L147.28,16.21z M157.18,25
		h2.23l-3.88-8.79h-1.31L150.3,25h2.23l0.64-1.56h3.39L157.18,25L157.18,25z M154.85,19.2l1.04,2.48h-2.06L154.85,19.2L154.85,19.2z
		 M163.83,25.11c2.4,0,3.99-1.36,3.99-3.97v-4.93h-2.1v5.09c0,0.98-0.55,1.94-1.89,1.94c-1.33,0-1.86-0.96-1.86-1.94v-5.09h-2.1
		v4.93C159.87,23.75,161.46,25.11,163.83,25.11L163.83,25.11z M179.3,25l-0.24-8.79h-1.29l-3.34,5.58l-3.28-5.58h-1.3L169.62,25
		h2.06l0.01-4.54l2.1,3.69h1.29l2.14-3.68l0.01,4.53H179.3L179.3,25z M187.07,25h2.22l-3.87-8.79h-1.31L180.19,25h2.22l0.64-1.56
		h3.39L187.07,25L187.07,25z M184.74,19.2l1.04,2.48h-2.06L184.74,19.2L184.74,19.2z M196.35,16.21v5.18l-4.93-5.26h-1.16V25h2.05
		v-5.18l4.94,5.29h1.16v-8.9H196.35L196.35,16.21z M206.56,16.21v5.18l-4.93-5.26h-1.16V25h2.05v-5.18l4.94,5.29h1.16v-8.9H206.56
		L206.56,16.21z"/>
</g>
</svg>
