<?xml version="1.0" encoding="utf-8"?>
<!-- Generator: Adobe Illustrator 26.3.1, SVG Export Plug-In . SVG Version: 6.00 Build 0)  -->
<svg version="1.1" id="圖層_1" xmlns="http://www.w3.org/2000/svg" xmlns:xlink="http://www.w3.org/1999/xlink" x="0px" y="0px"
	 viewBox="0 0 76 76" style="enable-background:new 0 0 76 76;" xml:space="preserve">
<style type="text/css">
	.st0{fill:#FFFFFF;}
</style>
<g>
	<g>
		<g>
			<path class="st0" d="M16.14,2.03v7.7h-1.82v-7.7h-2.44V0.41h6.69v1.62H16.14z"/>
			<path class="st0" d="M25.59,9.73l-0.55-1.65h-3.31l-0.56,1.65h-1.9l3.39-9.33h1.43l3.41,9.33H25.59z M23.41,3.16l-1.18,3.39h2.32
				L23.41,3.16z"/>
			<path class="st0" d="M29.65,9.73V0.41h1.82v9.33H29.65z"/>
			<path class="st0" d="M42.6,9.73h-1.52l-1.72-5.66l-1.72,5.66h-1.52l-2.49-9.33h1.9l1.44,5.88l1.7-5.88h1.36l1.7,5.88l1.45-5.88
				h1.9L42.6,9.73z"/>
			<path class="st0" d="M52.38,9.73l-0.55-1.65h-3.31l-0.56,1.65h-1.9l3.39-9.33h1.43l3.41,9.33H52.38z M50.2,3.16l-1.18,3.39h2.32
				L50.2,3.16z"/>
			<path class="st0" d="M61.95,9.73l-3.69-5.72v5.72h-1.82V0.41h1.62l3.69,5.71V0.41h1.82v9.33H61.95z"/>
			<path class="st0" d="M15.75,23.94c-0.92,0-1.76-0.34-2.38-0.97c-0.88-0.88-0.88-1.79-0.88-3.77c0-1.98,0-2.9,0.88-3.77
				c0.63-0.63,1.47-0.97,2.38-0.97c1.68,0,2.92,1.02,3.24,2.78h-1.02c-0.25-1.14-1.05-1.89-2.21-1.89c-0.62,0-1.21,0.24-1.61,0.65
				c-0.59,0.6-0.65,1.24-0.65,3.2c0,1.95,0.07,2.59,0.65,3.2c0.41,0.42,1,0.65,1.61,0.65c1.17,0,1.99-0.75,2.24-1.89h1
				C18.68,22.92,17.41,23.94,15.75,23.94z"/>
			<path class="st0" d="M22.18,23.86v-9.33h1v9.33H22.18z"/>
			<path class="st0" d="M32.82,23.86l-4.95-7.48v7.48h-1v-9.33h0.94l4.95,7.45v-7.45h1v9.33H32.82z"/>
			<path class="st0" d="M37.46,23.86v-9.33h5.79v0.89h-4.79v3.29h4.09v0.89h-4.09v3.37h4.79v0.89H37.46z"/>
			<path class="st0" d="M53.32,23.86v-7.09l-2.55,5.62h-0.85l-2.59-5.62v7.09h-1v-9.33h1l3.04,6.61l2.96-6.61h1v9.33H53.32z"/>
			<path class="st0" d="M63.44,23.86l-0.75-2.11h-4.07l-0.75,2.11h-1.06l3.43-9.33h0.84l3.42,9.33H63.44z M60.68,15.96l-1.76,4.92
				h3.48L60.68,15.96z"/>
			<path class="st0" d="M15.58,29.55v8.44h-1v-8.44h-2.7v-0.89h6.39v0.89H15.58z"/>
			<path class="st0" d="M25.44,37.1c-0.63,0.63-1.45,0.97-2.38,0.97c-0.93,0-1.76-0.34-2.38-0.97c-0.88-0.88-0.88-1.79-0.88-3.77
				c0-1.98,0-2.89,0.88-3.77c0.63-0.63,1.45-0.97,2.38-0.97c0.93,0,1.76,0.34,2.38,0.97c0.88,0.88,0.88,1.79,0.88,3.77
				C26.32,35.3,26.32,36.22,25.44,37.1z M24.66,30.14c-0.41-0.42-1-0.67-1.61-0.67c-0.62,0-1.21,0.25-1.61,0.67
				c-0.59,0.6-0.65,1.23-0.65,3.18c0,1.95,0.07,2.58,0.65,3.18c0.41,0.42,1,0.67,1.61,0.67c0.62,0,1.21-0.25,1.61-0.67
				c0.59-0.6,0.65-1.23,0.65-3.18C25.32,31.37,25.25,30.75,24.66,30.14z"/>
			<path class="st0" d="M34.34,37.1c-0.63,0.63-1.45,0.97-2.38,0.97s-1.76-0.34-2.38-0.97c-0.88-0.88-0.88-1.79-0.88-3.77
				c0-1.98,0-2.89,0.88-3.77c0.63-0.63,1.45-0.97,2.38-0.97s1.76,0.34,2.38,0.97c0.88,0.88,0.88,1.79,0.88,3.77
				C35.22,35.3,35.22,36.22,34.34,37.1z M33.57,30.14c-0.41-0.42-1-0.67-1.61-0.67c-0.62,0-1.2,0.25-1.61,0.67
				c-0.59,0.6-0.65,1.23-0.65,3.18c0,1.95,0.07,2.58,0.65,3.18c0.41,0.42,1,0.67,1.61,0.67c0.62,0,1.2-0.25,1.61-0.67
				c0.59-0.6,0.65-1.23,0.65-3.18C34.22,31.37,34.16,30.75,33.57,30.14z"/>
			<path class="st0" d="M37.95,37.99v-9.33h1v8.44h4.77v0.89H37.95z"/>
			<path class="st0" d="M51.65,37.99l-2.84-4.96l-1.96,2.36v2.61h-1v-9.33h1v5.36l4.35-5.36h1.22l-2.93,3.6l3.35,5.72H51.65z"/>
			<path class="st0" d="M54.75,37.99v-9.33h1v9.33H54.75z"/>
			<path class="st0" d="M61.57,29.55v8.44h-1v-8.44h-2.7v-0.89h6.39v0.89H61.57z"/>
		</g>
	</g>
	<path class="st0" d="M74.54,52.16l-9.14-7.96c-0.52-0.5-1.91-0.43-1.91-0.43h-0.36H13.29l-0.44,0c0,0-1.15-0.01-1.75,0.49
		l-9.65,8.46c-0.84,0.73-0.92,2.02-0.19,2.85l0.02,0.02c0.73,0.84,2.02,0.92,2.85,0.19l7.13-6.25v24.04c0,1.11,0.91,2.02,2.02,2.02
		h43.24h0h9.02c0.77,0,1.4-0.63,1.4-1.4v-0.51c0-0.77-0.63-1.4-1.4-1.4h-2.41h-2.02c-1.11,0-2.02-0.91-2.02-2.02V49.09
		c0-1.11,0.91-2.02,2.02-2.02l1.4,0l9.34,8.15c0.84,0.73,2.12,0.64,2.86-0.19l0.02-0.02C75.47,54.17,75.38,52.89,74.54,52.16z
		 M33.58,70.26c0,1.11-0.91,2.02-2.02,2.02h-14.9c-1.11,0-2.02-0.91-2.02-2.02V49.09c0-1.11,0.91-2.02,2.02-2.02h14.9
		c1.11,0,2.02,0.91,2.02,2.02V70.26z M38.88,72.28c-1.11,0-2.02-0.91-2.02-2.02V49.09c0-1.11,0.91-2.02,2.02-2.02h14.9
		c1.11,0,2.02,0.91,2.02,2.02v21.17c0,1.11-0.91,2.02-2.02,2.02H38.88z"/>
</g>
</svg>
