<?xml version="1.0" encoding="utf-8"?>
<!-- Generator: Adobe Illustrator 26.3.1, SVG Export Plug-In . SVG Version: 6.00 Build 0)  -->
<svg version="1.1" id="圖層_1" xmlns="http://www.w3.org/2000/svg" xmlns:xlink="http://www.w3.org/1999/xlink" x="0px" y="0px"
	 viewBox="0 0 182.33 26" style="enable-background:new 0 0 182.33 26;" xml:space="preserve">
<style type="text/css">
	.st0{fill:#FFFFFF;}
	.st1{fill:#A1A1A1;}
</style>
<g>
	<path class="st0" d="M1.13,3.17c0.33-1.25,1.29-1.81,2.42-2.09c1.81-0.46,3.63-0.38,5.41,0.21c0.59,0.2,1.14,0.5,1.55,0.98
		c0.69,0.81,0.65,1.82-0.11,2.56C9.78,5.44,9,5.73,8.19,5.91C6.45,6.28,4.72,6.27,3.02,5.67c-0.54-0.19-1.01-0.48-1.4-0.92
		C1.36,4.47,1.27,4.12,1.13,3.78C1.13,3.58,1.13,3.37,1.13,3.17z"/>
	<g>
		<path class="st1" d="M102.11,25.55c-0.21-0.73-0.49-1.43-0.75-2.14C98.8,16.31,96.23,9.2,93.67,2.1c-0.1-0.29-0.2-0.58-0.32-0.86
			c-0.1-0.23-0.02-0.27,0.19-0.25c0.03,0,0.06,0,0.08,0c4.86,0,9.72,0,14.58-0.01c0.26,0,0.36,0.09,0.45,0.32
			c2.48,6.97,4.97,13.93,7.46,20.9c0.05,0.14,0.03,0.26-0.02,0.39c-0.42,0.99-0.83,1.97-1.25,2.96
			C110.59,25.55,106.35,25.55,102.11,25.55z"/>
		<path class="st0" d="M42.4,25.55c0-0.12,0.01-0.24,0.01-0.36c0-5.37,0-10.73,0.01-16.1c0-0.26-0.05-0.34-0.33-0.33
			c-0.75,0.02-1.5,0-2.25,0.01c-0.2,0-0.28-0.03-0.27-0.25c0.02-0.3,0.02-0.61,0-0.92c-0.01-0.19,0.06-0.23,0.24-0.23
			c0.79,0.01,1.57,0,2.36,0.01c0.19,0,0.25-0.05,0.25-0.25c-0.02-0.96,0-1.92,0.29-2.86c0.64-2.05,2.07-3.21,4.12-3.67
			c0.26-0.06,0.54-0.04,0.79-0.16c2.91,0,5.81,0,8.72,0c0,0.3,0.11,0.66-0.03,0.87s-0.52,0.05-0.8,0.06
			c-2.16,0.08-3.76,1.48-4.17,3.68c-0.13,0.68-0.16,1.38-0.17,2.07c0,0.21,0.05,0.26,0.26,0.26c1.49-0.01,2.98,0,4.47-0.01
			c0.22,0,0.28,0.06,0.27,0.27c-0.02,0.28-0.03,0.56,0,0.83c0.03,0.26-0.08,0.3-0.31,0.29c-1.46-0.01-2.92,0-4.39-0.01
			c-0.24,0-0.31,0.05-0.31,0.3c0.01,5.38,0.01,10.75,0.01,16.13c0,0.12-0.01,0.24-0.01,0.36C48.25,25.55,45.32,25.55,42.4,25.55z"/>
		<path class="st0" d="M152.6,25.55c-0.06-0.35-0.02-0.7-0.03-1.05c-0.01-0.17,0.13-0.12,0.22-0.12c0.64,0,1.28,0,1.92,0
			c0.18,0,0.37-0.02,0.55-0.06c1.19-0.27,1.74-1.25,1.32-2.4c-0.35-0.97-1.06-1.66-1.85-2.27c-0.95-0.74-2.03-1.24-3.11-1.75
			c-1.24-0.59-2.48-1.2-3.5-2.16c-0.69-0.64-1.31-1.34-1.68-2.21c-0.71-1.63-0.25-3.29,1.22-4.41c1.05-0.79,2.26-1.2,3.53-1.44
			c1.16-0.22,2.33-0.29,3.51-0.29c1.47,0,2.94,0.01,4.41,0c0.2,0,0.28,0.04,0.26,0.26c-0.02,0.21-0.02,0.43,0,0.64
			c0.02,0.19-0.06,0.23-0.24,0.22c-0.7-0.02-1.41-0.02-2.11,0.05c-0.37,0.04-0.73,0.09-1.07,0.25c-1.17,0.54-1.37,1.88-0.42,2.75
			c0.51,0.46,1.11,0.76,1.71,1.07c1.57,0.81,3.18,1.52,4.69,2.44c1.39,0.85,2.64,1.84,3.57,3.2c0.97,1.43,1.28,2.95,0.66,4.6
			c-0.4,1.06-1.17,1.75-2.26,2.08c-1.41,0.43-2.86,0.55-4.33,0.57c-0.29,0-0.58-0.06-0.87,0.04
			C156.67,25.55,154.64,25.55,152.6,25.55z"/>
		<path class="st0" d="M176.32,25.55c-0.36-0.13-0.74-0.1-1.11-0.16c-1.76-0.3-3.43-0.85-4.83-2c-1.03-0.84-1.76-1.89-1.97-3.24
			c-0.04-0.25-0.06-0.52-0.06-0.77c0-3.94,0-7.88,0-11.83c0-0.17,0.02-0.27,0.22-0.34c3.1-1.09,6.19-2.2,9.28-3.3
			c0.06-0.02,0.12-0.03,0.2-0.05c0,1.07,0.01,2.12-0.01,3.18c0,0.21,0.05,0.26,0.26,0.26c0.97-0.01,1.94-0.01,2.91-0.01
			c0,0.46,0,0.93,0,1.39c-0.91,0-1.81,0-2.72-0.02c-0.27-0.01-0.33,0.06-0.33,0.33c0.01,5.4,0.01,10.81,0.01,16.21
			c0,0.12-0.01,0.24-0.01,0.36C177.54,25.55,176.93,25.55,176.32,25.55z"/>
		<path class="st0" d="M1.18,25.55c0.06-0.09,0.02-0.2,0.02-0.3c0-5.81,0-11.62,0-17.43c0-0.27,0.07-0.33,0.33-0.33
			c3.09,0.01,6.18,0.01,9.27,0c0.2,0,0.28,0.03,0.28,0.26c-0.01,5.85-0.01,11.7-0.01,17.54c0,0.08-0.01,0.17-0.01,0.25
			C7.78,25.55,4.48,25.55,1.18,25.55z"/>
		<path class="st0" d="M15.18,25.55c0.06-0.09,0.02-0.2,0.02-0.3c0-5.81,0-11.63,0-17.44c0-0.25,0.05-0.32,0.31-0.32
			c3.07,0.01,6.15,0.01,9.22,0c0.26,0,0.29,0.08,0.29,0.31c-0.01,5.81-0.01,11.63,0,17.44c0,0.1-0.05,0.22,0.04,0.31
			C21.77,25.55,18.48,25.55,15.18,25.55z"/>
		<path class="st0" d="M27.07,25.55c0-0.08,0.01-0.17,0.01-0.25c0-5.83,0-11.66,0-17.49c0-0.24,0.04-0.33,0.31-0.32
			c1.18,0.04,2.37-0.06,3.55,0.06c1.69,0.17,3.26,0.68,4.5,1.91c1.12,1.11,1.59,2.49,1.59,4.04c0.01,3.96,0,7.92,0,11.88
			c0,0.06-0.01,0.11-0.01,0.17C33.7,25.55,30.38,25.55,27.07,25.55z"/>
		<path class="st0" d="M82,25.55c0-0.08-0.01-0.17-0.01-0.25c-0.01-2.53-0.01-5.05-0.02-7.58c0-1.47-0.01-2.94-0.02-4.41
			c0-2.17-1.3-3.71-3.43-4.08c-0.48-0.08-0.97-0.15-1.46-0.1c-0.22,0.02-0.26-0.06-0.26-0.26c0.01-0.36,0.02-0.72,0-1.08
			c-0.01-0.22,0.06-0.28,0.28-0.28c2.27,0.01,4.54,0.01,6.8,0c1.36,0,2.66,0.28,3.88,0.88c2.13,1.04,3.25,2.78,3.45,5.12
			c0.03,0.29,0.03,0.59,0.03,0.89c0,3.63,0,7.26,0,10.89c0,0.09-0.03,0.18,0.02,0.27C88.19,25.55,85.09,25.55,82,25.55z"/>
		<path class="st0" d="M57.51,25.55c0-0.55,0.01-1.09,0.01-1.64c0-3.29,0-6.57,0-9.86c0-2.78,1.5-4.95,4.09-5.94
			c1.06-0.4,2.16-0.61,3.31-0.61c2.25,0.01,4.5,0.01,6.75,0c0.22,0,0.31,0.04,0.29,0.28c-0.02,0.36-0.02,0.72,0,1.08
			c0.02,0.24-0.08,0.26-0.28,0.25c-0.97-0.03-1.9,0.11-2.77,0.55c-1.25,0.63-1.89,1.69-2.06,3.06c-0.04,0.32-0.05,0.64-0.05,0.97
			c0,3.89-0.01,7.78-0.02,11.66c0,0.06,0.01,0.13,0.01,0.19C63.69,25.55,60.6,25.55,57.51,25.55z"/>
		<path class="st0" d="M132.94,25.55c-0.38-0.13-0.79-0.1-1.19-0.16c-1.91-0.28-3.69-0.86-5.15-2.19c-1.86-1.69-2.86-3.81-2.97-6.32
			c-0.19-4.56,2.81-8.38,7.31-9.3c0.68-0.14,1.37-0.19,2.07-0.18c0.18,0,0.23,0.06,0.21,0.22c-0.01,0.06,0,0.13,0,0.19
			c0,5.42,0,10.85-0.01,16.27c0,0.31,0.09,0.37,0.37,0.4c1.79,0.14,3.55,0.06,5.23-0.66c1.99-0.86,3.37-2.32,4.23-4.3
			c0.11-0.25,0.16-0.65,0.37-0.7c0.22-0.05,0.51,0.2,0.78,0.31c0.1,0.04,0.13,0.08,0.09,0.21c-0.69,2.16-1.99,3.83-3.97,4.92
			c-1.28,0.71-2.7,1.03-4.15,1.19c-0.28,0.03-0.56,0-0.83,0.11C134.53,25.55,133.73,25.55,132.94,25.55z"/>
		<path class="st0" d="M78,25.55c-0.54-0.07-1.09-0.03-1.63-0.11c-0.65-0.1-1.29-0.26-1.87-0.57c-0.85-0.45-1.44-1.12-1.67-2.07
			c-0.3-1.25-0.41-2.52-0.2-3.79c0.3-1.84,1.44-2.98,3.13-3.63c0.96-0.37,1.96-0.45,2.97-0.48c0.26-0.01,0.52-0.01,0.78-0.03
			c0.18-0.01,0.21,0.06,0.21,0.22c0,3.4,0,6.79,0.01,10.19c0,0.09,0,0.18-0.06,0.26C79.11,25.55,78.56,25.55,78,25.55z"/>
		<path class="st0" d="M117.79,18.63c-0.24-0.63-0.46-1.21-0.68-1.8c-1.96-5.18-3.91-10.36-5.87-15.54c-0.11-0.3-0.12-0.3,0.21-0.3
			c4.46,0,8.92,0,13.38,0c0.09,0,0.18,0,0.32,0C122.7,6.88,120.25,12.73,117.79,18.63z"/>
		<path class="st0" d="M140.02,16.36c-1.49,0-2.98,0-4.47,0.01c-0.22,0-0.3-0.04-0.3-0.28c0.01-2.81,0.01-5.63,0-8.44
			c0-0.22,0.05-0.27,0.27-0.26c2.6,0.11,4.88,0.98,6.71,2.86c1.14,1.17,1.95,2.55,2.32,4.15c0.13,0.56,0.15,1.13,0.2,1.71
			c0.02,0.21-0.04,0.26-0.25,0.26C143.02,16.36,141.52,16.36,140.02,16.36z"/>
	</g>
</g>
</svg>
