<?xml version="1.0" encoding="utf-8"?>
<!-- Generator: Adobe Illustrator 26.3.1, SVG Export Plug-In . SVG Version: 6.00 Build 0)  -->
<svg version="1.1" id="圖層_1" xmlns="http://www.w3.org/2000/svg" xmlns:xlink="http://www.w3.org/1999/xlink" x="0px" y="0px"
	 viewBox="0 0 222 79" style="enable-background:new 0 0 222 79;" xml:space="preserve">
<style type="text/css">
	.st0{fill:#DADADA;}
	.st1{fill:#575756;}
	.st2{fill:#9D9D9C;}
	.st3{fill:#FFFFFF;}
	.st4{fill:none;}
	.st5{fill:none;stroke:#FFFFFF;stroke-width:0.351;}
</style>
<g>
	<path class="st0" d="M190.1,64.4c0.7-1,1.5-1.9,2.4-2.8c0.9-0.9,1.8-1.7,2.7-2.5l-1,4.1"/>
	<path class="st1" d="M197.2,66.1c-1.2-0.1-2.4-0.3-3.6-0.6c-1.2-0.3-2.4-0.7-3.5-1.2l4.1-1.2"/>
	<path class="st2" d="M195.2,59.1c0.5,1.1,0.9,2.2,1.3,3.5s0.6,2.4,0.8,3.6l-3-3"/>
	<path class="st2" d="M188.7,72.8c-0.7-1-1.4-2-1.9-3.1s-1.1-2.2-1.5-3.4l3.6,2.2"/>
	<path class="st1" d="M192.6,66.6c-0.5,1.1-1.1,2.2-1.7,3.2c-0.7,1.1-1.4,2.1-2.2,3l0.1-4.2"/>
	<path class="st0" d="M185.2,66.3c1.2-0.1,2.4-0.2,3.7-0.1c1.2,0,2.5,0.2,3.7,0.4l-3.7,2"/>
	<path class="st1" d="M196.2,76.8c-1.1,0.4-2.3,0.7-3.6,0.9c-1.2,0.2-2.4,0.3-3.7,0.4l3.2-2.7"/>
	<path class="st2" d="M191.5,71.2c0.9,0.8,1.8,1.7,2.6,2.6c0.8,1,1.5,1.9,2.2,3l-4-1.4"/>
	<path class="st0" d="M189,78.1c0.2-1.2,0.6-2.4,1-3.5c0.4-1.2,0.9-2.3,1.5-3.4l0.7,4.2"/>
	<path class="st2" d="M202.4,70.8c0,1.2-0.1,2.4-0.2,3.7c-0.2,1.2-0.4,2.4-0.8,3.6l-1.6-3.9"/>
	<path class="st0" d="M195.6,73.5c1-0.6,2.1-1.2,3.3-1.6c1.2-0.5,2.3-0.8,3.5-1.1l-2.6,3.3"/>
	<path class="st1" d="M201.4,78.1c-1.1-0.6-2.1-1.3-3.1-2.1c-1-0.8-1.9-1.6-2.7-2.5l4.2,0.6"/>
	<path class="st2" d="M198.6,63.1c1.1,0.4,2.3,0.8,3.4,1.4c1.1,0.6,2.2,1.2,3.2,1.8l-4.2,0.3"/>
	<path class="st0" d="M199.1,70.4c-0.3-1.2-0.4-2.4-0.5-3.6c-0.1-1.2-0.1-2.5,0-3.7l2.4,3.5"/>
	<path class="st1" d="M205.2,66.3c-0.9,0.8-1.9,1.6-2.9,2.3s-2.1,1.3-3.2,1.8l1.9-3.8"/>
	<polygon class="st3" points="129.5,65.8 130.6,65.8 130.6,73.5 129.8,73.5 129.8,66.8 129.8,66.8 126.4,73.5 125.7,73.5 
		122.3,66.8 122.3,66.8 122.3,73.5 121.5,73.5 121.5,65.8 122.6,65.8 126.1,72.5 	"/>
	<path class="st3" d="M14.3,70.9c0,0.8,0.2,1.3,0.7,1.8c0.6,0.6,1.6,0.9,3,0.9c0.7,0,3.3-0.2,3.3-2.3c0-1.8-1.7-2-3.2-2.2l0,0
		c-1.5-0.2-2.7-0.3-2.7-1.4c0-0.5,0.3-0.9,0.8-1.2c0.6-0.3,1.2-0.3,1.8-0.3c0.5,0,1.4,0.1,1.9,0.6c0.2,0.2,0.4,0.6,0.4,1l0.8,0
		c0-0.6-0.2-1.1-0.5-1.5c-0.6-0.7-1.7-0.8-2.5-0.8c-1.1,0-2.2,0.2-2.9,0.9c-0.4,0.3-0.5,0.8-0.5,1.3c0,1.8,1.8,2,3.3,2.1
		c0.7,0.1,1.3,0.1,1.8,0.3c0.5,0.2,0.8,0.6,0.8,1.2c0,0.4-0.1,0.7-0.4,0.9c-0.6,0.6-1.7,0.6-2.1,0.6c-1,0-1.9-0.2-2.3-0.7
		c-0.3-0.3-0.5-0.7-0.5-1.3L14.3,70.9L14.3,70.9z M22.4,65.8v0.8h3v6.9h0.8v-6.9h3v-0.8H22.4z M32.9,65.8l-3.5,7.7h0.9
		c0,0,1-2.2,1.1-2.4h3.9c0.1,0.2,1.1,2.4,1.1,2.4h0.9l-3.5-7.7H32.9z M33.3,66.8c0.2,0.5,1.4,3.1,1.6,3.5h-3.2
		C31.9,70,33,67.4,33.3,66.8 M39.4,65.8v7.7h0.8v-3.3h3.1c1.4,0,1.7,0.3,1.7,1.5c0,1.2,0.1,1.7,0.2,1.8l0,0.1h0.8l-0.1-0.2
		c-0.1-0.2-0.2-0.7-0.2-2c0-0.8-0.4-1.3-1.1-1.6c0.9-0.4,1.2-1.2,1.2-1.8c0-1.4-0.9-2.1-2.7-2.1C43.3,65.8,39.4,65.8,39.4,65.8z
		 M43.4,66.5c1.2,0,1.8,0.4,1.8,1.3c0,1-0.6,1.5-1.9,1.5h-3v-2.8L43.4,66.5L43.4,66.5z M55.1,65.8l-3.5,7.7h0.9c0,0,1-2.2,1.1-2.4
		h3.9c0.1,0.2,1.1,2.4,1.1,2.4h0.9l-3.5-7.7H55.1z M55.5,66.8c0.2,0.5,1.4,3.1,1.6,3.5h-3.2C54.1,70,55.3,67.4,55.5,66.8 M83.2,65.8
		l-3.5,7.7h0.9c0,0,1-2.2,1.1-2.4h3.9c0.1,0.2,1.1,2.4,1.1,2.4h0.9l-3.5-7.7H83.2z M83.5,66.8c0.2,0.5,1.4,3.1,1.6,3.5h-3.2
		C82.1,70,83.3,67.4,83.5,66.8 M61.9,65.8v7.7h5.6v-0.8h-4.8v-6.9C62.7,65.8,61.9,65.8,61.9,65.8z M69.2,65.8v7.7h5.5v-0.8H70v-6.9
		C70,65.8,69.2,65.8,69.2,65.8z M76.4,73.5h0.8v-7.7h-0.8V73.5z M96,65.8v6.4c-0.5-0.6-5.6-6.4-5.6-6.4h-0.8v7.7h0.8v-6.4
		c0.5,0.6,5.6,6.4,5.6,6.4h0.8v-7.7H96z M109.8,65.8v7.7h6.2v-0.8h-5.4v-2.9h5.1v-0.7h-5.1v-2.6h5.3v-0.8H109.8z M99.3,69.6
		c0,2.4,1.7,4,4.2,4c2.3,0,3.7-1.6,3.9-3.1l0-0.2h-0.8l0,0.1c-0.3,1.5-1.4,2.4-3.1,2.4c-2.4,0-3.3-1.7-3.3-3.2
		c0-1.9,1.4-3.3,3.4-3.3c1.5,0,2.6,0.7,2.9,1.9l0,0.1h0.8l-0.1-0.2c-0.4-1.7-1.7-2.6-3.7-2.6C100.6,65.6,99.3,67.7,99.3,69.6"/>
	<path class="st3" d="M5.9,65.8H5.2l-3.5,7.7h0.9c0,0,1-2.2,1.1-2.4h3.9c0.1,0.2,1.1,2.4,1.1,2.4h0.9L5.9,65.8z M4,70.4
		c0.2-0.4,1.4-3,1.6-3.5C5.8,67.4,7,70,7.2,70.4H4z"/>
	<polygon class="st3" points="139.3,65.8 139.3,66.5 133.9,66.5 133.9,69.1 139.1,69.1 139.1,69.9 133.9,69.9 133.9,72.7 
		139.3,72.7 139.3,73.5 133.1,73.5 133.1,65.8 	"/>
	<polygon class="st3" points="149.8,65.8 149.8,65.8 150.9,65.8 150.9,73.5 150.1,73.5 150.1,66.8 150.1,66.8 146.7,73.5 146,73.5 
		142.6,66.8 142.6,66.8 142.6,73.5 141.8,73.5 141.8,65.8 142.9,65.8 146.4,72.5 	"/>
	<path class="st3" d="M154.2,66.5h3.4c0.9,0,1.5,0.3,1.5,1.2c0,1-0.7,1.4-1.8,1.4h-3.2L154.2,66.5L154.2,66.5z M153.4,73.5h4.3
		c1.2,0,2.5-0.6,2.5-2.2c0-1-0.6-1.7-1.6-1.9v0c0.9-0.2,1.3-0.9,1.3-1.7c0-1.1-0.6-1.9-2.1-1.9h-4.4L153.4,73.5L153.4,73.5z
		 M154.2,69.8h3.6c0.9,0,1.6,0.3,1.6,1.4c0,1.1-0.8,1.5-1.8,1.5h-3.4L154.2,69.8L154.2,69.8z"/>
	<polygon class="st3" points="168.9,65.8 168.9,66.5 163.6,66.5 163.6,69.1 168.7,69.1 168.7,69.9 163.6,69.9 163.6,72.7 169,72.7 
		169,73.5 162.8,73.5 162.8,65.8 	"/>
	<path class="st3" d="M178,73.2c-0.1-0.2-0.2-0.7-0.2-2c0-0.8-0.4-1.3-1.1-1.6c0.9-0.4,1.2-1.2,1.2-1.8c0-1.4-0.9-2.1-2.7-2.1h-3.9
		v7.7h0.8v-3.3h3.1c1.4,0,1.7,0.3,1.7,1.5c0,1.2,0.1,1.7,0.2,1.8l0.1,0.1h0.8L178,73.2z M175.2,69.4h-3.1v-2.8h3.2
		c1.2,0,1.8,0.4,1.8,1.3C177.2,68.9,176.5,69.4,175.2,69.4"/>
	<polygon class="st3" points="24.9,31.9 24.9,26.8 1.3,26.8 1.3,45.8 24.9,45.8 24.9,40.7 9.9,40.7 9.9,38.6 24.9,38.6 24.9,33.9 
		9.9,33.9 9.9,31.9 	"/>
	<polygon class="st3" points="27.4,26.8 36.5,26.8 41.4,38.5 46.4,26.7 55.4,26.7 46.6,45.8 36.2,45.8 	"/>
	<path class="st3" d="M72.8,45.8h8.9l-9.7-19H61.6l-9.8,19h9l1.3-2.7h9.3L72.8,45.8z M64.6,38.3l2.3-4.6l2.3,4.6H64.6z"/>
	<path class="st3" d="M106.4,45.8h8.9l-9.7-19H95.2l-9.8,19h9l1.3-2.7h9.3L106.4,45.8z M98.1,38.3l2.3-4.6l2.3,4.6H98.1z"/>
	<rect x="118.3" y="26.8" class="st3" width="8.8" height="19"/>
	<path class="st3" d="M153.9,37.2c2.2,0,2.2-2.5,2.2-2.5v-3.3c0-4.2-4.4-4.6-4.4-4.6l-20.3,0v19h8.8v-6.5h5.9c0.4,0,0.7,0.2,0.9,0.3
		c0.3,0.4,0.3,0.9,0.3,0.9v5.3h8.8v-5.3C156.1,37.4,153.9,37.2,153.9,37.2 M146.3,34.3h-6.2v-2.8h6.2c0.8,0,1.4,0.6,1.4,1.4
		C147.7,33.7,147.1,34.3,146.3,34.3"/>
	<path class="st4" d="M187.9,32.6c0.9-0.3,1.9-0.5,2.8-0.5v-4.3c-1.4,0-2.8,0.1-4.2,0.4C186.8,29.7,187.3,31.2,187.9,32.6z"/>
	<path class="st4" d="M185.6,34.4c1.3,1.4,2.9,2.5,4.6,3.4c-1-1.4-1.9-3-2.6-4.5C186.9,33.6,186.2,34,185.6,34.4z"/>
	<path class="st4" d="M185.2,34.8c-0.5,0.5-1,1-1.4,1.5c1.8,1,3.7,1.6,5.8,1.8C187.9,37.2,186.4,36.1,185.2,34.8z"/>
	<path class="st4" d="M186.1,23.1h4.6v-3.7c-1.4,0-2.9-0.1-4.3-0.4C186.2,20.3,186.1,21.7,186.1,23.1z"/>
	<path class="st4" d="M186.5,18.5c1.4,0.2,2.8,0.4,4.2,0.4v-4.3c-1,0-1.9-0.2-2.8-0.5C187.3,15.5,186.9,17,186.5,18.5z"/>
	<path class="st4" d="M200.3,28.9c1.2,0.5,2.4,1,3.6,1.6c1.2-2.1,1.8-4.4,1.9-7h-4.5C201.2,25.4,200.9,27.2,200.3,28.9z"/>
	<path class="st4" d="M186.4,27.7c1.4-0.2,2.8-0.4,4.3-0.4v-3.7h-4.6C186.1,25,186.2,26.3,186.4,27.7z"/>
	<path class="st4" d="M184.8,34.4c-1.3-1.5-2.3-3.1-3-5c-1.2,0.4-2.4,1-3.5,1.6c1.2,2.1,3,3.8,5,5C183.8,35.4,184.3,34.8,184.8,34.4
		z"/>
	<path class="st4" d="M206.7,23.3c0-8-6.1-14.8-14-15.6C200.7,8.6,206.7,15.3,206.7,23.3z"/>
	<path class="st4" d="M188.1,13.6c0.8,0.3,1.7,0.4,2.6,0.5v-3.7l0.5-0.6V14c0.9,0,1.8-0.2,2.6-0.5c-0.6-1.5-1.4-2.9-2.4-4.2l0.3-0.4
		c1,1.4,1.9,2.9,2.5,4.5c0.7-0.3,1.4-0.7,2-1.1c-1.3-1.4-2.8-2.5-4.5-3.4l0.2-0.3l0.1-0.1l0.3-0.4l0.4-0.4h0L188.1,13.6
		C188.1,13.6,188.1,13.6,188.1,13.6z"/>
	<path class="st4" d="M206.1,27.6c-0.1,0.2-0.1,0.4-0.2,0.6C206,28,206.1,27.8,206.1,27.6z"/>
	<path class="st4" d="M200.8,23.6h-4.4c0,1.4-0.1,2.8-0.4,4.2c1.3,0.2,2.6,0.6,3.8,1C200.4,27.1,200.8,25.4,200.8,23.6z"/>
	<path class="st4" d="M206.7,24.1c-0.1,1-0.2,1.9-0.4,2.9C206.5,26.1,206.7,25.1,206.7,24.1z"/>
	<path class="st4" d="M185.9,27.7c-0.2-1.4-0.4-2.7-0.4-4.2h-4.4c0,1.8,0.4,3.6,0.9,5.2C183.4,28.3,184.6,28,185.9,27.7z"/>
	<path class="st4" d="M185.2,34c0.7-0.5,1.4-0.9,2.2-1.3c-0.6-1.5-1.1-3-1.4-4.6c-1.3,0.2-2.5,0.6-3.8,1C183,31,184,32.6,185.2,34z"
		/>
	<path class="st4" d="M176.9,27.9c0.3,0.9,0.7,1.8,1.1,2.6c1.1-0.6,2.3-1.2,3.6-1.6c-0.6-1.7-0.9-3.5-1-5.4h-0.4l0.9-1.1l0,0.6h4.4
		c0-1.4,0.1-2.8,0.4-4.2c-0.6-0.1-1.1-0.2-1.7-0.4l0.3-0.4c0.5,0.1,0.9,0.2,1.4,0.3c0.2-1.1,0.5-2.2,0.9-3.3c0,0,0.1-0.2,0.3-0.4
		l-11,14.1l0,0l0.4-0.5L176.9,27.9z"/>
	<path class="st4" d="M176.2,28.8c1.1,3.1,3.2,5.6,5.8,7.4C179.4,34.5,177.4,31.9,176.2,28.8z"/>
	<path class="st4" d="M190.7,37.7v-5.1c-0.9,0-1.8,0.2-2.6,0.5C188.8,34.7,189.7,36.2,190.7,37.7z"/>
	<path class="st4" d="M196.8,34.7c-1.2,1.3-2.7,2.4-4.4,3.3c2.1-0.2,4-0.8,5.8-1.8C197.8,35.7,197.3,35.2,196.8,34.7z"/>
	<path class="st4" d="M196.4,34.4c-0.6-0.5-1.3-0.9-2-1.2c-0.7,1.6-1.6,3.1-2.6,4.5C193.5,37,195.1,35.8,196.4,34.4z"/>
	<path class="st4" d="M191.2,32.6v5.1c1.1-1.5,1.9-3,2.6-4.6C193,32.8,192.1,32.6,191.2,32.6z"/>
	<path class="st4" d="M195.9,23.6h-4.6v3.7c1.4,0,2.9,0.1,4.3,0.4C195.7,26.3,195.9,25,195.9,23.6z"/>
	<path class="st4" d="M195.4,28.1c-1.4-0.2-2.8-0.4-4.2-0.4v4.3c1,0,1.9,0.2,2.8,0.5C194.7,31.2,195.1,29.7,195.4,28.1z"/>
	<path class="st4" d="M197.1,34.4c0.6,0.5,1.1,1,1.5,1.6c2.1-1.2,3.8-3,5-5c-1.1-0.6-2.3-1.1-3.5-1.6
		C199.4,31.2,198.4,32.9,197.1,34.4z"/>
	<path class="st4" d="M205.5,29.5C205.5,29.4,205.5,29.4,205.5,29.5C205.5,29.4,205.5,29.4,205.5,29.5z"/>
	<path class="st4" d="M201.3,23.1h4.5c0-2.5-0.7-4.9-1.9-7c-1.2,0.6-2.4,1.2-3.6,1.6C200.9,19.4,201.2,21.2,201.3,23.1z"/>
	<path class="st4" d="M197.1,12.3c1.3,1.5,2.3,3.1,3,4.9c1.2-0.4,2.4-1,3.5-1.6c-1.2-2-3-3.8-5-5C198.2,11.3,197.7,11.8,197.1,12.3z
		"/>
	<path class="st4" d="M194.5,32.8c0.8,0.3,1.5,0.7,2.2,1.3c1.3-1.4,2.3-3,3-4.8c-1.2-0.4-2.5-0.8-3.8-1
		C195.6,29.8,195.1,31.3,194.5,32.8z"/>
	<path class="st4" d="M195.5,19c-1.4,0.2-2.8,0.4-4.3,0.4v3.7h4.6C195.9,21.7,195.7,20.3,195.5,19z"/>
	<path class="st4" d="M198.2,10.4c-1.8-1-3.7-1.6-5.8-1.8c1.7,0.9,3.1,2,4.4,3.3C197.3,11.5,197.8,11,198.2,10.4z"/>
	<path class="st4" d="M194.1,14c-0.9,0.3-1.9,0.5-2.8,0.5v4.3c1.4,0,2.8-0.1,4.2-0.4C195.1,17,194.6,15.5,194.1,14z"/>
	<path class="st4" d="M199.6,17.4c-0.7-1.8-1.7-3.4-2.9-4.8c-0.7,0.5-1.4,0.9-2.2,1.2c0.6,1.5,1.1,3,1.4,4.5
		C197.2,18.2,198.4,17.8,199.6,17.4z"/>
	<path class="st3" d="M197.1,0.9L162,45.8h43.5l15.6-44.8H197.1z M176.2,28.8L176.2,28.8l11-14.1c0.3-0.4,0.8-1,0.9-1.1l4.6-5.9h0
		c7.9,0.9,14,7.6,14,15.6c0-8-6.1-14.8-14-15.6l-0.4,0.4l-0.3,0.4l-0.1,0.1l-0.2,0.3c1.7,0.9,3.2,2,4.5,3.4c-0.6,0.5-1.3,0.9-2,1.1
		c-0.7-1.6-1.5-3.1-2.5-4.5l-0.3,0.4c0.9,1.4,1.7,2.8,2.4,4.2c-0.8,0.3-1.7,0.4-2.6,0.5V9.6l-0.5,0.6V14c-0.9,0-1.7-0.2-2.6-0.5
		c0,0,0,0,0,0l-0.9,1.1c-0.2,0.2-0.3,0.4-0.3,0.4c-0.4,1.1-0.7,2.2-0.9,3.3c-0.5-0.1-0.9-0.2-1.4-0.3l-0.3,0.4
		c0.6,0.1,1.1,0.3,1.7,0.4c-0.2,1.4-0.4,2.8-0.4,4.2h-4.4l0-0.6l-0.9,1.1h0.4c0,1.9,0.4,3.7,1,5.4c-1.2,0.5-2.4,1-3.6,1.6
		c-0.5-0.8-0.9-1.7-1.1-2.6l-0.4,0.4L176.2,28.8c1.1,3.1,3.2,5.6,5.8,7.4c2.6,1.8,5.7,2.8,9,2.8c6.5,0,12.1-4,14.5-9.6
		c-2.4,5.7-8,9.6-14.5,9.6c-3.3,0-6.4-1-9-2.8 M196,27.7c0.2-1.4,0.4-2.8,0.4-4.2h4.4c0,1.8-0.4,3.5-0.9,5.2
		C198.6,28.3,197.3,28,196,27.7z M199.7,29.2c-0.7,1.8-1.7,3.4-3,4.8c-0.7-0.5-1.4-0.9-2.2-1.3c0.6-1.5,1.1-3,1.4-4.6
		C197.2,28.5,198.4,28.8,199.7,29.2z M196.4,23.1c0-1.4-0.1-2.8-0.4-4.2c1.3-0.2,2.6-0.6,3.8-1c0.6,1.6,0.9,3.4,0.9,5.2L196.4,23.1
		L196.4,23.1z M197.1,12.3c0.6-0.5,1.1-1,1.5-1.7c2.1,1.2,3.8,3,5,5c-1.1,0.6-2.3,1.1-3.5,1.6C199.4,15.4,198.4,13.8,197.1,12.3z
		 M196.8,11.9c-1.2-1.3-2.7-2.5-4.4-3.3c2.1,0.2,4.1,0.8,5.8,1.8C197.8,11,197.3,11.5,196.8,11.9z M199.6,17.4
		c-1.2,0.4-2.5,0.8-3.7,1c-0.3-1.5-0.8-3.1-1.4-4.5c0.8-0.3,1.5-0.7,2.2-1.2C197.9,14,198.9,15.7,199.6,17.4z M195.4,18.5
		c-1.4,0.2-2.8,0.4-4.2,0.4v-4.3c1,0,1.9-0.2,2.8-0.5C194.6,15.5,195.1,17,195.4,18.5z M195.5,19c0.2,1.3,0.4,2.7,0.4,4.1h-4.6v-3.7
		C192.7,19.4,194.1,19.2,195.5,19z M195.9,23.6c0,1.4-0.1,2.7-0.4,4.1c-1.4-0.2-2.8-0.4-4.3-0.4v-3.7L195.9,23.6L195.9,23.6z
		 M195.4,28.1c-0.3,1.5-0.8,3-1.4,4.5c-0.9-0.3-1.9-0.5-2.8-0.5v-4.3C192.6,27.8,194,27.9,195.4,28.1z M193.9,33.1
		c-0.7,1.6-1.6,3.2-2.6,4.6v-5.1C192.1,32.6,193,32.8,193.9,33.1z M194.4,33.3c0.7,0.3,1.4,0.7,2,1.2c-1.3,1.4-2.9,2.5-4.6,3.4
		C192.8,36.4,193.6,34.8,194.4,33.3z M196.8,34.7c0.5,0.4,1,1,1.4,1.5c-1.7,1-3.7,1.6-5.8,1.8C194.1,37.2,195.5,36.1,196.8,34.7z
		 M197.1,34.4c1.3-1.5,2.3-3.1,3-5c1.2,0.4,2.4,1,3.5,1.6c-1.2,2-3,3.8-5,5C198.2,35.4,197.7,34.8,197.1,34.4z M200.3,28.9
		c0.6-1.7,0.9-3.5,1-5.4h4.5c0,2.5-0.7,4.9-1.9,7C202.7,29.9,201.6,29.4,200.3,28.9z M201.3,23.1c0-1.9-0.4-3.7-1-5.4
		c1.2-0.5,2.4-1,3.6-1.6c1.2,2.1,1.8,4.5,1.9,7C205.8,23.1,201.3,23.1,201.3,23.1z M182.1,28.8c-0.6-1.6-0.9-3.4-0.9-5.2h4.4
		c0,1.4,0.1,2.8,0.4,4.2C184.6,28,183.4,28.3,182.1,28.8z M186,28.2c0.3,1.6,0.8,3.1,1.4,4.6c-0.8,0.3-1.5,0.7-2.2,1.3
		c-1.3-1.4-2.3-3-3-4.8C183.5,28.8,184.8,28.5,186,28.2z M184.8,34.4c-0.6,0.5-1.1,1-1.5,1.6c-2-1.2-3.8-2.9-5-5
		c1.1-0.6,2.3-1.1,3.5-1.6C182.5,31.2,183.6,32.9,184.8,34.4z M185.2,34.8c1.2,1.3,2.7,2.4,4.4,3.3c-2.1-0.2-4-0.8-5.8-1.8
		C184.2,35.7,184.7,35.2,185.2,34.8z M185.6,34.4c0.6-0.5,1.3-0.9,2-1.2c0.7,1.6,1.6,3.1,2.6,4.5C188.4,37,186.9,35.8,185.6,34.4z
		 M188.1,33.1c0.8-0.3,1.7-0.5,2.6-0.5v5.1C189.7,36.2,188.8,34.7,188.1,33.1z M187.9,32.6c-0.6-1.4-1-2.9-1.4-4.5
		c1.4-0.2,2.8-0.4,4.2-0.4v4.3C189.7,32.1,188.8,32.3,187.9,32.6z M186.4,27.7c-0.2-1.3-0.4-2.7-0.4-4.1h4.6v3.7
		C189.3,27.3,187.9,27.4,186.4,27.7z M186.1,23.1c0-1.4,0.1-2.8,0.4-4.1c1.4,0.2,2.8,0.4,4.3,0.4v3.7L186.1,23.1L186.1,23.1z
		 M186.5,18.5c0.3-1.5,0.8-3,1.4-4.5c0.9,0.3,1.9,0.5,2.8,0.5v4.3C189.3,18.9,187.9,18.7,186.5,18.5z M205.5,29.4
		c0.2-0.4,0.3-0.8,0.4-1.2C205.8,28.6,205.7,29,205.5,29.4z M206.4,26.3c0.1-0.7,0.2-1.4,0.3-2.2C206.7,24.9,206.6,25.6,206.4,26.3z
		"/>
	<path class="st4" d="M200.8,23.1c0-1.8-0.4-3.5-0.9-5.2c-1.2,0.4-2.5,0.8-3.8,1c0.2,1.4,0.4,2.8,0.4,4.2L200.8,23.1L200.8,23.1z"/>
	<line class="st5" x1="0.9" y1="55.5" x2="204.7" y2="55.5"/>
	<g>
		<polygon points="192.5,26.9 196.2,28.6 194.5,24.8 199.3,23.6 199.3,23 194.5,21.8 196.3,18 192.5,19.8 191.3,12.9 190.6,12.9 
			189.5,19.8 185.7,18 187.4,21.9 182.7,23 182.7,23.6 187.4,24.8 185.7,28.6 189.4,26.9 190.6,33.7 191.3,33.7 		"/>
		<polygon class="st3" points="191,13.3 192.2,20.3 195.6,18.7 194,22.1 199,23.3 194,24.6 195.5,27.8 192.2,26.3 191,33.3 
			189.7,26.3 186.4,27.9 188,24.6 182.9,23.3 188,22.1 186.4,18.7 189.7,20.3 		"/>
	</g>
</g>
</svg>
