<?xml version="1.0" encoding="utf-8"?>
<!-- Generator: Adobe Illustrator 26.3.1, SVG Export Plug-In . SVG Version: 6.00 Build 0)  -->
<svg version="1.1" id="圖層_1" xmlns="http://www.w3.org/2000/svg" xmlns:xlink="http://www.w3.org/1999/xlink" x="0px" y="0px"
	 viewBox="0 0 92 80" style="enable-background:new 0 0 92 80;" xml:space="preserve">
<style type="text/css">
	.st0{fill:#FFFFFF;}
	.st1{fill:#939393;}
	.st2{clip-path:url(#SVGID_00000116217499626597049600000017955933074676509335_);fill:#FFFFFF;}
	.st3{clip-path:url(#SVGID_00000118375205291336629190000012079103340791568300_);fill:#FFFFFF;}
	
		.st4{clip-path:url(#SVGID_00000037652957384237675940000003278855563235794325_);fill:url(#SVGID_00000067917274940995047780000018376519281925121454_);}
</style>
<g>
	<rect x="-0.52" y="-0.7" width="93.03" height="81.4"/>
	<polygon class="st0" points="57.85,61.11 57.85,61.76 59.57,61.76 59.57,61.11 59.15,61.11 59.37,60.54 60.6,60.54 60.81,61.11 
		60.38,61.11 60.38,61.76 62.09,61.76 62.09,61.11 61.62,61.11 60.64,58.7 61.07,58.7 61.07,58.09 58.9,58.09 58.9,58.7 59.31,58.7 
		58.35,61.11 	"/>
	<polygon class="st1" points="59.59,59.93 60.38,59.93 59.99,58.83 	"/>
	<polygon class="st0" points="66.2,65.35 67.18,65.35 65.6,67.76 63.88,65.35 64.86,65.35 64.86,64.37 61.65,64.37 61.65,64.37 
		58.59,64.37 58.59,65.35 59.49,65.35 56.98,68.06 59.4,71.2 58.55,71.2 58.55,72.18 61.73,72.18 61.73,71.2 60.89,71.2 
		58.42,68.06 60.82,65.35 61.65,65.35 61.65,65.35 62.6,65.35 64.93,68.63 64.93,71.2 63.88,71.2 63.88,72.18 67.18,72.18 
		67.18,71.2 66.11,71.2 66.11,68.63 68.28,65.35 69.31,65.35 69.31,64.37 66.2,64.37 	"/>
	<polygon class="st0" points="56.94,65.35 57.94,65.35 57.94,64.37 54.78,64.37 54.78,65.35 55.76,65.35 55.76,71.2 54.78,71.2 
		54.78,72.18 57.84,72.18 57.84,71.2 56.94,71.2 	"/>
	<polygon class="st0" points="62.49,61.11 62.49,61.76 65.51,61.76 65.51,59.94 64.76,59.94 64.76,61.11 63.8,61.11 63.8,58.74 
		64.27,58.74 64.27,58.09 62.49,58.09 62.49,58.74 62.98,58.74 62.98,61.11 	"/>
	<polygon class="st0" points="33.87,65.35 34.8,65.35 33.35,70.46 31.92,65.35 32.84,65.35 32.84,64.37 29.25,64.37 29.25,65.35 
		30.18,65.35 28.76,70.46 27.28,65.35 28.22,65.35 28.22,64.37 25.23,64.37 25.23,65.35 26.17,65.35 28.16,72.26 29.25,72.26 
		30.99,66.08 32.75,72.26 33.87,72.26 35.82,65.35 36.74,65.35 36.74,64.37 33.87,64.37 	"/>
	<polygon class="st0" points="57.39,58.74 57.39,58.1 55.89,58.1 54.95,60.29 54.01,58.1 52.52,58.1 52.52,58.74 52.98,58.74 
		52.98,61.11 52.52,61.11 52.52,61.76 54.09,61.76 54.09,61.11 53.67,61.11 53.67,59.15 54.8,61.79 54.98,61.79 55.05,61.79 
		56.2,59.15 56.2,61.11 55.74,61.11 55.74,61.76 57.39,61.76 57.39,61.11 56.93,61.11 56.93,58.74 	"/>
	<polygon class="st0" points="65.99,59.62 66.68,59.62 66.68,58.74 67.26,58.74 67.26,61.11 66.77,61.11 66.77,61.76 68.54,61.76 
		68.54,61.11 68.05,61.11 68.05,58.74 68.62,58.74 68.62,59.62 69.31,59.62 69.31,58.1 65.99,58.1 	"/>
	<polygon class="st0" points="47.82,59.35 47.82,58.09 44.42,58.09 44.42,58.74 44.92,58.74 44.92,61.11 44.42,61.11 44.42,61.76 
		47.82,61.76 47.82,60.48 47.13,60.48 47.13,61.11 45.71,61.11 45.71,60.2 47.13,60.2 47.13,59.55 45.71,59.55 45.71,58.74 
		47.13,58.74 47.13,59.35 	"/>
	<polygon class="st0" points="45.24,65.35 46.08,65.35 46.08,71.2 45.24,71.2 45.24,72.18 48.1,72.18 48.1,71.2 47.26,71.2 
		47.26,65.35 48.1,65.35 48.1,64.37 45.24,64.37 	"/>
	<polygon class="st0" points="30.43,58.74 30.43,58.1 28.81,58.1 28.81,58.74 29.22,58.74 29.22,61.11 28.81,61.11 28.81,61.76 
		30.43,61.76 30.43,61.11 30.01,61.11 30.01,58.74 	"/>
	<polygon class="st0" points="41.59,65.35 42.5,65.35 42.5,67.58 39.1,67.58 39.1,65.35 40.03,65.35 40.03,64.37 37.04,64.37 
		37.04,65.35 37.93,65.35 37.93,71.2 37.04,71.2 37.04,72.18 40.03,72.18 40.03,71.2 39.1,71.2 39.1,68.56 42.5,68.56 42.5,71.2 
		41.59,71.2 41.59,72.18 44.57,72.18 44.57,71.2 43.68,71.2 43.68,65.35 44.57,65.35 44.57,64.37 41.59,64.37 	"/>
	<g>
		<defs>
			<rect id="SVGID_1_" x="-0.52" y="-0.7" width="93.03" height="81.4"/>
		</defs>
		<clipPath id="SVGID_00000003791164654099517960000009534340575533197702_">
			<use xlink:href="#SVGID_1_"  style="overflow:visible;"/>
		</clipPath>
		<path style="clip-path:url(#SVGID_00000003791164654099517960000009534340575533197702_);fill:#FFFFFF;" d="M25.83,60
			c0.18,0.08,0.43,0.16,0.78,0.24c0.29,0.07,0.48,0.14,0.57,0.2c0.07,0.05,0.11,0.12,0.11,0.26c0,0.14-0.05,0.24-0.16,0.32
			c-0.11,0.09-0.24,0.13-0.41,0.14c-0.32,0-0.58-0.15-0.79-0.49v-0.38h-0.7v1.47h0.11h0.59v-0.19c0.25,0.16,0.53,0.24,0.83,0.24h0
			c0.36,0,0.67-0.1,0.92-0.31c0.25-0.21,0.39-0.49,0.39-0.81c0-0.23-0.06-0.44-0.18-0.62c-0.12-0.17-0.27-0.3-0.44-0.38
			c-0.17-0.07-0.41-0.15-0.75-0.23c-0.26-0.06-0.43-0.1-0.51-0.13c-0.07-0.03-0.13-0.07-0.17-0.12c-0.04-0.05-0.06-0.11-0.06-0.18
			c0-0.09,0.03-0.16,0.13-0.23c0.08-0.07,0.22-0.11,0.41-0.11c0.31,0,0.53,0.11,0.71,0.33v0.21v0.11h0.68v-1.26h-0.68v0.15
			c-0.23-0.12-0.48-0.19-0.74-0.19c-0.34,0-0.64,0.09-0.88,0.28c-0.24,0.19-0.36,0.46-0.36,0.78c0,0.2,0.06,0.39,0.17,0.54
			C25.5,59.8,25.65,59.92,25.83,60"/>
		<path style="clip-path:url(#SVGID_00000003791164654099517960000009534340575533197702_);fill:#FFFFFF;" d="M53.08,67.97
			c-0.31-0.15-0.81-0.32-1.5-0.5c-0.53-0.14-0.88-0.24-1.06-0.32c-0.18-0.07-0.33-0.19-0.44-0.35c-0.11-0.16-0.18-0.34-0.18-0.55
			c0-0.27,0.12-0.51,0.35-0.71c0.23-0.19,0.55-0.29,0.98-0.29c0.7,0,1.26,0.3,1.65,0.9v0.55h0.96v-2.37h-0.96v0.52
			c-0.53-0.4-1.12-0.61-1.74-0.61c-0.66,0-1.21,0.2-1.64,0.59c-0.44,0.39-0.66,0.91-0.66,1.57c0,0.42,0.1,0.79,0.3,1.1
			c0.2,0.31,0.47,0.55,0.8,0.71c0.34,0.17,0.86,0.34,1.55,0.53c0.61,0.16,1.01,0.32,1.23,0.49c0.22,0.16,0.32,0.43,0.32,0.8
			c0,0.38-0.13,0.69-0.4,0.93c-0.27,0.23-0.59,0.35-0.98,0.35c-0.75,0-1.37-0.43-1.83-1.28v-0.69h-0.98v2.83h0.98v-0.65
			c0.57,0.51,1.21,0.77,1.92,0.77c0.69,0,1.27-0.22,1.74-0.65c0.47-0.44,0.7-0.99,0.7-1.65c0-0.47-0.11-0.89-0.34-1.25
			C53.66,68.39,53.39,68.13,53.08,67.97"/>
	</g>
	<polygon class="st0" points="40.82,61.11 40.82,61.76 43.84,61.76 43.84,59.94 43.09,59.94 43.09,61.11 42.13,61.11 42.13,58.74 
		42.6,58.74 42.6,58.09 40.82,58.09 40.82,58.74 41.31,58.74 41.31,61.11 	"/>
	<g>
		<defs>
			<rect id="SVGID_00000127765511705018788660000000154319581963120049_" x="-0.52" y="-0.7" width="93.03" height="81.4"/>
		</defs>
		<clipPath id="SVGID_00000106844339301082149250000010735796156515740824_">
			<use xlink:href="#SVGID_00000127765511705018788660000000154319581963120049_"  style="overflow:visible;"/>
		</clipPath>
		<path style="clip-path:url(#SVGID_00000106844339301082149250000010735796156515740824_);fill:#FFFFFF;" d="M37.99,58.71
			c0.28,0,0.53,0.07,0.74,0.2c0.22,0.14,0.37,0.3,0.45,0.46l0.03,0.06h0.66V58.1h-0.7v0.28c-0.35-0.23-0.76-0.34-1.23-0.34
			c-0.61,0-1.12,0.18-1.49,0.54c-0.37,0.35-0.56,0.81-0.56,1.34c0,0.51,0.18,0.96,0.54,1.33c0.36,0.38,0.91,0.56,1.62,0.56h0
			c0.59,0,1.08-0.15,1.46-0.46c0.38-0.31,0.57-0.74,0.57-1.25c0-0.04,0-0.08,0-0.12l0-0.1h-1.6v0.11v0.54h0.66
			c-0.06,0.16-0.17,0.29-0.34,0.4c-0.22,0.14-0.47,0.21-0.76,0.21c-0.37,0-0.67-0.11-0.93-0.34c-0.25-0.22-0.38-0.51-0.38-0.9
			c0-0.34,0.11-0.61,0.33-0.85C37.3,58.83,37.6,58.71,37.99,58.71"/>
	</g>
	<polygon class="st0" points="33.92,61.79 34.68,61.79 34.68,58.74 35.24,58.74 35.24,58.1 33.46,58.1 33.46,58.74 34,58.74 
		34,60.51 32.48,58.1 31.01,58.1 31.01,58.74 31.56,58.74 31.56,61.11 31.01,61.11 31.01,61.76 32.8,61.76 32.8,61.11 32.25,61.11 
		32.25,59.11 	"/>
	<g>
		<defs>
			<path id="SVGID_00000047744394205618472000000006973257554199508879_" d="M29.86,38.56h-4.17v15.01h12.65l1.36-3.41h-9.83V38.56z
				 M39.61,21.05l-5.15-9.34l4.93-5.67h-5.55l-4.37,5.67V6.04H25.3v15.01h4.17v-3.66l2.15-2.51l2.85,6.17H39.61z M34.92,37.4
				l5.02-15H35.7l-3,10.8l-3.04-10.8H25.3l5.1,15H34.92z M45.84,38.56l-5.08,15.01h4.26l0.66-2.48h4.74l0.68,2.48h4.37l-5.08-15.01
				H45.84z M45.85,22.4l-5.08,15h4.26l0.66-2.48h4.74l0.68,2.48h4.37l-5.08-15H45.85z M51.11,21.05h4.37L50.4,6.04h-4.55
				l-5.07,15.01h4.26l0.66-2.48h4.74L51.11,21.05z M69.74,53.57V38.56h-3.94v8.3l-5.09-8.3h-3.9v15.01h3.92v-8.24l5.06,8.24H69.74z"
				/>
		</defs>
		<clipPath id="SVGID_00000036232052348458498500000017206263855693207686_">
			<use xlink:href="#SVGID_00000047744394205618472000000006973257554199508879_"  style="overflow:visible;"/>
		</clipPath>
		
			<linearGradient id="SVGID_00000074443817937048531600000008432545929295549093_" gradientUnits="userSpaceOnUse" x1="-78.6893" y1="169.8527" x2="-77.4794" y2="169.8527" gradientTransform="matrix(42.3452 -7.4666 -7.4666 -42.3451 4622.2373 6639.2109)">
			<stop  offset="0" style="stop-color:#8A8A8A"/>
			<stop  offset="0.5" style="stop-color:#E0E0E0"/>
			<stop  offset="1" style="stop-color:#9D9D9D"/>
		</linearGradient>
		
			<polygon style="clip-path:url(#SVGID_00000036232052348458498500000017206263855693207686_);fill:url(#SVGID_00000074443817937048531600000008432545929295549093_);" points="
			17.17,7.48 68.4,-1.56 77.87,52.13 26.64,61.17 		"/>
	</g>
	<polygon points="47.96,43.44 49.45,48.84 46.48,48.84 	"/>
	<polygon points="47.97,27.28 49.46,32.68 46.49,32.68 	"/>
	<polygon points="47.97,10.93 49.46,16.32 46.5,16.32 	"/>
</g>
</svg>
