<?xml version="1.0" encoding="utf-8"?>
<!-- Generator: Adobe Illustrator 26.3.1, SVG Export Plug-In . SVG Version: 6.00 Build 0)  -->
<svg version="1.1" id="圖層_1" xmlns="http://www.w3.org/2000/svg" xmlns:xlink="http://www.w3.org/1999/xlink" x="0px" y="0px"
	 viewBox="0 0 173.19 43" style="enable-background:new 0 0 173.19 43;" xml:space="preserve">
<style type="text/css">
	.st0{fill:#FFFFFF;}
</style>
<g>
	<g>
		<path class="st0" d="M9.11,4.77c0,0,2.27-0.97,2.45,1.75c0.18,2.72-1.39,5.63-4.36,6.99c0,0-0.7,1.74,1.39,1.55
			c2.1-0.19,6.46-0.77,7.15-2.13c0.7-1.36,5.41,1.36,4.54,3.49c-0.87,2.13-8.02,0.58-11.69,2.32c-3.66,1.75-7.67-0.38-6.97-2.71
			c0,0-0.29-2.26,4.36-4.85c4.65-2.58,3.37-2.07,3.49-2.84C9.58,7.55,9.11,5.48,9.11,4.77z"/>
		<path class="st0" d="M1.32,22.8c0,0,2.44-1.29,4.3,1.94c1.86,3.23,3.38,7.38,2.22,8.53c-1.16,1.17-1.28,2.98-1.98,2.2
			C5.16,34.7,0.62,29.02,1.32,22.8z"/>
		<path class="st0" d="M7.48,24.87c0,0,1.16,0.9,2.21,0.39c1.04-0.52,4.89-4.01,7.44-3.23c2.56,0.77,3.14,2.84,0.81,4.27
			c-2.33,1.42-2.45,2.84-6.28,2.2c0,0-2.68,1.16-1.28,4.01c0,0,5,0.12,7.44,0.9c2.44,0.77,3.96-1.42,3.96-2.85
			c0,0-4.43-0.39-5.24-1.43c0,0,6.52-3.88,4.78-6.85c-1.75-2.98-5.71-1.55-8.15-0.78C10.74,22.29,6.44,23.84,7.48,24.87z"/>
		<path class="st0" d="M17.73,8.71c0,0,1.39,3.75,3.14,4.14c1.74,0.38,4.19-0.52,4.3-1.42c0.11-0.9-3.72-4.27-5.12-4.27
			C18.65,7.16,17.96,7.81,17.73,8.71z"/>
	</g>
	<g>
		<path class="st0" d="M32.24,14.02c0,0,1.06-0.14,1.87,0.9c0.81,1.04,1.86,3.49,1.86,5.7c0,2.19,0.46,4.9,0.46,4.9
			s1.99,1.69,1.05,2.59c-0.93,0.9-7.55,3.75-11.52,2.33c0,0-1.51-2.97,1.05-3.49l2.32-0.51l1.4-1.43l-0.11-2.2
			c0,0-5.7,0.77-6.05-0.78c-0.35-1.55,0.23-2.84,3.14-2.84h2.56l1.16-2.2v-2.97H32.24z"/>
		<path class="st0" d="M43.63,12.86c0,0-1.5,6.85-2.09,8.4c-0.58,1.55-0.12,5.43-0.12,5.43s1.51,1.94,2.8,2.07
			c1.28,0.13,8.84,1.42,8.6-0.91c-0.23-2.33-2.44-3.49-4.07-3.75l-3.48-0.13l-0.82-11.25C44.45,12.73,44.11,12.34,43.63,12.86z"/>
		<path class="st0" d="M46.43,15.31c0,0,1.28,2.2,3.14,2.33c1.86,0.13,2.56-0.39,3.03-1.94c0.46-1.55-2.33-2.84-4.42-2.07
			C46.08,14.41,46.43,15.31,46.43,15.31z"/>
	</g>
	<g>
		<path class="st0" d="M64.02,0.69c0,0-0.58,4.92,3.38,4.79c3.95-0.13,5-1.69,2.44-3.75c0,0-2.56-0.65-4.07-0.65
			C64.25,1.08,64.95,0.18,64.02,0.69z"/>
		<path class="st0" d="M65.42,9.88c-4.78,2.98-6.51,1.94-6.51,1.94c-0.59-0.38-1.29-1.42-1.29-1.42c-1.17-0.26-2.21,0.64-2.21,0.64
			s1.74,2.07,3.26,2.46c1.51,0.38,7.9-2.98,7.9-2.98l-0.18,3.62l-2.84,1.42c-1.75,0.26-2.68,1.68-2.68,1.68l-3.49,7.5
			c-0.57,0.64,0,2.07,0,2.07c1.29-0.39,6.06-8.21,6.06-8.21l3.14-1.56v25.41l0.7-0.77c0,0,1.74-6.21,1.98-6.98
			c0.23-0.78,0.47-8.41,0.47-8.41l4.76-0.13c3.61-0.38,0.93-8.15,0.59-10.6c-0.35-2.46-6.52-2.2-6.52-2.2V9.75
			c6.75-2.46,7.92,0.26,7.92,0.26c1.74,0.13,2.78-1.03,2.78-1.03C78.56,6,70.19,6.9,65.42,9.88z M69.73,16.47
			c0.58-0.39,3.14,0.26,3.14,0.26c0.7,1.81,2.09,8.15,0.58,8.53c-1.51,0.39-3.71-1.03-3.71-1.03V16.47z"/>
	</g>
	<g>
		<path class="st0" d="M87.88,18.94c0.47,0,1.63-1.56,1.63-1.56l3.84-0.52c0,0,2.79-2.2,4.88-1.81c2.09,0.39,6.86,0,4.65-2.71
			c-2.21-2.72-4.77-1.16-4.77-1.16s-2.44,0.51-2.67,0c-0.24-0.52,2.21-3.75,1.97-5.43c-0.23-1.68-1.16-2.33-1.16-2.33
			c-2.09,6.08-10.81,13.33-10.7,13.97C85.67,18.03,87.41,18.94,87.88,18.94z"/>
		<path class="st0" d="M115.69,35.88c-3.15-3.1-8.15-5.3-19.55-7.88c0,0,2.8-2.46,2.56-10.86c0,0-0.35-0.77-1.39-0.39
			c0,0,0.24,9.57-2.8,10.6c0,0-10.46-1.94-13.72,0.51c-3.26,2.46-2.21,5.95,3.38,7.89c5.58,1.94,10.93-4.52,10.93-4.52
			s5.52-0.38,15.65,6.4c0,0,2.27-0.19,3.14,1.36c0.87,1.55,1.51,2.72,2.5,2.72C116.39,41.7,118.83,38.98,115.69,35.88z M86.14,34.33
			c-4.19,0.13-5.35-2.72-5.35-2.72c-0.12-0.78,0.46-1.69,0.46-1.69c3.72-3.36,11.4,0,11.4,0C91.72,31.87,90.32,34.2,86.14,34.33z"/>
	</g>
	<g>
		<path class="st0" d="M108.22,23c0,0,0.47,2.71,5.35,1.94l0.81,0.78v4.66c0,0,0.59,0.77,1.17,0.9c0.58,0.14,2.1-1.29,2.1-1.29
			l0.11-8.92c0,0,2.56-2.07,2.45-3.49c-0.12-1.42-1.51-1.16-3.26,0.52c-1.75,1.68-2.56,1.68-3.37,1.94
			C112.76,20.29,107.64,19.64,108.22,23z"/>
		<path class="st0" d="M127.65,14.21c0,0,1.16,0,1.4,2.33c0.23,2.33,3.37,0.39,3.48-2.07c0.13-2.46-1.98-3.23-3.72-2.59
			C127.07,12.53,127.65,14.21,127.65,14.21z"/>
		<path class="st0" d="M126.84,18.74c0,0,1.04-0.39,1.04,0.9c0,1.29-0.46,4.14-1.04,5.56c-0.58,1.42,0.58,3.1,4.3,3.1
			c3.73,0,7.91,0.64,6.87-2.07c-1.05-2.71-2.21-5.04-1.4-6.46c0,0,0.93,3.36,2.91,4.78c1.98,1.42,4.06,4.24,1.17,5.95
			c-1.98,1.16-13.15-0.13-13.15-0.13s-4.06-1.43-1.75-6.47C125.78,23.91,127.07,20.8,126.84,18.74z"/>
	</g>
	<g>
		<path class="st0" d="M150.09,8.33c0,0,1.16,1.68,3.14,1.81c1.98,0.13,3.38-0.64,4.19-1.42c0.81-0.77,0.81,2.33,0.81,2.33
			s-4.18,2.58-6.75,2.46l-0.69-0.91l-1.05,0.13c0,0-2.91,12.15-5.71,15.39c-2.79,3.23-7.68,8.28-9.65,9.95c0,0,0.11,1.17,1.05,0.91
			c0.93-0.26,9.07-8.02,10-9.44c0.93-1.42,5.01-10.61,5.7-13.97c0,0,7.33-1.42,10.47-1.03c0,0,1.51-0.13,1.16-2.46l-1.86-1.16V7.16
			c0,0,1.98-1.42,2.1-2.72c0.11-1.3-2.44-0.65-2.67-0.26c-0.24,0.39-2.68,1.16-2.68,1.16S149.74,6.78,150.09,8.33z"/>
		<path class="st0" d="M150.33,22.03c0,0,1.15,1.68,4.53,0.78c3.38-0.9,8.26-3.62,10.25-3.23c1.97,0.38,3.72,2.97,3.84,5.81
			c0.11,2.85,0,7.63,0,7.63s-2.21,1.29-3.49,0c-1.28-1.29-2.09-1.94-2.09-1.94l-1.28-1.03l0.46-1.42c0,0,1.28-0.78,1.28-1.43
			c0-0.65-0.93-3.23-4.88-2.33c0,0-3.14,2.07-4.89,2.21c0,0,0.01,1.29,0.59,1.55c0.58,0.26,2.56,1.16,1.74,2.45
			c-0.82,1.29-1.98,0.13-1.98,0.13l-1.63-1.42c0,0-1.51-0.52-1.75,0.13c-0.23,0.65,0.93,5.56,2.33,6.21
			c1.4,0.65,3.03-1.29,4.08-1.81c1.04-0.51,7.1-0.65,8.03,0.13c0.93,0.77,1.74,3.49,2.56,3.62c0.8,0.13,4.54-3.23,3.84-6.33
			c-0.7-3.1-0.94-9.57-0.94-9.57s-0.7-4.66-7.33-3.36c0,0-4.53,1.55-5.24,1.68C157.65,20.61,149.63,20.87,150.33,22.03z"/>
	</g>
</g>
</svg>
