<?xml version="1.0" encoding="utf-8"?>
<!-- Generator: Adobe Illustrator 26.3.1, SVG Export Plug-In . SVG Version: 6.00 Build 0)  -->
<svg version="1.1" id="圖層_1" xmlns="http://www.w3.org/2000/svg" xmlns:xlink="http://www.w3.org/1999/xlink" x="0px" y="0px"
	 viewBox="0 0 183 30" style="enable-background:new 0 0 183 30;" xml:space="preserve">
<style type="text/css">
	.st0{fill:#FFFFFF;}
</style>
<g>
	<path class="st0" d="M0.48,13.67c0.11-0.67,0.18-1.34,0.34-2c1.05-4.39,3.82-7.2,8.12-8.4c3.78-1.06,7.59-1.01,11.28,0.46
		c2.97,1.18,5.29,4.13,5.71,7.1c-2.26,0.26-4.52,0.52-6.79,0.77c-0.12-0.27-0.21-0.52-0.32-0.76c-0.69-1.51-1.86-2.37-3.5-2.63
		c-1.13-0.18-2.25-0.18-3.36,0.1C9.97,8.81,8.63,10.06,8,12c-0.59,1.82-0.6,3.68-0.02,5.5c0.71,2.26,2.32,3.51,4.63,3.87
		c1.18,0.18,2.37,0.15,3.54-0.13c1.7-0.4,2.79-1.44,3.25-3.12c0.05-0.19,0.09-0.32,0.34-0.31c2.14,0.01,4.27,0.01,6.41,0.01
		c0.07,0,0.14,0.02,0.23,0.03c-0.4,3.67-2.27,6.27-5.61,7.82c-2.38,1.1-4.91,1.37-7.49,1.31c-2.34-0.05-4.61-0.45-6.72-1.52
		c-3.31-1.68-5.2-4.4-5.86-8.01c-0.09-0.5-0.15-1-0.22-1.5C0.48,15.18,0.48,14.42,0.48,13.67z"/>
	<path class="st0" d="M42.79,0.08c0,1.1,0.01,2.2,0.01,3.31c0,3.31,0,6.61,0,9.92c0,0.13,0,0.26,0,0.46
		c3.98-2.29,7.9-4.55,11.87-6.84c0.25,0.42,0.48,0.83,0.73,1.25c-3.95,2.28-7.88,4.54-11.86,6.84c3.97,2.29,7.9,4.55,11.86,6.83
		c-0.24,0.41-0.47,0.82-0.72,1.26c-3.95-2.27-7.87-4.53-11.84-6.82c0,4.57,0,9.09,0,13.63c-0.5,0-0.97,0-1.47,0
		c0-4.53,0-9.05,0-13.64c-3.99,2.3-7.91,4.56-11.86,6.83c-0.24-0.42-0.47-0.81-0.73-1.25c3.95-2.28,7.88-4.54,11.86-6.84
		c-3.97-2.29-7.9-4.55-11.86-6.84c0.25-0.42,0.48-0.83,0.73-1.25c3.95,2.27,7.87,4.53,11.83,6.82c0.01-0.14,0.03-0.24,0.03-0.33
		c0-4.39,0-8.77,0-13.16c0-0.06-0.01-0.12-0.02-0.18C41.82,0.08,42.3,0.08,42.79,0.08z"/>
	<path class="st0" d="M81.51,9.52c-2.18,0.22-4.35,0.43-6.51,0.65c-0.04-0.05-0.07-0.07-0.08-0.11c-0.58-1.36-1.64-2.1-3.07-2.32
		c-1.55-0.24-3.1-0.21-4.62,0.19c-0.29,0.08-0.57,0.2-0.84,0.35C65.88,8.57,65.57,9,65.6,9.61c0.03,0.65,0.31,1.18,0.95,1.37
		c0.89,0.26,1.8,0.48,2.71,0.65c2.29,0.43,4.58,0.8,6.86,1.25c1.12,0.22,2.18,0.66,3.16,1.26c2.24,1.36,3.01,3.44,2.86,5.94
		c-0.19,3.05-1.99,4.85-4.72,5.87c-2,0.75-4.1,0.96-6.22,1.01c-2.32,0.05-4.63-0.09-6.87-0.78c-1.83-0.56-3.43-1.47-4.59-3.03
		c-0.96-1.29-1.4-2.77-1.55-4.37c0.11-0.01,0.21-0.02,0.3-0.02c2.06,0,4.13,0,6.19-0.01c0.25,0,0.35,0.06,0.42,0.31
		c0.4,1.53,1.47,2.35,2.96,2.66c1.73,0.36,3.47,0.35,5.19-0.07c0.48-0.12,0.97-0.34,1.38-0.63c1.06-0.75,0.94-2.2-0.26-2.68
		c-0.84-0.34-1.76-0.5-2.67-0.66c-2.29-0.41-4.62-0.58-6.86-1.24c-1.33-0.39-2.61-0.91-3.71-1.78c-1.41-1.11-2.14-2.58-2.23-4.35
		C58.73,7.36,60,5.33,62.8,4c1.61-0.76,3.32-1.13,5.08-1.29c2.12-0.19,4.24-0.17,6.35,0.2c1.18,0.21,2.31,0.54,3.37,1.1
		C79.82,5.19,81.06,7.05,81.51,9.52z"/>
	<path class="st0" d="M161.5,3.21c6.75,0,13.47,0,20.21,0c0,1.73,0,3.45,0,5.2c-4.49,0-8.98,0-13.49,0c0,1.18,0,2.33,0,3.52
		c4.26,0,8.53,0,12.81,0c0,1.76,0,3.48,0,5.24c-4.26,0-8.52,0-12.81,0c0,1.35,0,2.65,0,3.98c4.77,0,9.52,0,14.3,0
		c-0.22,1.76-0.43,3.47-0.65,5.21c-6.79,0-13.57,0-20.36,0C161.5,18.65,161.5,10.95,161.5,3.21z"/>
	<path class="st0" d="M157.98,10.83c-1.73,0.2-3.44,0.39-5.15,0.59c-0.47,0.05-0.94,0.12-1.41,0.14c-0.1,0.01-0.22-0.11-0.31-0.19
		c-0.05-0.04-0.06-0.13-0.08-0.2c-0.66-1.7-1.88-2.71-3.71-2.97c-1.12-0.16-2.23-0.16-3.32,0.12c-2.1,0.54-3.43,1.89-4.02,3.95
		c-0.49,1.71-0.49,3.45,0.04,5.16c0.7,2.29,2.31,3.58,4.65,3.94c1.2,0.19,2.39,0.15,3.58-0.14c1.66-0.41,2.75-1.41,3.21-3.07
		c0.03-0.1,0.06-0.21,0.1-0.33c2.28,0,4.56,0,6.91,0c-0.1,0.54-0.17,1.07-0.31,1.59c-0.88,3.42-3.16,5.52-6.4,6.67
		c-2.26,0.8-4.62,0.97-7,0.85c-1.93-0.1-3.81-0.44-5.58-1.24c-3.68-1.65-5.79-4.52-6.45-8.45c-0.37-2.24-0.28-4.47,0.43-6.64
		c1.01-3.09,3-5.38,5.98-6.65c4.31-1.84,8.74-1.89,13.11-0.22c3.17,1.21,4.91,3.74,5.72,6.95
		C157.98,10.71,157.98,10.75,157.98,10.83z"/>
	<path class="st0" d="M104.64,26.35c0.04-0.12,0.08-0.23,0.13-0.34c3.27-7.48,6.53-14.96,9.79-22.45c0.12-0.27,0.25-0.38,0.55-0.38
		c2.43,0.01,4.85,0.01,7.28,0c0.25,0,0.38,0.06,0.49,0.31c3.27,7.51,6.54,15.01,9.82,22.52c0.05,0.11,0.08,0.22,0.14,0.37
		c-0.15,0-0.27,0-0.39,0c-2.12,0-4.25-0.01-6.37,0.01c-0.28,0-0.4-0.09-0.5-0.34c-0.49-1.24-1-2.47-1.49-3.7
		c-0.09-0.23-0.21-0.3-0.45-0.3c-3.35,0.01-6.7,0.01-10.05,0c-0.25,0-0.36,0.08-0.45,0.3c-0.49,1.25-0.99,2.5-1.49,3.74
		c-0.06,0.16-0.11,0.29-0.34,0.29c-2.18-0.01-4.37-0.01-6.55-0.01C104.73,26.38,104.7,26.37,104.64,26.35z M118.64,8.59
		c-1.13,2.81-2.23,5.53-3.33,8.27c2.24,0,4.43,0,6.67,0C120.86,14.1,119.76,11.39,118.64,8.59z"/>
	<path class="st0" d="M91.96,19.2c0,2.41,0,4.77,0,7.16c-2.23,0-4.42,0-6.62,0c0-7.71,0-15.41,0-23.14
		c0.09-0.01,0.18-0.03,0.27-0.03c4.09,0,8.18-0.01,12.27,0.02c1.77,0.02,3.5,0.31,5.14,1.01c2.49,1.07,3.82,2.99,4.14,5.65
		c0.16,1.37,0.1,2.74-0.3,4.06c-0.67,2.23-2.22,3.6-4.36,4.38c-1.65,0.6-3.37,0.82-5.11,0.86c-1.66,0.04-3.32,0.01-4.99,0.02
		C92.25,19.2,92.13,19.2,91.96,19.2z M91.97,14.09c0.13,0.01,0.23,0.02,0.34,0.02c1.36,0,2.72,0.01,4.07-0.01
		c0.56-0.01,1.12-0.05,1.66-0.14c1.16-0.2,2.11-0.7,2.36-1.97c0.09-0.44,0.09-0.92,0.04-1.37c-0.09-0.97-0.62-1.67-1.56-1.94
		c-0.7-0.2-1.44-0.33-2.17-0.36c-1.49-0.05-2.98-0.02-4.47-0.02c-0.09,0-0.18,0.02-0.28,0.03C91.97,10.25,91.97,12.16,91.97,14.09z"
		/>
</g>
</svg>
