<?xml version="1.0" encoding="utf-8"?>
<!-- Generator: Adobe Illustrator 26.3.1, SVG Export Plug-In . SVG Version: 6.00 Build 0)  -->
<svg version="1.1" id="圖層_1" xmlns="http://www.w3.org/2000/svg" xmlns:xlink="http://www.w3.org/1999/xlink" x="0px" y="0px"
	 viewBox="0 0 66 58" style="enable-background:new 0 0 66 58;" xml:space="preserve">
<style type="text/css">
	.st0{fill:#FFFFFF;}
</style>
<g>
	<g>
		<path class="st0" d="M0.46,14.29c0-3.19,0-5.61,0-8.8c0-1.96,1.56-4.61,4.69-4.61c5.72,0,9.74-0.09,15.42,0
			c1.89,0.03,3.29,1.49,3.25,3.3c-0.04,1.89-1.53,3.18-3.3,3.19c-2.98,0.03-6.31-0.07-9.29-0.05C9.49,7.35,8.73,8.21,8.8,9.84
			c0.08,1.82,0.91,2.42,2.44,2.43c2.38,0.02,4.62-0.01,7-0.01c1.59,0,3.21,1.13,3.24,3.01c0.03,1.97-1.45,3.23-3.24,3.23
			c-2.32,0-4.91,0.05-7.23-0.01c-1.6-0.04-2.17,1.08-2.18,2.23c-0.01,1.17,0,2.41-0.03,3.66c-0.05,1.76-1.26,3.38-4.19,3.38
			c-3.04,0-4.09-1.48-4.13-3.38C0.39,21.14,0.46,17.54,0.46,14.29z"/>
		<path class="st0" d="M0.46,44.27c0-3.19,0-5.61,0-8.8c0-1.96,1.56-4.61,4.69-4.61c5.72,0,9.74-0.09,15.42,0
			c1.89,0.03,3.29,1.49,3.25,3.3c-0.04,1.89-1.53,3.18-3.3,3.19c-2.98,0.03-6.31-0.07-9.29-0.05c-1.74,0.02-2.5,0.88-2.44,2.51
			c0.08,1.82,0.91,2.42,2.44,2.43c2.38,0.02,4.62-0.01,7-0.01c1.59,0,3.21,1.13,3.24,3.01c0.03,1.97-1.45,3.23-3.24,3.23
			c-2.32,0-4.91,0.05-7.23-0.01c-1.6-0.04-2.17,1.08-2.18,2.23c-0.01,1.17,0,2.41-0.03,3.66c-0.05,1.76-1.26,3.38-4.19,3.38
			c-3.04,0-4.09-1.48-4.13-3.38C0.39,51.11,0.46,47.52,0.46,44.27z"/>
		<path class="st0" d="M54.05,35.52c-0.05-2.51-1.81-4.58-4.5-4.59c-2.85,0-4.63,2.01-4.64,4.56c-0.02,3.39,0.07,6.84,0.06,10.25
			c-0.01,2.92-0.03,4.1-2.66,4.1c-0.04,0-1.47,0-1.6,0c-2.63,0-2.66-1.18-2.66-4.1c-0.01-3.42,0.08-6.87,0.06-10.25
			c-0.01-2.56-1.79-4.56-4.64-4.56c-2.68,0-4.44,2.08-4.5,4.59c-0.05,2.32-0.02,9.26,0,9.26c0,2.46-0.03,2.79,0.3,5.2
			c0.2,1.46,1.48,3.57,2.54,4.55c2.51,2.31,7.12,3.05,9.37,3.05c2.25,0,7.53-0.73,10.04-3.05c1.06-0.98,2.34-3.09,2.54-4.55
			c0.32-2.41,0.3-2.74,0.3-5.2C54.07,44.78,54.09,37.84,54.05,35.52z"/>
		<path class="st0" d="M45.04,3.03l11.2,18.25c1.73,2.82-0.3,6.44-3.6,6.44h-22.4c-3.3,0-5.33-3.62-3.6-6.44l11.2-18.25
			C39.49,0.35,43.39,0.35,45.04,3.03z"/>
	</g>
	<g>
		<g>
			<g>
				<path class="st0" d="M60.78,4.84h-0.35v1.5c0,0.2-0.05,0.34-0.14,0.44c-0.09,0.09-0.21,0.14-0.36,0.14
					c-0.16,0-0.28-0.05-0.37-0.15c-0.09-0.1-0.13-0.24-0.13-0.43V2.75c0-0.2,0.05-0.35,0.14-0.44c0.09-0.09,0.25-0.14,0.46-0.14h1.6
					c0.22,0,0.41,0.01,0.57,0.03c0.16,0.02,0.3,0.05,0.43,0.11c0.15,0.06,0.29,0.15,0.4,0.26c0.12,0.11,0.21,0.25,0.27,0.4
					c0.06,0.15,0.09,0.31,0.09,0.48c0,0.35-0.1,0.63-0.31,0.83c-0.2,0.21-0.51,0.36-0.93,0.44c0.17,0.09,0.34,0.22,0.5,0.4
					c0.16,0.17,0.3,0.36,0.43,0.56c0.12,0.2,0.22,0.37,0.29,0.53s0.1,0.27,0.1,0.33c0,0.06-0.02,0.12-0.06,0.18
					c-0.04,0.06-0.1,0.11-0.17,0.14s-0.15,0.05-0.25,0.05c-0.11,0-0.2-0.02-0.28-0.08c-0.08-0.05-0.14-0.11-0.19-0.19
					c-0.05-0.08-0.13-0.19-0.22-0.34l-0.4-0.63c-0.14-0.23-0.27-0.41-0.38-0.53c-0.11-0.12-0.23-0.2-0.34-0.25
					C61.09,4.86,60.95,4.84,60.78,4.84z M61.34,2.88h-0.91v1.28h0.88c0.24,0,0.44-0.02,0.6-0.06C62.07,4.06,62.2,4,62.28,3.9
					c0.09-0.09,0.13-0.22,0.13-0.39c0-0.13-0.03-0.24-0.1-0.34c-0.07-0.1-0.16-0.17-0.29-0.22C61.9,2.9,61.68,2.88,61.34,2.88z"/>
			</g>
		</g>
		<path class="st0" d="M61.28,8.84c-2.37,0-4.29-1.93-4.29-4.29s1.93-4.29,4.29-4.29c2.37,0,4.29,1.93,4.29,4.29
			S63.65,8.84,61.28,8.84z M61.28,0.73c-2.11,0-3.82,1.71-3.82,3.82s1.71,3.82,3.82,3.82s3.82-1.71,3.82-3.82S63.39,0.73,61.28,0.73
			z"/>
	</g>
</g>
</svg>
