<?xml version="1.0" encoding="utf-8"?>
<!-- Generator: Adobe Illustrator 26.3.1, SVG Export Plug-In . SVG Version: 6.00 Build 0)  -->
<svg version="1.1" id="圖層_1" xmlns="http://www.w3.org/2000/svg" xmlns:xlink="http://www.w3.org/1999/xlink" x="0px" y="0px"
	 viewBox="0 0 109 63" style="enable-background:new 0 0 109 63;" xml:space="preserve">
<style type="text/css">
	.st0{fill:#FFFFFF;}
	.st1{fill:#A6A6A6;}
	.st2{fill:#B3B3B3;}
</style>
<g>
	<path class="st0" d="M35.74,57.95c-0.89,1.03-1.96,1.5-3.26,1.45c-1.55-0.05-2.6-0.99-2.81-2.53c-0.04-0.34-0.07-0.69-0.07-1.03
		c-0.01-1.62,0-3.25,0-4.87c0-0.11-0.01-0.22,0.01-0.32c0.05-0.28,0.21-0.45,0.51-0.45c0.31-0.01,0.49,0.16,0.54,0.46
		c0.02,0.14,0.01,0.29,0.01,0.43c0,1.65,0,3.3,0.01,4.94c0,0.3,0.04,0.6,0.11,0.88c0.32,1.38,1.61,1.72,2.8,1.45
		c1.33-0.31,2.16-1.38,2.16-2.74c0-1.55,0-3.1,0-4.66c0-0.11-0.01-0.22,0.01-0.32c0.03-0.28,0.2-0.43,0.47-0.44
		c0.29-0.01,0.48,0.12,0.54,0.41c0.02,0.09,0.01,0.19,0.01,0.29c0,2.52,0,5.04,0,7.56c0,1.12-0.27,2.16-1.05,3
		c-0.93,1.01-2.13,1.34-3.44,1.25c-0.61-0.04-1.21-0.24-1.81-0.4c-0.19-0.05-0.36-0.19-0.51-0.31c-0.22-0.18-0.21-0.42-0.08-0.65
		c0.14-0.24,0.35-0.26,0.59-0.17c0.23,0.1,0.45,0.21,0.68,0.31c0.68,0.29,1.39,0.36,2.11,0.24c1.36-0.23,2.3-1.29,2.43-2.72
		C35.72,58.66,35.73,58.3,35.74,57.95z"/>
	<path class="st0" d="M17.69,51.86c0-0.37-0.01-0.67,0-0.98c0.01-0.34,0.18-0.52,0.5-0.53c0.32,0,0.51,0.17,0.52,0.5
		c0.02,0.47,0.01,0.93,0.01,1.4c0,2.07,0,4.13,0,6.2c0,0.12,0.01,0.24-0.01,0.36c-0.05,0.3-0.24,0.43-0.53,0.42
		c-0.29-0.01-0.48-0.16-0.48-0.46c-0.01-0.35,0-0.7,0-1.15c-0.2,0.24-0.33,0.41-0.47,0.56c-1.71,1.83-4.54,1.61-5.98-0.47
		c-1.13-1.63-1.17-4.09-0.08-5.76c1.66-2.56,5.13-2.24,6.41-0.19C17.58,51.78,17.61,51.79,17.69,51.86z M17.76,54.45
		c-0.07-0.29-0.15-0.89-0.38-1.43c-0.94-2.21-3.81-2.59-5.22-0.7c-1.03,1.37-1.01,3.61,0.04,4.96c1.03,1.33,2.94,1.56,4.24,0.49
		C17.39,57,17.72,55.94,17.76,54.45z"/>
	<path class="st0" d="M1.59,54.79c-0.06,1.86,1.21,3.76,3.69,3.64c0.91-0.04,1.68-0.43,2.28-1.12c0.26-0.3,0.51-0.35,0.74-0.16
		c0.23,0.19,0.22,0.46-0.04,0.75c-1.26,1.42-2.83,1.82-4.61,1.31c-1.74-0.5-2.74-1.71-3.02-3.5c-0.24-1.58,0.03-3.05,1.11-4.29
		c1.1-1.25,2.87-1.64,4.45-1c1.52,0.61,2.53,2.17,2.46,3.81c-0.01,0.37-0.21,0.54-0.64,0.54c-1.36,0-2.72,0-4.08,0
		C3.16,54.79,2.39,54.79,1.59,54.79z M7.6,53.83c-0.06-0.97-0.5-1.71-1.3-2.19c-1.05-0.64-2.14-0.69-3.21-0.02
		c-0.81,0.51-1.26,1.25-1.41,2.21C3.68,53.83,5.62,53.83,7.6,53.83z"/>
	<path class="st0" d="M70.24,54.82c0.72-0.61,1.36-1.16,2-1.71c0.99-0.86,1.99-1.72,2.98-2.57c0.33-0.28,0.58-0.3,0.81-0.04
		c0.23,0.26,0.18,0.55-0.16,0.83c-1.01,0.86-2.02,1.72-3.03,2.57c-0.14,0.12-0.27,0.23-0.44,0.38c0.19,0.21,0.36,0.41,0.55,0.61
		c1.04,1.12,2.09,2.23,3.13,3.35c0.32,0.34,0.32,0.66,0.03,0.89c-0.25,0.19-0.48,0.16-0.75-0.12c-1.06-1.12-2.11-2.24-3.17-3.36
		c-0.2-0.21-0.42-0.42-0.64-0.64c-0.4,0.34-0.79,0.66-1.17,1.01c-0.09,0.08-0.12,0.25-0.13,0.38c-0.01,0.72-0.01,1.43-0.01,2.15
		c0,0.51-0.13,0.7-0.5,0.7c-0.38,0-0.53-0.2-0.53-0.72c0-3.47,0-6.95,0-10.42c0-0.38-0.01-0.76,0-1.15
		c0.01-0.39,0.19-0.59,0.52-0.59c0.32,0,0.51,0.21,0.51,0.6c0,2.47,0,4.94,0,7.41C70.24,54.48,70.24,54.6,70.24,54.82z"/>
	<path class="st0" d="M52.22,59.4c-2.55,0-4.41-1.95-4.42-4.62c0-2.67,1.87-4.65,4.4-4.65c2.54,0,4.42,1.98,4.42,4.66
		C56.61,57.45,54.74,59.4,52.22,59.4z M48.83,54.76c0.04,0.33,0.06,0.67,0.13,0.99c0.6,2.57,3.62,3.57,5.48,1.83
		c1.4-1.31,1.52-3.86,0.26-5.32c-1.32-1.52-3.59-1.55-4.92-0.06C49.13,52.92,48.84,53.79,48.83,54.76z"/>
	<path class="st0" d="M62.52,59.4c-2.54,0-4.4-1.97-4.39-4.64c0.01-2.66,1.88-4.63,4.42-4.63c2.55,0,4.4,1.99,4.39,4.72
		C66.93,57.46,65.04,59.41,62.52,59.4z M59.15,54.77c0.04,0.33,0.06,0.67,0.13,0.99c0.6,2.55,3.59,3.56,5.46,1.84
		c1.44-1.32,1.55-3.95,0.24-5.4c-1.34-1.47-3.56-1.47-4.87,0C59.45,52.93,59.16,53.79,59.15,54.77z"/>
	<path class="st0" d="M24.38,59.41c-1.4,0.01-2.51-0.45-3.36-1.47c-0.17-0.21-0.36-0.45-0.13-0.73c0.23-0.29,0.59-0.28,0.85,0.04
		c0.48,0.58,1.05,1,1.79,1.18c0.78,0.18,1.54,0.16,2.26-0.25c0.47-0.27,0.7-0.67,0.7-1.21c0-0.53-0.24-0.94-0.72-1.15
		c-0.53-0.23-1.1-0.4-1.64-0.6c-0.61-0.23-1.24-0.44-1.82-0.73c-1.41-0.71-1.37-2.64-0.35-3.56c1.35-1.21,4.04-1,5.15,0.44
		c0.18,0.23,0.18,0.48-0.05,0.67c-0.22,0.19-0.47,0.16-0.67-0.06c-0.64-0.68-1.44-0.98-2.36-0.9c-0.38,0.03-0.78,0.13-1.12,0.31
		c-0.92,0.48-0.97,1.74-0.07,2.24c0.53,0.3,1.14,0.46,1.73,0.67c0.5,0.18,1.03,0.3,1.52,0.52c0.77,0.34,1.26,0.92,1.34,1.79
		c0.09,0.95-0.21,1.71-1.03,2.24C25.77,59.26,25.06,59.42,24.38,59.41z"/>
	<path class="st0" d="M43.22,59.4c-2.44,0-4.24-1.73-4.37-4.19c-0.09-1.69,0.4-3.12,1.76-4.21c1.53-1.23,3.95-0.99,5.12-0.32
		c0.21,0.12,0.4,0.3,0.54,0.5c0.17,0.24,0.14,0.51-0.1,0.71c-0.22,0.18-0.46,0.13-0.65-0.04c-1.14-1-2.43-0.96-3.68-0.38
		c-1.33,0.62-1.92,1.79-1.95,3.25c-0.02,1.04,0.28,1.95,1,2.71c1.24,1.33,3.55,1.26,4.6,0.26c0.32-0.3,0.59-0.3,0.79-0.07
		c0.18,0.21,0.14,0.54-0.14,0.8c-0.76,0.71-1.7,0.93-2.7,0.98C43.37,59.41,43.29,59.4,43.22,59.4z"/>
	<path class="st0" d="M44.72,9.69c0.06,0.95-0.19,1.85-0.67,2.68c-0.8,1.41-1.77,2.69-3.06,3.7c-0.51,0.39-1.02,0.33-1.27-0.18
		c-0.1-0.2-0.1-0.49-0.06-0.72c0.26-1.36,0.82-2.6,1.64-3.7c0.57-0.76,1.23-1.46,1.86-2.17c0.31-0.35,0.71-0.55,1.18-0.62
		c0.23-0.03,0.4,0.01,0.38,0.31C44.71,9.21,44.72,9.44,44.72,9.69z"/>
	<path class="st0" d="M60.81,11.59c-0.32,0.04-0.42-0.06-0.41-0.4c0.08-1.66,0.79-3.02,1.93-4.18c0.72-0.73,1.43-1.47,2.32-2.01
		c0.16-0.1,0.32-0.21,0.49-0.3c0.3-0.17,0.61-0.2,0.9,0.03c0.3,0.24,0.39,0.57,0.26,0.96c-0.44,1.35-1.18,2.53-2.15,3.55
		c-0.64,0.67-1.37,1.25-2.08,1.85C61.71,11.4,61.3,11.61,60.81,11.59z"/>
	<path class="st0" d="M58.55,15.44c-1.36-0.01-2.68-0.29-3.91-0.86c-0.76-0.35-1.5-0.77-2.24-1.18c-0.41-0.22-0.7-0.57-0.87-1.01
		c-0.08-0.23-0.06-0.35,0.22-0.44c1.6-0.52,3.14-0.37,4.67,0.29c0.95,0.41,1.91,0.82,2.74,1.45c0.18,0.14,0.36,0.27,0.52,0.43
		c0.21,0.21,0.29,0.46,0.18,0.75c-0.11,0.3-0.3,0.53-0.63,0.57C59.01,15.46,58.78,15.44,58.55,15.44z"/>
	<path class="st0" d="M48.94,21.76c-0.68-0.01-1.04-0.65-0.77-1.19c0.66-1.33,1.59-2.44,2.77-3.33c0.74-0.56,1.54-1.03,2.33-1.52
		c0.38-0.24,0.8-0.3,1.24-0.25c0.27,0.03,0.37,0.13,0.31,0.42c-0.31,1.58-1.14,2.83-2.4,3.82c-0.9,0.7-1.79,1.39-2.85,1.83
		C49.33,21.64,49.08,21.72,48.94,21.76z"/>
	<path class="st0" d="M67.77,9.63c0.13-0.41,0.21-0.73,0.33-1.03c0.08-0.2,0.22-0.24,0.43-0.11c1.36,0.8,2.28,1.95,2.8,3.44
		c0.43,1.22,0.8,2.44,0.85,3.74c0.02,0.56-0.2,0.83-0.7,0.91c-0.3,0.05-0.53-0.07-0.73-0.28c-1.01-1.06-1.75-2.3-2.2-3.68
		C68.23,11.62,68.02,10.59,67.77,9.63z"/>
	<path class="st0" d="M52.16,1.62c0.02,1.14-0.47,2.34-1.32,3.41c-0.74,0.93-1.51,1.85-2.5,2.55c-0.16,0.11-0.31,0.23-0.47,0.33
		c-0.3,0.19-0.61,0.28-0.93,0.04C46.6,7.7,46.51,7.4,46.63,6.96C47,5.6,47.66,4.39,48.57,3.33C49.16,2.64,49.83,2,50.5,1.39
		c0.28-0.25,0.65-0.44,1.02-0.55C52.14,0.66,52.19,0.74,52.16,1.62z"/>
	<path class="st0" d="M61.62,17.1c-0.38-0.12-0.69-0.2-0.98-0.32c-0.24-0.1-0.28-0.26-0.13-0.51c0.88-1.42,2.16-2.28,3.75-2.75
		c1.02-0.3,2.03-0.61,3.1-0.64c0.18-0.01,0.36-0.01,0.54-0.01c0.33,0.01,0.58,0.14,0.69,0.46c0.12,0.34,0.09,0.66-0.19,0.92
		c-1.14,1.04-2.46,1.77-3.94,2.19C63.52,16.71,62.54,16.89,61.62,17.1z"/>
	<path class="st0" d="M72.18,20.26c-2.16-0.04-4.2-0.49-6.04-1.69c-0.26-0.17-0.43-0.36-0.43-0.69c0-0.5,0.19-0.8,0.69-0.82
		c0.9-0.04,1.81-0.07,2.71,0c1.02,0.08,2.03,0.28,2.98,0.69c0.87,0.37,1.5,1.04,2.14,1.7c0.18,0.18,0.03,0.34-0.11,0.4
		c-0.35,0.16-0.71,0.31-1.09,0.39C72.76,20.31,72.47,20.26,72.18,20.26z"/>
	<path class="st0" d="M56.66,20.48c-0.41-0.06-0.58-0.34-0.65-0.71c-0.07-0.37,0.12-0.62,0.43-0.79c1-0.54,2.07-0.88,3.19-1.1
		c1.06-0.21,2.12-0.39,3.18-0.11c0.6,0.16,1.18,0.44,1.76,0.68c0.28,0.11,0.15,0.31,0.05,0.47c-0.23,0.36-0.55,0.61-0.95,0.77
		c-1.44,0.6-2.93,0.98-4.5,1.02C59.17,20.75,57.49,20.6,56.66,20.48z"/>
	<path class="st0" d="M59.56,3.56c-1.9-0.06-3.68-0.53-5.36-1.39c-0.32-0.16-0.59-0.47-0.82-0.76c-0.22-0.27-0.15-0.37,0.17-0.53
		c1.55-0.78,3.13-0.75,4.77-0.3c1.1,0.3,2.16,0.66,3.14,1.24c0.49,0.29,0.63,0.64,0.39,1.07c-0.11,0.19-0.34,0.4-0.55,0.44
		C60.73,3.46,60.14,3.5,59.56,3.56z"/>
	<path class="st0" d="M55.1,5.77c0.07-0.35,0.21-1.01,0.34-1.67c0.06-0.27,0.28-0.24,0.42-0.15c0.32,0.2,0.68,0.39,0.89,0.69
		c1.41,2.02,2.25,4.24,2.22,6.73c0,0.31-0.08,0.59-0.36,0.77c-0.39,0.26-0.75,0.22-1.07-0.16c-0.72-0.85-1.25-1.82-1.67-2.85
		C55.46,8.15,55.1,7.17,55.1,5.77z"/>
	<path class="st0" d="M45.67,13.13c-0.15-0.02-0.42,0.01-0.64-0.08c-0.54-0.22-0.65-0.93-0.17-1.33c0.61-0.5,1.24-0.97,1.92-1.36
		c1.06-0.6,2.16-1.13,3.38-1.31c0.85-0.13,1.66,0.05,2.48,0.22c0.26,0.05,0.21,0.29,0.13,0.43c-0.18,0.31-0.36,0.67-0.63,0.88
		C50.27,12.04,48.17,12.97,45.67,13.13z"/>
	<path class="st0" d="M41.21,19.74c-0.67-0.09-1.34-0.17-2.01-0.29c-0.48-0.08-0.7-0.31-0.77-0.73c-0.06-0.36,0.08-0.6,0.52-0.84
		c1.1-0.6,2.3-0.9,3.52-1.14c1.58-0.32,3.08-0.16,4.5,0.63c0.27,0.15,0.22,0.3,0.1,0.49c-0.23,0.36-0.55,0.61-0.95,0.78
		C44.55,19.3,42.92,19.67,41.21,19.74z"/>
	<g>
		<path class="st1" d="M85.01,57.66c-0.12,0.15-0.24,0.31-0.37,0.46c-1.47,1.65-3.95,1.72-5.52,0.16c-1.8-1.78-1.81-5.21-0.02-7
			c1.69-1.69,4.38-1.49,5.8,0.42c0.03,0.05,0.07,0.09,0.19,0.22c0-0.4,0-0.7,0-1c0.01-0.38,0.17-0.56,0.49-0.56
			c0.32,0,0.49,0.18,0.5,0.56c0,2.58,0,5.16,0,7.74c0,0.37-0.18,0.56-0.5,0.56c-0.32,0-0.48-0.19-0.49-0.57c0-0.32,0-0.64,0-0.96
			C85.06,57.68,85.04,57.67,85.01,57.66z M82.03,51.11c-0.94-0.02-1.66,0.31-2.25,0.92c-1.07,1.1-1.33,3.1-0.59,4.62
			c0.56,1.16,1.49,1.81,2.78,1.8c1.28,0,2.19-0.66,2.75-1.79c0.42-0.84,0.5-1.73,0.38-2.65C84.86,52.32,83.55,51.11,82.03,51.11z"/>
		<path class="st1" d="M107.41,57.62c-0.17,0.21-0.31,0.39-0.46,0.55c-1.89,2.02-5.03,1.5-6.3-1.05c-0.96-1.93-0.59-4.45,0.86-5.88
			c1.64-1.62,4.35-1.41,5.72,0.45c0.04,0.06,0.09,0.11,0.21,0.25c0-0.4,0-0.7,0-1c0.01-0.38,0.17-0.56,0.49-0.56
			c0.32,0,0.49,0.18,0.49,0.56c0,2.58,0,5.16,0,7.74c0,0.37-0.18,0.56-0.5,0.56c-0.32,0-0.48-0.19-0.49-0.57c0-0.3,0-0.6,0-0.9
			C107.45,57.73,107.44,57.71,107.41,57.62z M104.33,51.11c-1.08,0-1.99,0.47-2.55,1.38c-0.83,1.34-0.86,2.76-0.21,4.17
			c0.53,1.15,1.47,1.79,2.74,1.79c1.26,0.01,2.17-0.63,2.75-1.74c0.44-0.86,0.53-1.77,0.4-2.71
			C107.21,52.32,105.91,51.11,104.33,51.11z"/>
		<path class="st1" d="M91.76,59.38c-1.39,0.02-2.48-0.43-3.33-1.44c-0.17-0.2-0.36-0.41-0.17-0.7c0.21-0.31,0.6-0.31,0.87,0.02
			c0.56,0.68,1.27,1.12,2.15,1.24c0.68,0.09,1.33,0.03,1.94-0.33c0.92-0.55,0.92-1.84-0.02-2.34c-0.51-0.27-1.09-0.41-1.63-0.62
			c-0.62-0.24-1.26-0.44-1.85-0.74c-1.43-0.71-1.36-2.7-0.27-3.6c1.37-1.13,3.9-0.91,5.04,0.48c0.19,0.23,0.2,0.47-0.02,0.67
			c-0.24,0.21-0.48,0.13-0.69-0.09c-0.81-0.82-1.8-1.04-2.9-0.8c-0.5,0.11-0.94,0.35-1.16,0.87c-0.27,0.64-0.09,1.31,0.53,1.64
			c0.54,0.28,1.14,0.46,1.73,0.67c0.5,0.18,1.03,0.3,1.52,0.52c0.76,0.33,1.25,0.9,1.34,1.76c0.1,0.96-0.2,1.74-1.05,2.27
			C93.13,59.25,92.43,59.41,91.76,59.38z"/>
		<path class="st1" d="M96.97,54.69c0-1.3,0-2.6,0-3.9c0-0.39,0.15-0.56,0.48-0.57c0.31-0.01,0.49,0.15,0.52,0.46
			c0.01,0.14,0.01,0.29,0.01,0.43c0,2.41,0,4.82,0,7.23c0,0.12,0,0.24,0,0.36c-0.02,0.35-0.19,0.53-0.5,0.53
			c-0.31,0-0.49-0.18-0.5-0.52c-0.01-0.88-0.01-1.77-0.01-2.65C96.97,55.6,96.97,55.14,96.97,54.69z"/>
		<path class="st1" d="M99.33,44.86c0.12,0.67,0.15,1.33-0.1,1.96c-0.4,1.01-0.99,1.9-1.77,2.65c-0.19,0.19-0.4,0.32-0.67,0.18
			c-0.26-0.13-0.26-0.37-0.24-0.62c0.08-0.8,0.35-1.53,0.77-2.21c0.32-0.52,0.71-1.01,1.09-1.5C98.62,45.06,98.91,44.87,99.33,44.86
			z"/>
	</g>
	<path class="st2" d="M36.85,23.41h39.02c0,0,0.29,5.39-2.9,10.46c-3.28,5.48-9.09,7.59-9.09,7.59v2.33H49v-2.3
		c0,0-5.88-2.3-8.64-6.95C37.71,30.07,37.04,27.84,36.85,23.41z"/>
</g>
</svg>
