<?xml version="1.0" encoding="utf-8"?>
<!-- Generator: Adobe Illustrator 26.3.1, SVG Export Plug-In . SVG Version: 6.00 Build 0)  -->
<svg version="1.1" id="圖層_1" xmlns="http://www.w3.org/2000/svg" xmlns:xlink="http://www.w3.org/1999/xlink" x="0px" y="0px"
	 viewBox="0 0 155.67 35" style="enable-background:new 0 0 155.67 35;" xml:space="preserve">
<style type="text/css">
	.st0{fill:#393939;}
	.st1{fill:#C4C4C4;}
</style>
<path class="st0" d="M0.5,0.41c0,11.49,0,22.94,0,34.42c0.43,0,0.84,0,1.25,0c38.69,0,77.38,0,116.07,0.01
	c0.38,0,0.58-0.1,0.76-0.44c6.02-11.17,11.86-22.34,17.9-33.5c0.09-0.16,0.2-0.31,0.31-0.49C91.29,0.41,46.01,0.41,0.5,0.41z"/>
<g>
	<polygon class="st1" points="10.7,4.75 8.35,4.75 8.35,9.36 5.97,9.36 5.97,11.67 8.35,11.67 8.35,13.58 5.69,18.51 5.27,18.51 
		6.54,20.92 7.18,20.92 8.35,18.58 8.35,30.67 10.7,30.67 10.7,17.9 11.72,19.82 12.89,17.51 10.7,13.23 10.7,11.67 13.03,11.67 
		13.03,9.36 10.7,9.36 	"/>
	<polygon class="st1" points="36.39,14.01 36.39,11.84 39.68,11.84 39.68,9.36 36.51,9.36 36.51,4.75 34.08,4.75 34.08,9.36 
		30.89,9.36 30.89,11.84 34.08,11.84 34.08,14.22 30.89,20.53 30.18,20.53 31.46,22.94 32.21,22.94 34.08,19.5 34.08,30.67 
		36.39,30.67 36.39,18.68 38.02,21.7 39.38,19.39 	"/>
	<polygon class="st1" points="45.92,14.66 45.92,11.84 49.96,11.84 49.96,9.36 46.05,9.36 46.05,4.75 43.62,4.75 43.62,9.36 
		40.43,9.36 40.43,11.84 43.62,11.84 43.62,14.57 40.23,21.08 39.22,21.08 40.43,23.42 41.63,23.42 43.62,19.62 43.62,30.67 
		45.92,30.67 45.92,19.34 48.01,23.33 50.6,23.33 50.6,20.9 49.31,20.9 	"/>
	<path class="st1" d="M21.75,4.75h-2.66l-2.23,4.22H13.6v21.62h11.06V8.94h-5.1L21.75,4.75z M22.21,28.15h-6.27v-7.73h6.27V28.15z
		 M22.21,11.42v6.49h-6.27v-6.49H22.21z"/>
	<polygon class="st1" points="66.97,28.03 65.48,25.24 73.96,9.15 66.49,9.15 66.49,4.78 63.97,4.78 63.97,9.15 56.76,9.15 
		56.76,11.75 69.61,11.75 64.08,22.43 62,18.63 57.16,28.01 55.2,28.01 56.57,30.68 58.62,30.68 62.03,24.08 65.48,30.65 
		74.88,30.63 74.86,27.98 	"/>
	<path class="st1" d="M94.77,28.05v-12.7h4.63v-2.59H86.7V8.68h6.49l2.07-3.93h-3.03l-0.69,1.47H84.1v21.87h-3.37v2.59h19.12v-2.63
		H94.77z M92.09,28.07H86.7V15.33h5.39V28.07z"/>
</g>
<polygon class="st1" points="136.76,0.38 155.37,34.78 118.14,34.78 "/>
</svg>
