<?xml version="1.0" encoding="utf-8"?>
<!-- Generator: Adobe Illustrator 26.3.1, SVG Export Plug-In . SVG Version: 6.00 Build 0)  -->
<svg version="1.1" id="圖層_1" xmlns="http://www.w3.org/2000/svg" xmlns:xlink="http://www.w3.org/1999/xlink" x="0px" y="0px"
	 viewBox="0 0 144.28 74.89" style="enable-background:new 0 0 144.28 74.89;" xml:space="preserve">
<style type="text/css">
	.st0{fill:#FFFFFF;}
</style>
<g>
	<g>
		<path class="st0" d="M26.68,14.64c-0.79,0-1.4-0.11-1.91-0.35c0,0-1.26-0.84-3.74-2.53h10.72L34.4,8.6h-13.9V6.11h-4.21V8.6H5.27
			l-2.63,3.14v0.02h13.1c-2.3,1.68-3.42,2.53-3.42,2.53c-0.43,0.25-0.97,0.35-1.65,0.35H2.21v2.87h9.57c1.48,0,2.59-0.31,3.31-0.98
			l3.31-2.59l3.06,2.59c0.83,0.67,2.2,0.98,4.1,0.98h9.28v-2.87H26.68z"/>
		<polygon class="st0" points="33.67,19.97 20.49,19.97 20.49,17.51 16.43,17.51 16.43,19.97 6.09,19.97 3.45,22.99 16.43,22.99 
			16.43,25.58 20.49,25.58 20.49,22.99 31.14,22.99 		"/>
		<rect x="26.97" y="24.64" class="st0" width="3.92" height="2.06"/>
		<rect x="6.71" y="24.64" class="st0" width="3.81" height="2.06"/>
		<path class="st0" d="M4.27,27.77l-2.06,2.9h4.48v3.69H2.5v3.16l5.45,0.01l2.56-3.15c0.01-0.05,0-3.71,0-3.71h16.45v7.4l3.92-4.01
			v-3.39h1.17l2.43-2.9H4.27z"/>
		<polygon class="st0" points="141.29,20.56 137.69,17.26 130.47,17.26 130.47,17.26 126.41,17.26 126.41,17.26 117.63,17.26 
			114.32,20.88 114.32,26.7 118.24,26.7 118.24,20.56 126.41,20.56 126.41,26.7 130.47,26.7 130.47,20.56 		"/>
		<polygon class="st0" points="126.41,12.08 126.41,16.29 130.47,16.29 130.47,12.08 141.36,12.08 141.36,8.81 120.02,8.81 
			121.87,6.46 117.38,6.46 113.59,11.41 113.59,17 117.46,12.08 		"/>
		<polygon class="st0" points="110.5,30.37 126.41,30.37 126.41,37.14 130.47,37.14 130.47,30.37 142.85,30.37 142.85,27.67 
			110.5,27.67 		"/>
		<polygon class="st0" points="42.52,26.7 42.52,23.48 39.82,26.7 		"/>
		<path class="st0" d="M48.13,27.77h-3.38v6.51h-1.69c-0.36,0-0.54-0.18-0.54-0.53v-5.99h-3.24v7.74c0,1.19,0.61,1.79,1.83,1.79
			h10.4v-3.02h-3.38V27.77z"/>
		<path class="st0" d="M56.83,26.7V16.41h3.67v9.95c0,0.14-0.03,0.25-0.07,0.35h3.45V13.39H53.34V26.7H56.83z"/>
		<path class="st0" d="M57.55,33.86c-0.5,0-0.72-0.18-0.72-0.53v-3.16h4.79c1.51,0,2.27-0.67,2.27-2.07v-0.34H53.34v7.08
			c0,1.54,0.79,2.31,2.38,2.31h15.19l-3.61-3.3H57.55z"/>
		<path class="st0" d="M65,27.77v2.97h2.23c2.16,0,3.24-0.91,3.24-2.78v-0.2H65z"/>
		<polygon class="st0" points="69.76,7.83 59.05,7.83 59.79,6.88 55.3,6.88 51.51,11.83 51.51,17.43 56.57,10.99 66.19,10.99 		"/>
		<polygon class="st0" points="66.84,11.71 66.84,26.7 70.47,26.7 70.47,8.49 		"/>
		<path class="st0" d="M48.13,23.76v-2.91h0.14c1.58,0,2.38-0.84,2.38-2.6V6.88h-7.84l-2.56,3.06v10.38L43.63,17V9.9h3.67v6.98
			c0,0.63-0.25,0.95-0.72,0.95h-2.41l-3.08,3.02h3.66v5.85h6.33v-2.94H48.13z"/>
		<polygon class="st0" points="94.23,6.39 90.16,6.39 90.16,27.41 85.02,27.41 85.02,30.85 91.61,30.85 94.23,27.18 		"/>
		<path class="st0" d="M100.62,26.95l-3.4,5.58c-0.61,1.05-1.4,1.05-2.41,1.05H79.71l-3.18,3.48v0.09h20.51
			c1.37,0,2.37-0.56,3.02-1.65l5.6-8.56H100.62z"/>
		<path class="st0" d="M83.74,22.92c0.04-0.2,2.06-14.04,2.06-14.04h-4.1l-1.52,14.1h-4.09v3.99h4.94L83.74,22.92z"/>
		<path class="st0" d="M104.11,20.59l-2.39-11.85h-3.97l2.41,12.06l2.51,3.19c0.09,0.01,5.34,0,5.34,0v-3.4H104.11z"/>
	</g>
	<g>
		<path class="st0" d="M37.93,49.5c-0.42,1.21-0.67,1.77-1.25,2.87l-0.14-0.14c0.79-2.09,1.67-5.56,1.99-7.96l0.7,0.32
			c0.09,0.03,0.16,0.13,0.16,0.22c0,0.14-0.08,0.23-0.24,0.28c-0.25,1.11-0.38,1.6-0.56,2.27v10.2h-0.66V49.5z M39.88,50.07v-2.72
			c-0.3,0.28-0.61,0.55-0.89,0.77l-0.11-0.2c0.95-1.02,1.72-2.23,2.35-3.65l0.61,0.25c0.04,0.03,0.1,0.12,0.1,0.19
			c0,0.11-0.06,0.19-0.31,0.28c-0.14,0.24-0.23,0.39-0.25,0.43h3.39c-0.4,0.63-0.83,1.13-1.55,1.82H46v2.83h-2.93
			c-0.4,0.44-0.42,0.45-0.84,0.86c0.6,0.55,1.05,1.3,1.3,2.15c0.56-0.58,1.37-1.67,1.72-2.3l0.47,0.47c0.09,0.1,0.14,0.17,0.14,0.26
			c0,0.12-0.07,0.2-0.17,0.22c-0.04,0-0.1,0-0.23,0.01c-0.61,0.63-1.04,1.03-1.49,1.37c0.74,1.15,1.59,1.96,2.6,2.49
			c-0.18,0.36-0.2,0.44-0.34,0.83c-0.98-0.67-1.73-1.64-2.43-3.18c-0.03,0.01-0.09,0.06-0.19,0.15c0.13,0.49,0.22,1.17,0.22,1.81
			c0,0.76-0.08,1.53-0.19,1.8c-0.16,0.39-0.43,0.55-0.92,0.55h-1.05v-0.49h0.77c0.3,0,0.42-0.06,0.55-0.27
			c0.08-0.13,0.11-0.24,0.16-0.56c0.04-0.35,0.08-0.92,0.08-1.28c0-0.16-0.01-0.35-0.02-0.66c-1.07,1.12-2.53,2.04-4.1,2.59
			l-0.07-0.27c1.42-0.67,2.89-1.8,4.05-3.14c-0.08-0.45-0.13-0.64-0.27-1c-0.99,0.99-1.96,1.63-3.43,2.22l-0.08-0.25
			c1.4-0.81,2.44-1.63,3.25-2.56c-0.17-0.32-0.37-0.64-0.5-0.82c-0.75,0.66-1.9,1.36-2.8,1.69l-0.09-0.29c1-0.51,2.47-1.66,3.09-2.4
			H39.88z M41.09,45.88c-0.42,0.61-0.67,0.93-1.09,1.35h2.87c0.32-0.49,0.54-0.89,0.78-1.35H41.09z M42.59,47.7h-2.12v1.91h2.12
			V47.7z M45.4,47.7h-2.21v1.91h2.21V47.7z"/>
		<path class="st0" d="M71.68,50.75h3.53v1.92h0.83l0.42-0.11v0.69l-0.42-0.12h-0.83v2.58h-0.66v-0.55h-2.87v1.4
			c0,0.44-0.06,0.64-0.22,0.83c-0.17,0.2-0.33,0.26-0.69,0.26h-1.2v-0.49h0.95c0.36,0,0.5-0.2,0.5-0.68v-1.31h-3.21l-0.43,0.11
			v-0.69l0.43,0.11h3.21v-1.56h-4.19l-0.41,0.12v-0.69l0.41,0.11h4.19v-1.45h-3.22l-0.41,0.12v-0.7l0.41,0.11h3.22v-1.19h-3.34
			v-2.44h3.34v-1.19H66.9l-0.42,0.12v-0.7l0.42,0.12h4.12v-1.2h0.6c0.15,0,0.23,0.06,0.23,0.19c0,0.09-0.03,0.13-0.17,0.28v0.73
			h4.28l0.42-0.12v0.7l-0.42-0.12h-4.28v1.19h3.39v2.44h-3.39V50.75z M71.03,47.59h-2.68v1.51h2.68V47.59z M74.41,47.59h-2.73v1.51
			h2.73V47.59z M74.55,51.22h-2.87v1.45h2.87V51.22z M71.68,54.69h2.87v-1.56h-2.87V54.69z"/>
		<path class="st0" d="M96.77,50.13l-0.41,0.11v-0.69l0.41,0.12h4.1c-0.39,1.22-0.78,2.01-1.44,2.88l-0.15-0.14
			c0.23-0.52,0.6-1.67,0.72-2.28h-0.98v6.15c0,0.45-0.05,0.65-0.21,0.86c-0.15,0.22-0.31,0.28-0.65,0.28H97.1v-0.5h0.79
			c0.36,0,0.52-0.19,0.52-0.68v-4.75c-0.66,2-1.13,2.96-1.97,3.99l-0.13-0.19c0.71-1.15,1.55-3.45,1.88-5.16H96.77z M97.05,46.84
			c0.76,0.5,0.99,0.66,1.32,0.93c0.73-1.3,0.81-1.44,1.2-2.38H96.9l-0.42,0.11v-0.7l0.42,0.12h3.66c-0.62,1.28-1.06,1.95-2,3.02
			c0.2,0.19,0.34,0.35,0.73,0.84l-0.57,0.64c-0.49-0.83-1.02-1.54-1.82-2.41L97.05,46.84z M100.85,53.16l-0.41,0.11v-0.7l0.41,0.12
			h1.73c0.03-0.46,0.06-0.9,0.07-1.48l0.65,0.06c0.1,0,0.18,0.09,0.18,0.19c0,0.08-0.07,0.19-0.2,0.3c-0.02,0.5-0.03,0.66-0.05,0.93
			h2.43c-0.05,1.98-0.18,3.42-0.34,4.14c-0.1,0.42-0.33,0.59-0.84,0.59h-1.34v-0.5h1.05c0.27,0,0.41-0.07,0.48-0.28
			c0.12-0.33,0.24-1.6,0.33-3.48h-1.81c-0.28,2.41-1.21,3.63-3.3,4.34l-0.07-0.25c1.64-0.88,2.5-2.16,2.73-4.09H100.85z
			 M105.32,46.5c-0.44,1.25-0.92,2.27-1.48,3.05c0.77,0.71,1.45,1.14,2.5,1.54c-0.19,0.4-0.22,0.47-0.35,0.89
			c-0.8-0.3-1.83-1.09-2.55-1.91c-0.6,0.74-1.81,1.55-3.05,2.03l-0.05-0.26c1.11-0.58,1.92-1.27,2.71-2.27
			c-0.51-0.74-0.88-1.66-1.18-2.91c-0.64,1.18-0.79,1.39-1.35,1.94l-0.14-0.22c0.7-1.01,1.27-2.39,1.68-4.1l0.67,0.21
			c0.1,0.04,0.18,0.14,0.18,0.24c0,0.16-0.09,0.25-0.31,0.31c-0.19,0.51-0.26,0.69-0.41,1h3.66l0.41-0.12v0.7l-0.41-0.12H105.32z
			 M102.1,46.5c0.34,1.18,0.77,2.02,1.3,2.6c0.46-0.71,0.83-1.47,1.2-2.6H102.1z"/>
		<path class="st0" d="M132.35,47.8v4.43h-3.08c-0.1,2.65-0.39,3.8-1.32,5.03l-0.15-0.17c0.36-0.79,0.53-1.38,0.66-2.31
			c0.09-0.64,0.11-1.13,0.14-2.5c0.01-0.8,0.03-2.15,0.03-2.58v-1.9H132.35z M128.15,45.6v-0.7l0.42,0.11h3.73l0.42-0.11v0.7
			l-0.42-0.11h-3.73L128.15,45.6z M129.29,49.71c0,1,0,1.69-0.01,2.06h2.41v-3.5h-2.4V49.71z M133.9,49.75
			c-0.03,2.85-0.13,3.79-0.52,4.94c-0.44,1.19-1.25,2.21-2.29,2.86l-0.14-0.24c0.61-0.5,0.91-0.86,1.3-1.56
			c0.56-0.98,0.81-1.94,0.91-3.46c0.05-0.76,0.09-2.78,0.09-4.7v-2.46l0.6,0.3c0.81-0.17,2.22-0.64,3.04-0.99l0.52,0.6
			c0.04,0.04,0.05,0.09,0.05,0.14c0,0.08-0.07,0.16-0.17,0.16c-0.06,0-0.14-0.01-0.27-0.06c-1.11,0.29-1.88,0.42-3.1,0.51v1.8
			l-0.01,1.69h3.5l0.42-0.12v0.7l-0.42-0.12h-0.9v7.81h-0.66v-7.81H133.9z"/>
		<path class="st0" d="M7.24,56.94c0.6-0.52,1.26-1.45,1.59-2.21l0.34,0.66c0.03,0.06,0.04,0.11,0.04,0.2
			c0,0.13-0.04,0.23-0.11,0.23c-0.04,0-0.06-0.01-0.15-0.07c-0.47,0.67-1.05,1.17-1.69,1.44L7.24,56.94z M7.87,48.81v-4.04h4.44
			v4.04h-1.97V50h2.35l0.24-0.11v0.68l-0.24-0.11H7.51l-0.24,0.11v-0.68L7.51,50h2.36v-1.19H7.87z M10.43,54.3v1.97
			c0,0.46-0.04,0.67-0.12,0.87c-0.09,0.2-0.25,0.27-0.45,0.27H9.18v-0.49h0.51c0.2,0,0.21-0.19,0.21-0.67V54.3H7.83v-2.65h4.55v2.65
			H10.43z M8.4,46.52h3.41v-1.29H8.4V46.52z M11.81,46.98H8.4v1.38h3.41V46.98z M11.81,52.11H8.4v1.74h3.4V52.11z M11.17,54.95
			c0.6,0.27,1.19,0.76,1.68,1.35l-0.26,0.9c-0.56-0.94-0.86-1.34-1.48-2.01L11.17,54.95z"/>
		<path class="st0" d="M13.23,56.97c1.36-0.82,2.54-2.23,3.47-4.12l0.47,0.57c0.02,0.03,0.04,0.08,0.04,0.14
			c0,0.15-0.11,0.26-0.31,0.29c-1.1,1.86-2.38,3.05-3.62,3.34L13.23,56.97z M13.4,47.91c0.95-0.64,2.06-1.84,2.77-2.96l0.44,0.63
			c0.03,0.03,0.04,0.07,0.04,0.11c0,0.16-0.12,0.24-0.34,0.26c-0.96,1.09-1.94,1.86-2.86,2.21L13.4,47.91z M13.47,52.08
			c1.08-0.79,2.02-1.89,2.82-3.29l0.44,0.63c0.03,0.03,0.03,0.07,0.03,0.13c0,0.17-0.1,0.26-0.32,0.27
			c-0.94,1.26-1.91,2.1-2.91,2.52L13.47,52.08z"/>
	</g>
	<g>
		<path class="st0" d="M11.66,68.67h-1.19l-1.51-2.18c-0.11,0-0.2,0.01-0.27,0.01c-0.03,0-0.06,0-0.09,0c-0.03,0-0.07,0-0.1-0.01
			v1.35c0,0.29,0.03,0.48,0.09,0.55c0.08,0.1,0.21,0.15,0.37,0.15h0.17v0.13H7.24v-0.13H7.4c0.19,0,0.32-0.06,0.4-0.19
			c0.05-0.07,0.07-0.24,0.07-0.51v-3.01c0-0.29-0.03-0.48-0.09-0.55c-0.09-0.1-0.21-0.15-0.38-0.15H7.24v-0.13h1.62
			c0.47,0,0.82,0.04,1.04,0.11c0.22,0.07,0.41,0.21,0.57,0.4c0.16,0.19,0.23,0.42,0.23,0.69c0,0.29-0.09,0.54-0.27,0.75
			c-0.18,0.21-0.45,0.36-0.83,0.45l0.92,1.34c0.21,0.31,0.39,0.51,0.54,0.61c0.15,0.1,0.35,0.17,0.59,0.19V68.67z M8.5,66.27
			c0.04,0,0.08,0,0.11,0c0.03,0,0.06,0,0.08,0c0.42,0,0.74-0.1,0.96-0.29c0.22-0.19,0.32-0.44,0.32-0.74c0-0.29-0.09-0.53-0.26-0.71
			c-0.17-0.18-0.4-0.27-0.69-0.27c-0.13,0-0.3,0.02-0.51,0.07V66.27z"/>
		<path class="st0" d="M16.15,64.13v-0.13h1.57v0.13h-0.17c-0.17,0-0.31,0.08-0.4,0.23c-0.05,0.07-0.07,0.24-0.07,0.5v1.89
			c0,0.47-0.04,0.83-0.13,1.09c-0.09,0.26-0.26,0.48-0.52,0.66c-0.26,0.18-0.61,0.28-1.06,0.28c-0.49,0-0.85-0.09-1.11-0.26
			c-0.25-0.18-0.43-0.41-0.53-0.71c-0.07-0.2-0.1-0.59-0.1-1.15v-1.82c0-0.29-0.04-0.47-0.11-0.56c-0.08-0.09-0.2-0.13-0.37-0.13
			h-0.17v-0.13h1.92v0.13h-0.17c-0.18,0-0.31,0.06-0.39,0.18c-0.05,0.08-0.08,0.25-0.08,0.52v2.03c0,0.18,0.02,0.39,0.05,0.62
			c0.03,0.23,0.09,0.42,0.17,0.55c0.08,0.13,0.2,0.24,0.36,0.32c0.16,0.08,0.35,0.13,0.58,0.13c0.29,0,0.55-0.07,0.78-0.2
			c0.23-0.13,0.39-0.3,0.47-0.51c0.08-0.21,0.13-0.56,0.13-1.05v-1.89c0-0.29-0.03-0.47-0.09-0.55c-0.09-0.1-0.21-0.15-0.38-0.15
			H16.15z"/>
		<path class="st0" d="M19.05,64.01h1.21l2.72,3.5v-2.69c0-0.29-0.03-0.47-0.09-0.54c-0.08-0.1-0.21-0.14-0.38-0.14h-0.15v-0.13
			h1.55v0.13h-0.16c-0.19,0-0.32,0.06-0.4,0.18c-0.05,0.07-0.07,0.24-0.07,0.5v3.93h-0.12l-2.93-3.75v2.87
			c0,0.29,0.03,0.47,0.09,0.54c0.08,0.1,0.21,0.14,0.38,0.14h0.16v0.13H19.3v-0.13h0.15c0.19,0,0.32-0.06,0.4-0.18
			c0.05-0.07,0.07-0.24,0.07-0.5v-3.24c-0.13-0.16-0.23-0.26-0.29-0.31c-0.07-0.05-0.16-0.1-0.29-0.14
			c-0.06-0.02-0.16-0.03-0.29-0.03V64.01z"/>
		<path class="st0" d="M25.24,64.01h1.21l2.72,3.5v-2.69c0-0.29-0.03-0.47-0.09-0.54c-0.08-0.1-0.21-0.14-0.38-0.14h-0.15v-0.13
			h1.55v0.13h-0.16c-0.19,0-0.32,0.06-0.4,0.18c-0.05,0.07-0.07,0.24-0.07,0.5v3.93h-0.12l-2.93-3.75v2.87
			c0,0.29,0.03,0.47,0.09,0.54c0.08,0.1,0.21,0.14,0.38,0.14h0.16v0.13h-1.55v-0.13h0.15c0.19,0,0.32-0.06,0.4-0.18
			c0.05-0.07,0.07-0.24,0.07-0.5v-3.24c-0.13-0.16-0.23-0.26-0.29-0.31c-0.07-0.05-0.16-0.1-0.29-0.14
			c-0.06-0.02-0.16-0.03-0.29-0.03V64.01z"/>
		<path class="st0" d="M33.6,68.54v0.13h-1.91v-0.13h0.16c0.18,0,0.32-0.06,0.4-0.17c0.05-0.07,0.08-0.25,0.08-0.53v-3.01
			c0-0.24-0.01-0.39-0.04-0.47c-0.02-0.06-0.07-0.11-0.13-0.15c-0.1-0.06-0.2-0.08-0.3-0.08h-0.16v-0.13h1.91v0.13h-0.16
			c-0.18,0-0.31,0.06-0.4,0.17c-0.05,0.07-0.08,0.25-0.08,0.53v3.01c0,0.24,0.01,0.39,0.04,0.47c0.02,0.06,0.07,0.11,0.14,0.15
			c0.09,0.06,0.19,0.08,0.3,0.08H33.6z"/>
		<path class="st0" d="M35.02,64.01h1.21l2.72,3.5v-2.69c0-0.29-0.03-0.47-0.09-0.54c-0.08-0.1-0.21-0.14-0.38-0.14h-0.15v-0.13
			h1.55v0.13H39.7c-0.19,0-0.32,0.06-0.4,0.18c-0.05,0.07-0.07,0.24-0.07,0.5v3.93h-0.12l-2.93-3.75v2.87
			c0,0.29,0.03,0.47,0.09,0.54c0.08,0.1,0.21,0.14,0.38,0.14h0.16v0.13h-1.55v-0.13h0.15c0.19,0,0.32-0.06,0.4-0.18
			c0.05-0.07,0.07-0.24,0.07-0.5v-3.24c-0.13-0.16-0.23-0.26-0.29-0.31c-0.07-0.05-0.16-0.1-0.29-0.14
			c-0.06-0.02-0.16-0.03-0.29-0.03V64.01z"/>
		<path class="st0" d="M45.42,63.9l0.11,1.47h-0.11c-0.12-0.37-0.27-0.64-0.45-0.83c-0.26-0.27-0.6-0.4-1.02-0.4
			c-0.57,0-1,0.23-1.29,0.7c-0.25,0.4-0.37,0.87-0.37,1.42c0,0.44,0.08,0.85,0.25,1.22c0.16,0.37,0.38,0.64,0.64,0.81
			c0.27,0.17,0.54,0.26,0.82,0.26c0.16,0,0.32-0.02,0.48-0.07c0.15-0.04,0.3-0.11,0.44-0.19v-1.35c0-0.23-0.02-0.39-0.05-0.46
			c-0.03-0.07-0.09-0.13-0.16-0.17c-0.07-0.04-0.2-0.06-0.38-0.06v-0.13h1.72v0.13h-0.08c-0.17,0-0.29,0.06-0.35,0.18
			c-0.04,0.08-0.07,0.25-0.07,0.5v1.43c-0.25,0.14-0.5,0.25-0.74,0.31c-0.24,0.07-0.52,0.1-0.82,0.1c-0.86,0-1.51-0.29-1.96-0.87
			c-0.33-0.43-0.5-0.93-0.5-1.5c0-0.41,0.09-0.8,0.28-1.18c0.22-0.45,0.53-0.79,0.92-1.03c0.33-0.2,0.71-0.3,1.15-0.3
			c0.16,0,0.31,0.01,0.44,0.04c0.13,0.03,0.32,0.09,0.56,0.18c0.12,0.05,0.2,0.07,0.25,0.07c0.04,0,0.08-0.02,0.11-0.06
			c0.03-0.04,0.05-0.12,0.05-0.24H45.42z"/>
		<path class="st0" d="M56.28,68.67l-1.72-3.92v3.11c0,0.29,0.03,0.47,0.09,0.54c0.08,0.1,0.21,0.14,0.38,0.14h0.16v0.13h-1.55
			v-0.13h0.16c0.19,0,0.32-0.06,0.4-0.18c0.05-0.07,0.07-0.24,0.07-0.5v-3.05c0-0.21-0.02-0.36-0.07-0.45
			c-0.03-0.07-0.09-0.12-0.17-0.17c-0.08-0.04-0.21-0.07-0.4-0.07v-0.13h1.26l1.61,3.65l1.59-3.65h1.26v0.13h-0.15
			c-0.19,0-0.32,0.06-0.4,0.18c-0.05,0.07-0.07,0.24-0.07,0.5v3.05c0,0.29,0.03,0.47,0.09,0.54c0.08,0.1,0.21,0.14,0.38,0.14h0.15
			v0.13h-1.89v-0.13h0.16c0.19,0,0.32-0.06,0.4-0.18c0.05-0.07,0.07-0.24,0.07-0.5v-3.11l-1.72,3.92H56.28z"/>
		<path class="st0" d="M63.92,67.11H62.2l-0.3,0.74c-0.07,0.18-0.11,0.32-0.11,0.41c0,0.07,0.03,0.13,0.1,0.19
			c0.06,0.05,0.2,0.09,0.42,0.1v0.13h-1.4v-0.13c0.19-0.03,0.31-0.08,0.36-0.13c0.11-0.11,0.24-0.33,0.37-0.67l1.56-3.84h0.11
			l1.55,3.88c0.12,0.31,0.24,0.51,0.34,0.61c0.1,0.09,0.24,0.14,0.42,0.16v0.13h-1.75v-0.13c0.18-0.01,0.3-0.04,0.36-0.09
			c0.06-0.05,0.09-0.12,0.09-0.19c0-0.1-0.04-0.26-0.13-0.48L63.92,67.11z M63.83,66.85l-0.75-1.88l-0.77,1.88H63.83z"/>
		<path class="st0" d="M66.96,64.01h1.21l2.72,3.5v-2.69c0-0.29-0.03-0.47-0.09-0.54c-0.08-0.1-0.21-0.14-0.38-0.14h-0.15v-0.13
			h1.55v0.13h-0.16c-0.19,0-0.32,0.06-0.4,0.18c-0.05,0.07-0.07,0.24-0.07,0.5v3.93h-0.12l-2.93-3.75v2.87
			c0,0.29,0.03,0.47,0.09,0.54c0.08,0.1,0.21,0.14,0.38,0.14h0.16v0.13H67.2v-0.13h0.15c0.19,0,0.32-0.06,0.4-0.18
			c0.05-0.07,0.07-0.24,0.07-0.5v-3.24c-0.13-0.16-0.23-0.26-0.29-0.31c-0.07-0.05-0.16-0.1-0.29-0.14
			c-0.06-0.02-0.16-0.03-0.29-0.03V64.01z"/>
		<path class="st0" d="M80.66,64.26v1.83h0.81c0.19,0,0.32-0.04,0.41-0.13c0.09-0.09,0.14-0.26,0.17-0.51h0.12v1.58h-0.12
			c0-0.18-0.02-0.31-0.07-0.4c-0.04-0.08-0.1-0.15-0.18-0.19c-0.08-0.04-0.19-0.06-0.34-0.06h-0.81v1.46c0,0.24,0.01,0.39,0.04,0.47
			c0.02,0.06,0.07,0.11,0.14,0.15c0.1,0.06,0.2,0.08,0.3,0.08h0.16v0.13h-1.91v-0.13h0.16c0.18,0,0.32-0.06,0.4-0.17
			c0.05-0.07,0.08-0.25,0.08-0.53v-3.01c0-0.24-0.01-0.39-0.04-0.47c-0.02-0.06-0.07-0.11-0.13-0.15c-0.09-0.06-0.19-0.08-0.3-0.08
			h-0.16v-0.13h3.31l0.04,1.02h-0.11c-0.06-0.22-0.12-0.38-0.2-0.48c-0.08-0.1-0.17-0.18-0.28-0.22c-0.11-0.05-0.28-0.07-0.51-0.07
			H80.66z"/>
		<path class="st0" d="M86.43,68.54v0.13h-1.91v-0.13h0.16c0.18,0,0.32-0.06,0.4-0.17c0.05-0.07,0.08-0.25,0.08-0.53v-3.01
			c0-0.24-0.01-0.39-0.04-0.47c-0.02-0.06-0.07-0.11-0.13-0.15c-0.1-0.06-0.2-0.08-0.3-0.08h-0.16v-0.13h1.91v0.13h-0.16
			c-0.18,0-0.31,0.06-0.4,0.17c-0.05,0.07-0.08,0.25-0.08,0.53v3.01c0,0.24,0.01,0.39,0.04,0.47c0.02,0.06,0.07,0.11,0.14,0.15
			c0.09,0.06,0.19,0.08,0.3,0.08H86.43z"/>
		<path class="st0" d="M91.79,67.38l0.11,0.02l-0.38,1.27h-3.44v-0.13h0.17c0.19,0,0.32-0.06,0.4-0.19
			c0.05-0.07,0.07-0.24,0.07-0.51v-3.01c0-0.29-0.03-0.47-0.09-0.55c-0.09-0.1-0.21-0.15-0.38-0.15h-0.17v-0.13h2.01v0.13
			c-0.24,0-0.4,0.02-0.5,0.07c-0.1,0.05-0.16,0.11-0.2,0.18c-0.04,0.07-0.05,0.25-0.05,0.53v2.93c0,0.19,0.02,0.32,0.05,0.39
			c0.03,0.05,0.07,0.08,0.12,0.11c0.05,0.02,0.23,0.03,0.51,0.03h0.32c0.34,0,0.58-0.03,0.72-0.08c0.14-0.05,0.26-0.15,0.38-0.28
			C91.56,67.88,91.68,67.67,91.79,67.38z"/>
		<path class="st0" d="M96.14,68.67l-1.72-3.92v3.11c0,0.29,0.03,0.47,0.09,0.54c0.08,0.1,0.21,0.14,0.38,0.14h0.16v0.13H93.5v-0.13
			h0.16c0.19,0,0.32-0.06,0.4-0.18c0.05-0.07,0.07-0.24,0.07-0.5v-3.05c0-0.21-0.02-0.36-0.07-0.45c-0.03-0.07-0.09-0.12-0.17-0.17
			c-0.08-0.04-0.21-0.07-0.4-0.07v-0.13h1.26l1.61,3.65l1.59-3.65h1.26v0.13h-0.15c-0.19,0-0.32,0.06-0.4,0.18
			c-0.05,0.07-0.07,0.24-0.07,0.5v3.05c0,0.29,0.03,0.47,0.09,0.54c0.08,0.1,0.21,0.14,0.38,0.14h0.15v0.13h-1.89v-0.13h0.16
			c0.19,0,0.32-0.06,0.4-0.18c0.05-0.07,0.07-0.24,0.07-0.5v-3.11l-1.72,3.92H96.14z"/>
		<path class="st0" d="M109.83,63.9v1.61h-0.12c-0.04-0.31-0.11-0.56-0.21-0.74c-0.1-0.18-0.25-0.33-0.43-0.44
			c-0.19-0.11-0.38-0.16-0.58-0.16c-0.23,0-0.42,0.07-0.56,0.22c-0.15,0.15-0.22,0.31-0.22,0.5c0,0.14,0.05,0.27,0.14,0.39
			c0.14,0.17,0.46,0.4,0.97,0.69c0.42,0.23,0.7,0.41,0.85,0.54c0.15,0.12,0.27,0.27,0.35,0.44c0.08,0.17,0.12,0.35,0.12,0.53
			c0,0.35-0.13,0.66-0.39,0.91c-0.26,0.26-0.6,0.38-1.01,0.38c-0.13,0-0.25-0.01-0.36-0.03c-0.07-0.01-0.21-0.05-0.42-0.13
			c-0.21-0.07-0.35-0.11-0.41-0.11c-0.05,0-0.1,0.02-0.13,0.05c-0.03,0.03-0.06,0.11-0.07,0.21h-0.12v-1.6h0.12
			c0.06,0.33,0.13,0.58,0.23,0.75c0.1,0.17,0.24,0.3,0.44,0.41c0.2,0.11,0.41,0.17,0.65,0.17c0.27,0,0.49-0.08,0.65-0.23
			c0.16-0.15,0.24-0.33,0.24-0.54c0-0.11-0.03-0.23-0.09-0.35c-0.06-0.12-0.15-0.23-0.28-0.33c-0.09-0.07-0.32-0.21-0.7-0.44
			c-0.38-0.22-0.65-0.4-0.81-0.53c-0.16-0.13-0.28-0.28-0.37-0.44c-0.08-0.16-0.12-0.34-0.12-0.53c0-0.33,0.12-0.62,0.37-0.86
			c0.24-0.24,0.56-0.36,0.93-0.36c0.24,0,0.49,0.06,0.75,0.18c0.12,0.06,0.21,0.09,0.26,0.09c0.06,0,0.1-0.02,0.14-0.05
			c0.04-0.04,0.07-0.11,0.09-0.21H109.83z"/>
		<path class="st0" d="M115.71,64.01l0.05,1.09h-0.12c-0.02-0.19-0.06-0.33-0.1-0.41c-0.07-0.13-0.16-0.23-0.27-0.29
			c-0.11-0.06-0.26-0.09-0.44-0.09h-0.63v3.56c0,0.29,0.03,0.47,0.09,0.54c0.08,0.1,0.21,0.14,0.38,0.14h0.15v0.13h-1.89v-0.13h0.16
			c0.19,0,0.32-0.06,0.4-0.18c0.05-0.07,0.07-0.24,0.07-0.5V64.3h-0.53c-0.21,0-0.36,0.02-0.44,0.05c-0.11,0.04-0.21,0.13-0.29,0.25
			c-0.08,0.12-0.13,0.29-0.14,0.5h-0.12l0.05-1.09H115.71z"/>
		<path class="st0" d="M120.48,64.13v-0.13h1.57v0.13h-0.17c-0.17,0-0.31,0.08-0.4,0.23c-0.05,0.07-0.07,0.24-0.07,0.5v1.89
			c0,0.47-0.04,0.83-0.13,1.09c-0.09,0.26-0.26,0.48-0.52,0.66c-0.26,0.18-0.61,0.28-1.06,0.28c-0.49,0-0.85-0.09-1.11-0.26
			c-0.25-0.18-0.43-0.41-0.53-0.71c-0.07-0.2-0.1-0.59-0.1-1.15v-1.82c0-0.29-0.04-0.47-0.11-0.56c-0.08-0.09-0.2-0.13-0.37-0.13
			h-0.17v-0.13h1.92v0.13h-0.17c-0.18,0-0.31,0.06-0.39,0.18c-0.05,0.08-0.08,0.25-0.08,0.52v2.03c0,0.18,0.02,0.39,0.05,0.62
			c0.03,0.23,0.09,0.42,0.17,0.55c0.08,0.13,0.2,0.24,0.36,0.32c0.16,0.08,0.35,0.13,0.58,0.13c0.29,0,0.55-0.07,0.78-0.2
			c0.23-0.13,0.39-0.3,0.47-0.51c0.08-0.21,0.13-0.56,0.13-1.05v-1.89c0-0.29-0.03-0.47-0.09-0.55c-0.09-0.1-0.21-0.15-0.38-0.15
			H120.48z"/>
		<path class="st0" d="M123.58,68.67v-0.13h0.17c0.19,0,0.32-0.06,0.4-0.19c0.05-0.08,0.07-0.25,0.07-0.51v-3.01
			c0-0.29-0.03-0.47-0.09-0.55c-0.09-0.1-0.21-0.15-0.38-0.15h-0.17v-0.13h1.81c0.66,0,1.17,0.08,1.52,0.24
			c0.35,0.16,0.63,0.42,0.84,0.79c0.21,0.37,0.32,0.8,0.32,1.28c0,0.65-0.19,1.19-0.56,1.63c-0.42,0.49-1.06,0.73-1.93,0.73H123.58z
			 M124.85,68.33c0.28,0.06,0.51,0.1,0.7,0.1c0.51,0,0.93-0.19,1.26-0.56c0.33-0.37,0.5-0.88,0.5-1.52c0-0.64-0.17-1.15-0.5-1.52
			c-0.33-0.37-0.76-0.56-1.29-0.56c-0.2,0-0.42,0.03-0.67,0.1V68.33z"/>
		<path class="st0" d="M131.73,68.54v0.13h-1.91v-0.13h0.16c0.18,0,0.32-0.06,0.4-0.17c0.05-0.07,0.08-0.25,0.08-0.53v-3.01
			c0-0.24-0.01-0.39-0.04-0.47c-0.02-0.06-0.07-0.11-0.13-0.15c-0.1-0.06-0.2-0.08-0.3-0.08h-0.16v-0.13h1.91v0.13h-0.16
			c-0.18,0-0.31,0.06-0.4,0.17c-0.05,0.07-0.08,0.25-0.08,0.53v3.01c0,0.24,0.01,0.39,0.04,0.47c0.02,0.06,0.07,0.11,0.14,0.15
			c0.09,0.06,0.19,0.08,0.3,0.08H131.73z"/>
		<path class="st0" d="M135.69,63.9c0.58,0,1.08,0.23,1.5,0.69c0.42,0.46,0.63,1.03,0.63,1.72c0,0.71-0.21,1.3-0.64,1.76
			c-0.43,0.47-0.94,0.7-1.55,0.7c-0.61,0-1.13-0.23-1.54-0.68c-0.42-0.46-0.62-1.05-0.62-1.77c0-0.74,0.24-1.34,0.72-1.81
			C134.61,64.1,135.11,63.9,135.69,63.9z M135.63,64.15c-0.4,0-0.72,0.15-0.96,0.46c-0.3,0.39-0.45,0.95-0.45,1.69
			c0,0.76,0.16,1.35,0.47,1.76c0.24,0.31,0.55,0.47,0.94,0.47c0.42,0,0.76-0.17,1.03-0.51c0.27-0.34,0.41-0.88,0.41-1.62
			c0-0.8-0.15-1.39-0.45-1.78C136.39,64.31,136.06,64.15,135.63,64.15z"/>
	</g>
</g>
</svg>
