<?xml version="1.0" encoding="utf-8"?>
<!-- Generator: Adobe Illustrator 26.3.1, SVG Export Plug-In . SVG Version: 6.00 Build 0)  -->
<svg version="1.1" id="圖層_1" xmlns="http://www.w3.org/2000/svg" xmlns:xlink="http://www.w3.org/1999/xlink" x="0px" y="0px"
	 viewBox="0 0 192 34" style="enable-background:new 0 0 192 34;" xml:space="preserve">
<style type="text/css">
	.st0{fill:#FFFFFF;}
</style>
<g>
	<path class="st0" d="M190.9,16.79c0,1.37,0.05,2.75-0.01,4.12c-0.26,6.23-4.61,10.9-9.35,12.26c-5.58,1.6-11.57-0.83-14.52-5.91
		c-1.13-1.94-1.81-4.03-1.86-6.28c-0.06-2.77-0.11-5.54-0.02-8.3c0.07-2.12,0.79-4.09,1.88-5.92c1.81-3.03,4.39-5.09,7.81-6
		c5.27-1.39,10.71,0.73,13.77,5.29c1.28,1.9,2.04,4,2.28,6.27c0.08,0.78,0.02,1.58,0.02,2.38C190.91,15.4,190.91,16.1,190.9,16.79
		C190.91,16.79,190.9,16.79,190.9,16.79z"/>
	<path class="st0" d="M41.47,0.4c2.67,0,5.32-0.09,7.95,0.02c2.96,0.13,5.7,1.08,8.15,2.75c3.94,2.68,6.4,6.37,7.17,11.09
		c1.46,8.94-4.37,17.3-13.26,19.04c-0.98,0.19-1.99,0.27-2.99,0.29c-2.21,0.04-4.42,0.01-6.63,0.01c-0.13,0-0.25,0-0.4,0
		C41.47,22.52,41.47,11.46,41.47,0.4z"/>
	<path class="st0" d="M20.18,15.18c0,6.13,0,12.25,0,18.41c-2.5,0-4.98,0-7.47,0c0-11.07,0-22.12,0-33.2c0.1,0,0.2-0.01,0.3-0.01
		c2.35,0,4.69,0,7.04-0.01c0.22,0,0.33,0.07,0.43,0.27c2.12,4.23,4.25,8.45,6.37,12.68c0.88,1.74,1.76,3.49,2.64,5.23
		c0.04,0.07,0.08,0.15,0.18,0.21c0-6.11,0-12.22,0-18.36c2.52,0,4.99,0,7.5,0c0.01,0.11,0.02,0.22,0.02,0.33
		c0,10.84,0,21.69,0.01,32.53c0,0.29-0.08,0.37-0.37,0.37c-2.31-0.01-4.61-0.01-6.92,0c-0.25,0-0.37-0.09-0.48-0.3
		c-1.34-2.68-2.7-5.36-4.05-8.03c-1.67-3.3-3.33-6.59-5-9.89c-0.04-0.08-0.09-0.16-0.13-0.23C20.23,15.16,20.2,15.17,20.18,15.18z"
		/>
	<path class="st0" d="M155.19,18.74c0-6.11,0-12.22,0-18.36c2.51,0,4.99,0,7.48,0c0,11.07,0,22.12,0,33.2
		c-0.11,0.01-0.21,0.02-0.31,0.02c-2.33,0-4.65,0-6.98,0.01c-0.22,0-0.33-0.07-0.43-0.27c-2.7-5.36-5.41-10.73-8.11-16.09
		c-0.35-0.7-0.71-1.4-1.14-2.09c0,6.13,0,12.26,0,18.42c-2.52,0-4.99,0-7.49,0c0-11.06,0-22.11,0-33.2
		c0.11-0.01,0.22-0.01,0.33-0.01c2.34,0,4.67,0,7.01-0.01c0.22,0,0.33,0.07,0.43,0.27c2.64,5.26,5.3,10.52,7.95,15.78
		c0.39,0.78,0.79,1.56,1.18,2.34C155.13,18.75,155.16,18.75,155.19,18.74z"/>
	<path class="st0" d="M78.14,0.38c6.79,0,13.56,0,20.35,0c0,2.48,0,4.96,0,7.47c-4.28,0-8.55,0-12.85,0c0,1.81,0,3.58,0,5.39
		c3.15,0,6.28,0,9.43,0c0,2.51,0,4.97,0,7.5c-3.14,0-6.28,0-9.44,0c0,1.82,0,3.58,0,5.38c4.29,0,8.56,0,12.86,0
		c0,2.51,0,4.99,0,7.49c-6.79,0-13.56,0-20.36,0C78.14,22.52,78.14,11.46,78.14,0.38z"/>
	<path class="st0" d="M109.89,33.59c-2.53,0-5.01,0-7.51,0c0-11.07,0-22.12,0-33.2c2.49,0,4.98,0,7.5,0c0,3.13,0,6.25,0,9.47
		c0.28-0.3,0.49-0.54,0.71-0.77c2.5-2.79,5.01-5.58,7.51-8.38c0.23-0.25,0.45-0.35,0.78-0.34c2.2,0.01,4.4,0.01,6.6,0.01
		c0.12,0,0.23,0,0.44,0c-4.75,5.58-9.45,11.11-14.16,16.66c4.7,5.51,9.38,11.01,14.11,16.56c-0.16,0.01-0.25,0.02-0.35,0.02
		c-2.27,0-4.55,0-6.82,0.01c-0.23,0-0.39-0.07-0.54-0.24c-2.65-2.96-5.31-5.91-7.97-8.86c-0.07-0.08-0.16-0.16-0.28-0.3
		C109.89,27.38,109.89,30.47,109.89,33.59z"/>
	<path class="st0" d="M1.07,33.58c0-11.07,0-22.12,0-33.19c2.49,0,4.97,0,7.47,0c0,11.06,0,22.11,0,33.19
		C6.06,33.58,3.59,33.58,1.07,33.58z"/>
	<path class="st0" d="M66.56,0.38c2.49,0,4.96,0,7.45,0c0,11.06,0,22.12,0,33.2c-2.47,0-4.94,0-7.45,0
		C66.56,22.52,66.56,11.46,66.56,0.38z"/>
	<path class="st0" d="M134.03,33.59c-2.48,0-4.94,0-7.43,0c0-11.06,0-22.12,0-33.2c2.47,0,4.93,0,7.43,0
		C134.03,11.44,134.03,22.5,134.03,33.59z"/>
</g>
</svg>
