<?xml version="1.0" encoding="utf-8"?>
<!-- Generator: Adobe Illustrator 26.3.1, SVG Export Plug-In . SVG Version: 6.00 Build 0)  -->
<svg version="1.1" id="圖層_1" xmlns="http://www.w3.org/2000/svg" xmlns:xlink="http://www.w3.org/1999/xlink" x="0px" y="0px"
	 viewBox="0 0 152.4 59" style="enable-background:new 0 0 152.4 59;" xml:space="preserve">
<style type="text/css">
	.st0{fill:#FFFFFF;}
</style>
<g id="圖層_2_00000136383813489949810510000000422665297787934903_">
	<g id="homepage">
		<path class="st0" d="M74,33.2c-0.1-0.1-0.2-0.3-0.2-0.5v-6.9c0-0.4,0.3-0.7,0.7-0.8c0,0,0.1,0,0.1,0c0.2,0,0.4,0.1,0.6,0.2
			c0.1,0.1,0.2,0.3,0.2,0.5v6.9c0,0.2-0.1,0.4-0.2,0.5c-0.1,0.1-0.4,0.2-0.6,0.2C74.3,33.4,74.1,33.3,74,33.2z"/>
		<path class="st0" d="M85.9,25.1c0.1,0.1,0.2,0.3,0.2,0.5v7c0,0.2-0.1,0.4-0.2,0.5c-0.1,0.1-0.3,0.2-0.5,0.2
			c-0.2,0-0.4-0.1-0.5-0.2c-0.1-0.1-0.2-0.3-0.2-0.5v-4.9l-2,3.8c-0.1,0.1-0.2,0.3-0.3,0.4c-0.1,0.1-0.3,0.1-0.4,0.1
			c-0.1,0-0.3,0-0.4-0.1c-0.1-0.1-0.2-0.2-0.3-0.4l-2-3.7v4.8c0,0.2-0.1,0.4-0.2,0.5c-0.1,0.1-0.3,0.2-0.5,0.2
			c-0.2,0-0.4-0.1-0.5-0.2C78.1,33,78,32.9,78,32.7v-7c0-0.2,0.1-0.4,0.2-0.5c0.1-0.1,0.3-0.2,0.5-0.2c0.3,0,0.6,0.2,0.7,0.5l2.6,5
			l2.6-5c0.1-0.3,0.4-0.5,0.7-0.5C85.6,24.9,85.7,25,85.9,25.1z"/>
		<path class="st0" d="M89,33.2c-0.1-0.2-0.2-0.4-0.2-0.6v-6.9c0-0.2,0.1-0.4,0.2-0.5c0.1-0.1,0.3-0.2,0.5-0.2h2.9
			c0.8,0,1.5,0.2,2.1,0.7c1,1.1,1,2.7,0,3.8c-0.6,0.5-1.3,0.7-2.1,0.7h-2.1v2.5c0,0.4-0.3,0.7-0.6,0.8c0,0-0.1,0-0.1,0
			C89.3,33.4,89.1,33.3,89,33.2z M92.2,28.9c1,0,1.6-0.5,1.6-1.4s-0.5-1.4-1.6-1.4h-1.9v2.7L92.2,28.9z"/>
		<path class="st0" d="M104.2,32.8c0,0.2-0.1,0.3-0.2,0.5c-0.1,0.1-0.3,0.2-0.5,0.2c-0.3,0-0.5-0.1-0.7-0.3l-1.6-2.4
			c-0.1-0.2-0.3-0.4-0.5-0.5c-0.2-0.1-0.5-0.2-0.7-0.1h-1.2v2.7c0,0.2-0.1,0.4-0.2,0.6c-0.1,0.1-0.3,0.2-0.5,0.2
			c-0.2,0-0.4-0.1-0.6-0.2c-0.1-0.2-0.2-0.4-0.2-0.6v-6.9c0-0.2,0.1-0.4,0.2-0.5c0.1-0.1,0.3-0.2,0.5-0.2h3c0.8-0.1,1.5,0.2,2.2,0.6
			c0.5,0.5,0.8,1.1,0.7,1.8c0,0.6-0.2,1.1-0.6,1.6c-0.4,0.4-1,0.7-1.6,0.8c0.2,0.1,0.4,0.2,0.6,0.3c0.2,0.2,0.4,0.4,0.5,0.6l1.1,1.6
			C104.2,32.5,104.3,32.6,104.2,32.8z M102.2,28.5c0.3-0.3,0.4-0.6,0.4-1c0-0.4-0.1-0.7-0.4-1c-0.4-0.2-0.8-0.3-1.3-0.3h-2v2.6h2
			C101.4,28.8,101.8,28.7,102.2,28.5L102.2,28.5z"/>
		<path class="st0" d="M106.7,33.1c-0.1-0.1-0.2-0.3-0.2-0.5v-6.9c0-0.2,0.1-0.4,0.2-0.5c0.1-0.1,0.3-0.2,0.5-0.2h4.3
			c0.2,0,0.4,0,0.5,0.1c0.1,0.1,0.2,0.3,0.2,0.4c0,0.2-0.1,0.3-0.2,0.5c-0.2,0.1-0.3,0.2-0.5,0.2H108v2.3h3.3c0.2,0,0.4,0,0.5,0.1
			c0.1,0.1,0.2,0.3,0.2,0.5c0,0.2-0.1,0.3-0.2,0.4c-0.2,0.1-0.3,0.2-0.5,0.1H108v2.4h3.5c0.2,0,0.4,0,0.5,0.2
			c0.1,0.1,0.2,0.3,0.2,0.5c0,0.2-0.1,0.3-0.2,0.4c-0.2,0.1-0.3,0.2-0.5,0.2h-4.3C107.1,33.3,106.9,33.3,106.7,33.1z"/>
		<path class="st0" d="M115.4,33.2c-0.5-0.1-0.9-0.4-1.3-0.7c-0.3-0.2-0.4-0.7-0.1-1c0.1-0.1,0.2-0.2,0.3-0.2c0.2,0,0.3,0.1,0.5,0.2
			c0.3,0.2,0.7,0.4,1.1,0.5c0.4,0.1,0.8,0.2,1.2,0.2c0.5,0,0.9-0.1,1.3-0.3c0.3-0.2,0.5-0.5,0.5-0.9c0-0.3-0.2-0.6-0.4-0.7
			c-0.5-0.2-0.9-0.4-1.4-0.5c-0.6-0.1-1.1-0.3-1.7-0.5c-0.4-0.2-0.7-0.4-1-0.8c-0.2-0.3-0.3-0.8-0.3-1.2c0-0.5,0.1-0.9,0.4-1.3
			c0.3-0.4,0.7-0.7,1.2-0.9c1.5-0.6,3.1-0.4,4.4,0.6c0.1,0.1,0.2,0.2,0.2,0.2c0.1,0.2,0.1,0.5-0.1,0.7c-0.1,0.1-0.2,0.2-0.3,0.2
			c-0.1,0-0.1,0-0.2,0l-0.3-0.1c-0.3-0.2-0.6-0.4-0.9-0.5c-0.4-0.1-0.7-0.2-1.1-0.2c-0.4,0-0.9,0.1-1.3,0.3
			c-0.3,0.2-0.5,0.5-0.5,0.9c0,0.3,0.1,0.6,0.4,0.7c0.4,0.2,0.9,0.4,1.4,0.5c0.6,0.1,1.2,0.3,1.7,0.5c0.4,0.2,0.7,0.4,1,0.7
			c0.2,0.3,0.4,0.7,0.3,1.1c0,0.5-0.1,0.9-0.4,1.3c-0.3,0.4-0.7,0.7-1.2,0.9c-0.5,0.2-1.1,0.3-1.7,0.3
			C116.5,33.4,116,33.3,115.4,33.2z"/>
		<path class="st0" d="M123.8,33.2c-0.5-0.1-0.9-0.4-1.3-0.7c-0.3-0.2-0.4-0.7-0.1-1c0.1-0.1,0.2-0.2,0.3-0.2c0.2,0,0.3,0.1,0.5,0.2
			c0.3,0.2,0.7,0.4,1.1,0.5c0.4,0.1,0.8,0.2,1.2,0.2c0.5,0,0.9-0.1,1.3-0.3c0.3-0.2,0.5-0.5,0.5-0.9c0-0.3-0.2-0.6-0.4-0.7
			c-0.5-0.2-0.9-0.4-1.4-0.5c-0.6-0.1-1.1-0.3-1.7-0.5c-0.4-0.2-0.7-0.4-1-0.8c-0.2-0.3-0.3-0.8-0.3-1.2c0-0.5,0.1-0.9,0.4-1.3
			c0.3-0.4,0.7-0.7,1.2-0.9c1.5-0.6,3.1-0.4,4.4,0.6c0.1,0.1,0.2,0.2,0.2,0.2c0.1,0.2,0.1,0.5-0.1,0.7c-0.1,0.1-0.2,0.2-0.4,0.2
			c-0.1,0-0.1,0-0.2,0l-0.3-0.1c-0.3-0.2-0.6-0.4-0.9-0.5c-0.4-0.1-0.7-0.2-1.1-0.2c-0.4,0-0.9,0.1-1.3,0.3
			c-0.3,0.2-0.5,0.5-0.5,0.9c0,0.3,0.1,0.6,0.4,0.7c0.4,0.2,0.9,0.4,1.4,0.5c0.6,0.1,1.2,0.3,1.7,0.5c0.4,0.2,0.7,0.4,1,0.7
			c0.2,0.3,0.4,0.7,0.4,1.1c0,0.5-0.1,0.9-0.4,1.3c-0.3,0.4-0.7,0.7-1.2,0.9c-0.5,0.2-1.1,0.3-1.7,0.3
			C124.9,33.4,124.4,33.3,123.8,33.2z"/>
		<path class="st0" d="M131.3,33.2c-0.1-0.1-0.2-0.3-0.2-0.5v-6.9c0-0.4,0.3-0.7,0.7-0.8c0,0,0.1,0,0.1,0c0.2,0,0.4,0.1,0.6,0.2
			c0.1,0.1,0.2,0.3,0.2,0.5v6.9c0,0.2-0.1,0.4-0.2,0.5c-0.1,0.1-0.4,0.2-0.6,0.2C131.7,33.4,131.5,33.3,131.3,33.2z"/>
		<path class="st0" d="M136.9,32.9c-0.6-0.3-1.1-0.9-1.4-1.5c-0.6-1.4-0.6-3.1,0-4.5c0.3-0.6,0.8-1.1,1.4-1.5c1.3-0.7,2.9-0.7,4.2,0
			c0.6,0.3,1.1,0.9,1.4,1.5c0.6,1.4,0.6,3.1,0,4.5c-0.3,0.6-0.8,1.1-1.4,1.5C139.8,33.6,138.2,33.6,136.9,32.9L136.9,32.9z
			 M140.8,31.4c0.5-0.7,0.7-1.5,0.6-2.3c0.1-0.8-0.2-1.6-0.6-2.3c-0.9-1-2.5-1.1-3.4-0.1c0,0-0.1,0.1-0.1,0.1
			c-0.5,0.7-0.7,1.5-0.6,2.3c-0.1,0.8,0.2,1.6,0.6,2.3c0.9,1,2.4,1.1,3.4,0.2C140.7,31.5,140.8,31.5,140.8,31.4z"/>
		<path class="st0" d="M152.2,25.1c0.1,0.2,0.2,0.3,0.2,0.5v6.9c0,0.2-0.1,0.4-0.2,0.5c-0.1,0.1-0.3,0.2-0.5,0.2
			c-0.2,0-0.4-0.1-0.6-0.3l-4.3-5.6v5.1c0,0.2-0.1,0.4-0.2,0.5c-0.3,0.3-0.7,0.3-1,0c-0.1-0.2-0.2-0.3-0.2-0.5v-6.9
			c0-0.2,0.1-0.4,0.2-0.5c0.1-0.1,0.3-0.2,0.5-0.2c0.2,0,0.4,0.1,0.6,0.3l4.3,5.6v-5.1c0-0.2,0.1-0.4,0.2-0.5
			c0.1-0.1,0.3-0.2,0.5-0.2C151.9,24.9,152.1,25,152.2,25.1z"/>
		<path class="st0" d="M75.9,47.3c-0.1-0.1-0.2-0.3-0.2-0.5v-6.4h-2.2c-0.5,0-0.7-0.2-0.7-0.6c0-0.4,0.2-0.6,0.7-0.6h5.8
			c0.5,0,0.7,0.2,0.7,0.6c0,0.4-0.2,0.6-0.7,0.6h-2.1v6.4c0,0.4-0.3,0.7-0.7,0.8c0,0-0.1,0-0.1,0C76.3,47.6,76.1,47.5,75.9,47.3z"/>
		<path class="st0" d="M88.5,46.9c0,0.2-0.1,0.3-0.2,0.5c-0.1,0.1-0.3,0.2-0.5,0.2c-0.3,0-0.5-0.2-0.6-0.4l-0.7-1.6h-4.2l-0.7,1.6
			c-0.1,0.1-0.1,0.2-0.3,0.3c-0.1,0.1-0.2,0.1-0.4,0.1c-0.2,0-0.4-0.1-0.5-0.2c-0.1-0.1-0.2-0.3-0.2-0.5c0-0.1,0-0.2,0.1-0.3l3.3-7
			c0.1-0.2,0.2-0.3,0.3-0.4c0.3-0.2,0.6-0.2,0.9,0c0.1,0.1,0.3,0.2,0.3,0.4l3.3,7C88.4,46.7,88.5,46.8,88.5,46.9z M82.8,44.4h3.1
			l-1.6-3.5L82.8,44.4z"/>
		<path class="st0" d="M90.7,47.3c-0.1-0.1-0.2-0.3-0.2-0.5v-6.9c0-0.4,0.3-0.7,0.7-0.8c0,0,0.1,0,0.1,0c0.2,0,0.4,0.1,0.6,0.2
			c0.1,0.1,0.2,0.3,0.2,0.5v6.9c0,0.2-0.1,0.4-0.2,0.5c-0.1,0.1-0.4,0.2-0.6,0.2C91,47.6,90.8,47.5,90.7,47.3z"/>
		<path class="st0" d="M105.4,39.2c0.1-0.1,0.3-0.1,0.4-0.1c0.2,0,0.4,0.1,0.5,0.2c0.1,0.1,0.2,0.3,0.2,0.5c0,0.1,0,0.2-0.1,0.3
			l-2.5,7c-0.1,0.2-0.2,0.3-0.3,0.4c-0.1,0.1-0.3,0.1-0.5,0.1c-0.2,0-0.3,0-0.5-0.1c-0.1-0.1-0.3-0.2-0.3-0.4l-2-5.6l-2,5.6
			c-0.1,0.2-0.2,0.3-0.3,0.4c-0.3,0.2-0.7,0.2-1,0c-0.1-0.1-0.2-0.2-0.3-0.4l-2.5-7c0-0.1-0.1-0.2-0.1-0.3c0-0.2,0.1-0.4,0.2-0.5
			c0.3-0.2,0.6-0.2,0.9-0.1c0.1,0.1,0.2,0.2,0.3,0.3l2,5.8l2.1-5.7c0-0.1,0.1-0.3,0.3-0.4c0.1-0.1,0.3-0.1,0.4-0.1
			c0.2,0,0.3,0.1,0.4,0.1c0.1,0.1,0.2,0.2,0.3,0.4l2,5.8l2-5.8C105.1,39.4,105.3,39.3,105.4,39.2z"/>
		<path class="st0" d="M115.5,46.9c0,0.2-0.1,0.3-0.2,0.5c-0.1,0.1-0.3,0.2-0.5,0.2c-0.3,0-0.5-0.2-0.6-0.4l-0.7-1.6h-4.2l-0.7,1.6
			c-0.1,0.1-0.1,0.2-0.3,0.3c-0.1,0.1-0.2,0.1-0.4,0.1c-0.2,0-0.4-0.1-0.5-0.2c-0.1-0.1-0.2-0.3-0.2-0.5c0-0.1,0-0.2,0.1-0.3l3.3-7
			c0.1-0.2,0.2-0.3,0.3-0.4c0.3-0.2,0.6-0.2,0.9,0c0.1,0.1,0.3,0.2,0.3,0.4l3.3,7C115.5,46.7,115.5,46.8,115.5,46.9z M109.8,44.4
			h3.2l-1.6-3.5L109.8,44.4z"/>
		<path class="st0" d="M124.4,39.3c0.1,0.2,0.2,0.3,0.2,0.5v6.9c0,0.2-0.1,0.4-0.2,0.5c-0.1,0.1-0.3,0.2-0.5,0.2
			c-0.2,0-0.4-0.1-0.6-0.3l-4.3-5.6v5.1c0,0.2-0.1,0.4-0.2,0.5c-0.3,0.3-0.7,0.3-1,0c-0.1-0.2-0.2-0.3-0.2-0.5v-6.9
			c0-0.2,0.1-0.4,0.2-0.5c0.1-0.1,0.3-0.2,0.5-0.2c0.2,0,0.4,0.1,0.6,0.3l4.3,5.6v-5.1c0-0.2,0.1-0.4,0.2-0.5
			c0.1-0.1,0.3-0.2,0.5-0.2C124.1,39.1,124.3,39.2,124.4,39.3z"/>
		<circle class="st0" cx="33.5" cy="16.7" r="0.7"/>
		<circle class="st0" cx="36.8" cy="17.1" r="0.9"/>
		<circle class="st0" cx="32.9" cy="38.9" r="0.9"/>
		<circle class="st0" cx="41.2" cy="38.9" r="0.9"/>
		<circle class="st0" cx="39.5" cy="16.7" r="0.7"/>
		<circle class="st0" cx="36.8" cy="14.7" r="0.7"/>
		<circle class="st0" cx="33.6" cy="14.6" r="0.7"/>
		<circle class="st0" cx="30.9" cy="14.4" r="0.4"/>
		<circle class="st0" cx="38.9" cy="14.5" r="0.3"/>
		<circle class="st0" cx="33" cy="41.3" r="0.7"/>
		<circle class="st0" cx="41.4" cy="41.9" r="0.7"/>
		<circle class="st0" cx="15" cy="40" r="0.9"/>
		<circle class="st0" cx="11.2" cy="26.3" r="0.7"/>
		<circle class="st0" cx="39.8" cy="37" r="0.7"/>
		<circle class="st0" cx="39.9" cy="33.9" r="0.7"/>
		<circle class="st0" cx="60.9" cy="36.4" r="0.7"/>
		<circle class="st0" cx="8.8" cy="23.5" r="0.4"/>
		<circle class="st0" cx="34.8" cy="36.9" r="0.3"/>
		<circle class="st0" cx="33.1" cy="43.5" r="0.3"/>
		<circle class="st0" cx="41.7" cy="18.5" r="0.3"/>
		<circle class="st0" cx="41.3" cy="40.6" r="0.3"/>
		<circle class="st0" cx="9.4" cy="27.3" r="0.4"/>
		<circle class="st0" cx="34.5" cy="34.5" r="0.3"/>
		<circle class="st0" cx="41.7" cy="14.6" r="0.3"/>
		<circle class="st0" cx="15.1" cy="31.3" r="0.3"/>
		<circle class="st0" cx="14.9" cy="35.1" r="0.3"/>
		<circle class="st0" cx="13.3" cy="35.1" r="0.3"/>
		<circle class="st0" cx="41.7" cy="13.1" r="0.3"/>
		<circle class="st0" cx="44.3" cy="13.1" r="0.3"/>
		<circle class="st0" cx="44.3" cy="14.4" r="0.3"/>
		<circle class="st0" cx="41.7" cy="16.7" r="0.7"/>
		<circle class="st0" cx="36.8" cy="19.5" r="0.7"/>
		<circle class="st0" cx="17.2" cy="29.2" r="0.6"/>
		<circle class="st0" cx="41.7" cy="16.5" r="0.1"/>
		<circle class="st0" cx="42.9" cy="40.4" r="0.6"/>
		<circle class="st0" cx="70.2" cy="15.8" r="0.6"/>
		<circle class="st0" cx="60.8" cy="28.4" r="0.6"/>
		<circle class="st0" cx="60.8" cy="32.8" r="0.6"/>
		<circle class="st0" cx="66.1" cy="55.5" r="0.7"/>
		<circle class="st0" cx="12.2" cy="29.8" r="0.6"/>
		<circle class="st0" cx="14.9" cy="33.3" r="0.6"/>
		<circle class="st0" cx="14.9" cy="38.3" r="0.3"/>
		<circle class="st0" cx="13.3" cy="38.3" r="0.3"/>
		<circle class="st0" cx="14.9" cy="36.6" r="0.6"/>
		<circle class="st0" cx="62.9" cy="28.4" r="0.6"/>
		<circle class="st0" cx="62.9" cy="26.5" r="0.6"/>
		<circle class="st0" cx="64.8" cy="26.5" r="0.6"/>
		<circle class="st0" cx="64.6" cy="28.5" r="0.3"/>
		<circle class="st0" cx="70" cy="17.9" r="0.6"/>
		<circle class="st0" cx="15.1" cy="29.3" r="0.6"/>
		<circle class="st0" cx="12.2" cy="31.9" r="0.6"/>
		<circle class="st0" cx="68" cy="22.6" r="0.3"/>
		<circle class="st0" cx="57.3" cy="28.8" r="0.3"/>
		<circle class="st0" cx="60.9" cy="34.8" r="0.3"/>
		<circle class="st0" cx="67.8" cy="55.6" r="0.3"/>
		<circle class="st0" cx="60.9" cy="30.8" r="0.3"/>
		<circle class="st0" cx="58.8" cy="30.5" r="0.6"/>
		<circle class="st0" cx="8.8" cy="27.2" r="0"/>
		<circle class="st0" cx="58.4" cy="30.4" r="0"/>
		<circle class="st0" cx="2" cy="8.1" r="1.2"/>
		<circle class="st0" cx="0.7" cy="5.1" r="0.7"/>
		<circle class="st0" cx="2.7" cy="1.8" r="1.2"/>
		<circle class="st0" cx="40.8" cy="25.3" r="1.8"/>
		<circle class="st0" cx="40.8" cy="28.3" r="1.6"/>
		<circle class="st0" cx="40.8" cy="31.3" r="1.4"/>
		<circle class="st0" cx="44.7" cy="40.4" r="1.1"/>
		<circle class="st0" cx="41.8" cy="33.7" r="0.7"/>
		<circle class="st0" cx="58.6" cy="5.1" r="0.7"/>
		<circle class="st0" cx="65.7" cy="19.4" r="0.7"/>
		<circle class="st0" cx="62.3" cy="24.5" r="0.7"/>
		<circle class="st0" cx="69.2" cy="13.2" r="0.7"/>
		<circle class="st0" cx="48.4" cy="12" r="0.7"/>
		<circle class="st0" cx="41.9" cy="20.2" r="0.5"/>
		<circle class="st0" cx="52.2" cy="51.7" r="0.5"/>
		<circle class="st0" cx="44.1" cy="19.4" r="1.6"/>
		<circle class="st0" cx="47.1" cy="19.4" r="1.6"/>
		<circle class="st0" cx="44.1" cy="22.4" r="1.8"/>
		<circle class="st0" cx="47.1" cy="22.4" r="1.8"/>
		<circle class="st0" cx="44.1" cy="25.3" r="1.8"/>
		<circle class="st0" cx="47.1" cy="25.3" r="1.8"/>
		<circle class="st0" cx="44.1" cy="28.3" r="1.6"/>
		<circle class="st0" cx="47.1" cy="28.3" r="1.6"/>
		<circle class="st0" cx="44.1" cy="31.3" r="1.5"/>
		<circle class="st0" cx="47.1" cy="31.3" r="1.5"/>
		<circle class="st0" cx="47.1" cy="43.2" r="1.4"/>
		<circle class="st0" cx="48.1" cy="48.3" r="1.1"/>
		<circle class="st0" cx="50.5" cy="52.5" r="1"/>
		<circle class="st0" cx="51.4" cy="54.4" r="1"/>
		<circle class="st0" cx="50.5" cy="19.4" r="1.6"/>
		<circle class="st0" cx="47.1" cy="16.1" r="1.6"/>
		<circle class="st0" cx="50.5" cy="16.1" r="1.6"/>
		<circle class="st0" cx="50.5" cy="22.4" r="1.8"/>
		<circle class="st0" cx="50.5" cy="25.3" r="1.8"/>
		<circle class="st0" cx="50.5" cy="28.3" r="1.6"/>
		<circle class="st0" cx="50.5" cy="31.3" r="1.5"/>
		<circle class="st0" cx="50.5" cy="43.2" r="1.4"/>
		<circle class="st0" cx="50.5" cy="48.4" r="1.1"/>
		<circle class="st0" cx="39.7" cy="20.7" r="1"/>
		<circle class="st0" cx="50.5" cy="50.5" r="1"/>
		<circle class="st0" cx="47.3" cy="13.3" r="1"/>
		<circle class="st0" cx="57.2" cy="50.5" r="1"/>
		<circle class="st0" cx="53.7" cy="51.2" r="1"/>
		<circle class="st0" cx="68.9" cy="4.7" r="0.9"/>
		<circle class="st0" cx="55.6" cy="29.7" r="0.5"/>
		<circle class="st0" cx="53.7" cy="31.2" r="1.5"/>
		<circle class="st0" cx="44.1" cy="34.2" r="1.6"/>
		<circle class="st0" cx="47.1" cy="34.2" r="1.6"/>
		<circle class="st0" cx="47.1" cy="40.4" r="1.5"/>
		<circle class="st0" cx="50.5" cy="34.2" r="1.6"/>
		<circle class="st0" cx="53.7" cy="34.2" r="1.6"/>
		<circle class="st0" cx="53.7" cy="48.6" r="1.6"/>
		<circle class="st0" cx="57.2" cy="53.1" r="1.6"/>
		<circle class="st0" cx="60.2" cy="53" r="1.4"/>
		<circle class="st0" cx="50.5" cy="40.4" r="1.5"/>
		<circle class="st0" cx="53.7" cy="40.4" r="1.5"/>
		<circle class="st0" cx="53.7" cy="43.1" r="1.4"/>
		<circle class="st0" cx="59.5" cy="46" r="1.1"/>
		<circle class="st0" cx="53.7" cy="28.7" r="1.1"/>
		<circle class="st0" cx="56.6" cy="31.5" r="1.1"/>
		<circle class="st0" cx="44.7" cy="42.8" r="1"/>
		<circle class="st0" cx="59" cy="48.3" r="0.5"/>
		<circle class="st0" cx="64.8" cy="58.1" r="0.5"/>
		<circle class="st0" cx="39.6" cy="18.6" r="0.5"/>
		<circle class="st0" cx="34.2" cy="18.6" r="0.5"/>
		<circle class="st0" cx="57.2" cy="43.2" r="1.4"/>
		<circle class="st0" cx="57.8" cy="55.7" r="1.1"/>
		<circle class="st0" cx="47.1" cy="45.9" r="1.4"/>
		<circle class="st0" cx="50.5" cy="45.9" r="1.4"/>
		<circle class="st0" cx="53.7" cy="45.9" r="1.4"/>
		<circle class="st0" cx="53.7" cy="53.6" r="1.4"/>
		<circle class="st0" cx="57.2" cy="45.9" r="1.4"/>
		<circle class="st0" cx="57.2" cy="48.4" r="1.1"/>
		<circle class="st0" cx="59.5" cy="57.3" r="1"/>
		<circle class="st0" cx="59.7" cy="43" r="1"/>
		<circle class="st0" cx="62.3" cy="57" r="1"/>
		<circle class="st0" cx="57.8" cy="57.8" r="0.5"/>
		<circle class="st0" cx="64.9" cy="53.8" r="0.5"/>
		<circle class="st0" cx="58.5" cy="32.4" r="0.5"/>
		<circle class="st0" cx="65.2" cy="21" r="0.5"/>
		<circle class="st0" cx="61" cy="55.4" r="1.1"/>
		<circle class="st0" cx="63.9" cy="55.4" r="1.1"/>
		<circle class="st0" cx="70" cy="55.4" r="1.1"/>
		<circle class="st0" cx="69.8" cy="1.1" r="1.1"/>
		<circle class="st0" cx="63" cy="53" r="1.1"/>
		<circle class="st0" cx="7.1" cy="20" r="1.1"/>
		<circle class="st0" cx="59.2" cy="50.4" r="1.1"/>
		<circle class="st0" cx="55.7" cy="55.5" r="1"/>
		<circle class="st0" cx="67.8" cy="51.7" r="0.9"/>
		<circle class="st0" cx="57.2" cy="34.2" r="1.6"/>
		<circle class="st0" cx="41.8" cy="36.6" r="0.7"/>
		<circle class="st0" cx="44.1" cy="37.2" r="1.6"/>
		<circle class="st0" cx="47.1" cy="37.2" r="1.6"/>
		<circle class="st0" cx="50.5" cy="37.2" r="1.6"/>
		<circle class="st0" cx="53.7" cy="37.2" r="1.6"/>
		<circle class="st0" cx="57.2" cy="37.2" r="1.6"/>
		<circle class="st0" cx="57.2" cy="40.4" r="1.5"/>
		<circle class="st0" cx="44.1" cy="16.5" r="1.2"/>
		<circle class="st0" cx="41" cy="22.4" r="1.2"/>
		<circle class="st0" cx="33.5" cy="22.4" r="1.2"/>
		<circle class="st0" cx="60.7" cy="3.9" r="1.2"/>
		<circle class="st0" cx="50.5" cy="13.2" r="1.2"/>
		<circle class="st0" cx="50.5" cy="10.8" r="1.2"/>
		<circle class="st0" cx="63.4" cy="2.4" r="1.2"/>
		<circle class="st0" cx="53.7" cy="19.4" r="1.6"/>
		<circle class="st0" cx="53.7" cy="16.1" r="1.6"/>
		<circle class="st0" cx="53.7" cy="12.7" r="1.6"/>
		<circle class="st0" cx="53.7" cy="8.9" r="1.6"/>
		<circle class="st0" cx="53.7" cy="25.7" r="1.6"/>
		<circle class="st0" cx="56.7" cy="19.4" r="1.6"/>
		<circle class="st0" cx="53.7" cy="22.4" r="1.8"/>
		<circle class="st0" cx="56.7" cy="22.4" r="1.8"/>
		<circle class="st0" cx="56.7" cy="26" r="1.8"/>
		<circle class="st0" cx="60.1" cy="19.4" r="1.6"/>
		<circle class="st0" cx="60.1" cy="25.7" r="1.6"/>
		<circle class="st0" cx="56.7" cy="16.1" r="1.6"/>
		<circle class="st0" cx="56.7" cy="10.6" r="1.6"/>
		<circle class="st0" cx="56.7" cy="6.6" r="1.6"/>
		<circle class="st0" cx="60.1" cy="16.1" r="1.6"/>
		<circle class="st0" cx="60.1" cy="7.7" r="1.6"/>
		<circle class="st0" cx="70" cy="7.7" r="1.6"/>
		<circle class="st0" cx="70" cy="10.8" r="1.6"/>
		<circle class="st0" cx="71.6" cy="4.8" r="1.6"/>
		<circle class="st0" cx="63.6" cy="5.6" r="1.6"/>
		<circle class="st0" cx="60.1" cy="22.4" r="1.8"/>
		<circle class="st0" cx="56.7" cy="13.3" r="1"/>
		<circle class="st0" cx="72.1" cy="1.8" r="1.2"/>
		<circle class="st0" cx="60.1" cy="13.2" r="1.2"/>
		<circle class="st0" cx="60.1" cy="10.8" r="1.2"/>
		<circle class="st0" cx="63.5" cy="17.3" r="1.6"/>
		<circle class="st0" cx="63.5" cy="14.1" r="1.6"/>
		<circle class="st0" cx="63.5" cy="11.2" r="1.2"/>
		<circle class="st0" cx="63.5" cy="20.3" r="1.2"/>
		<circle class="st0" cx="63.5" cy="22.8" r="1.2"/>
		<circle class="st0" cx="63.5" cy="8.7" r="1.2"/>
		<circle class="st0" cx="67" cy="2.1" r="2.1"/>
		<circle class="st0" cx="66.9" cy="14.2" r="1.6"/>
		<circle class="st0" cx="66.9" cy="11" r="1.6"/>
		<circle class="st0" cx="66.9" cy="8.1" r="1.2"/>
		<circle class="st0" cx="66.9" cy="17.2" r="1.2"/>
		<circle class="st0" cx="66.9" cy="5.6" r="1.2"/>
		<circle class="st0" cx="33.9" cy="25.3" r="1.8"/>
		<circle class="st0" cx="33.9" cy="28.3" r="1.6"/>
		<circle class="st0" cx="33.9" cy="31.3" r="1.4"/>
		<circle class="st0" cx="30" cy="40.4" r="1.1"/>
		<circle class="st0" cx="32.9" cy="33.7" r="0.7"/>
		<circle class="st0" cx="16.1" cy="5.1" r="0.7"/>
		<circle class="st0" cx="9" cy="19.4" r="0.7"/>
		<circle class="st0" cx="12.4" cy="24.5" r="0.7"/>
		<circle class="st0" cx="5.5" cy="13.2" r="0.7"/>
		<circle class="st0" cx="26.3" cy="12" r="0.7"/>
		<circle class="st0" cx="32.8" cy="20.2" r="0.5"/>
		<circle class="st0" cx="22.5" cy="51.7" r="0.5"/>
		<circle class="st0" cx="30.6" cy="19.4" r="1.6"/>
		<circle class="st0" cx="27.6" cy="19.4" r="1.6"/>
		<circle class="st0" cx="30.6" cy="22.4" r="1.8"/>
		<circle class="st0" cx="27.6" cy="22.4" r="1.8"/>
		<circle class="st0" cx="30.6" cy="25.3" r="1.8"/>
		<circle class="st0" cx="27.6" cy="25.3" r="1.8"/>
		<circle class="st0" cx="30.6" cy="28.3" r="1.6"/>
		<circle class="st0" cx="27.6" cy="28.3" r="1.6"/>
		<circle class="st0" cx="30.6" cy="31.3" r="1.5"/>
		<circle class="st0" cx="27.6" cy="31.3" r="1.5"/>
		<circle class="st0" cx="27.6" cy="43.2" r="1.4"/>
		<circle class="st0" cx="26.6" cy="48.3" r="1.1"/>
		<circle class="st0" cx="24.2" cy="52.5" r="1"/>
		<circle class="st0" cx="23.3" cy="54.4" r="1"/>
		<circle class="st0" cx="24.2" cy="19.4" r="1.6"/>
		<circle class="st0" cx="27.6" cy="16.1" r="1.6"/>
		<circle class="st0" cx="24.2" cy="16.1" r="1.6"/>
		<circle class="st0" cx="24.2" cy="22.4" r="1.8"/>
		<circle class="st0" cx="24.2" cy="25.3" r="1.8"/>
		<circle class="st0" cx="24.2" cy="28.3" r="1.6"/>
		<circle class="st0" cx="24.2" cy="31.3" r="1.5"/>
		<circle class="st0" cx="24.2" cy="43.2" r="1.4"/>
		<circle class="st0" cx="24.2" cy="48.4" r="1.1"/>
		<circle class="st0" cx="24.2" cy="50.5" r="1"/>
		<circle class="st0" cx="27.4" cy="13.3" r="1"/>
		<circle class="st0" cx="17.6" cy="50.5" r="1"/>
		<circle class="st0" cx="21" cy="51.2" r="1"/>
		<circle class="st0" cx="5.8" cy="4.7" r="0.9"/>
		<circle class="st0" cx="19.1" cy="29.7" r="0.5"/>
		<circle class="st0" cx="21" cy="31.2" r="1.5"/>
		<circle class="st0" cx="30.6" cy="34.2" r="1.6"/>
		<circle class="st0" cx="27.6" cy="34.2" r="1.6"/>
		<circle class="st0" cx="27.6" cy="40.4" r="1.5"/>
		<circle class="st0" cx="24.2" cy="34.2" r="1.6"/>
		<circle class="st0" cx="21" cy="34.2" r="1.6"/>
		<circle class="st0" cx="21" cy="48.6" r="1.6"/>
		<circle class="st0" cx="17.6" cy="53.1" r="1.6"/>
		<circle class="st0" cx="14.4" cy="53.1" r="1.6"/>
		<circle class="st0" cx="24.2" cy="40.4" r="1.5"/>
		<circle class="st0" cx="21" cy="40.4" r="1.5"/>
		<circle class="st0" cx="21" cy="43.1" r="1.4"/>
		<circle class="st0" cx="15.2" cy="46" r="1.1"/>
		<circle class="st0" cx="21" cy="28.7" r="1.1"/>
		<circle class="st0" cx="18.1" cy="31.5" r="1.1"/>
		<circle class="st0" cx="30.1" cy="42.8" r="1"/>
		<circle class="st0" cx="15.7" cy="48.3" r="0.5"/>
		<circle class="st0" cx="13.5" cy="58.5" r="0.5"/>
		<circle class="st0" cx="10.4" cy="57.6" r="0.5"/>
		<circle class="st0" cx="17.6" cy="43.2" r="1.4"/>
		<circle class="st0" cx="16.9" cy="55.7" r="1.1"/>
		<circle class="st0" cx="27.6" cy="45.9" r="1.4"/>
		<circle class="st0" cx="24.2" cy="45.9" r="1.4"/>
		<circle class="st0" cx="21" cy="45.9" r="1.4"/>
		<circle class="st0" cx="21" cy="53.6" r="1.4"/>
		<circle class="st0" cx="17.6" cy="45.9" r="1.4"/>
		<circle class="st0" cx="17.6" cy="48.4" r="1.1"/>
		<circle class="st0" cx="15.2" cy="57.3" r="1"/>
		<circle class="st0" cx="15" cy="43" r="1"/>
		<circle class="st0" cx="12.4" cy="57" r="1"/>
		<circle class="st0" cx="16.9" cy="57.8" r="0.5"/>
		<circle class="st0" cx="9.8" cy="53.8" r="0.5"/>
		<circle class="st0" cx="16.2" cy="32.4" r="0.5"/>
		<circle class="st0" cx="9.5" cy="21" r="0.5"/>
		<circle class="st0" cx="13.7" cy="55.4" r="1.1"/>
		<circle class="st0" cx="10.9" cy="55.4" r="1.1"/>
		<circle class="st0" cx="8.4" cy="55.8" r="1.1"/>
		<circle class="st0" cx="4.9" cy="1.1" r="1.1"/>
		<circle class="st0" cx="11.7" cy="53" r="1.1"/>
		<circle class="st0" cx="15.5" cy="50.4" r="1.1"/>
		<circle class="st0" cx="19.1" cy="55.5" r="1"/>
		<circle class="st0" cx="26.6" cy="50.5" r="1"/>
		<circle class="st0" cx="17.6" cy="34.2" r="1.6"/>
		<circle class="st0" cx="32.9" cy="36.6" r="0.7"/>
		<circle class="st0" cx="30.6" cy="37.2" r="1.6"/>
		<circle class="st0" cx="27.6" cy="37.2" r="1.6"/>
		<circle class="st0" cx="24.2" cy="37.2" r="1.6"/>
		<circle class="st0" cx="21" cy="37.2" r="1.6"/>
		<circle class="st0" cx="17.6" cy="37.2" r="1.6"/>
		<circle class="st0" cx="17.6" cy="40.4" r="1.5"/>
		<circle class="st0" cx="30.6" cy="16.5" r="1.2"/>
		<circle class="st0" cx="14" cy="3.9" r="1.2"/>
		<circle class="st0" cx="24.2" cy="13.2" r="1.2"/>
		<circle class="st0" cx="24.2" cy="10.8" r="1.2"/>
		<circle class="st0" cx="11.3" cy="2.4" r="1.2"/>
		<circle class="st0" cx="21" cy="19.4" r="1.6"/>
		<circle class="st0" cx="21" cy="16.1" r="1.6"/>
		<circle class="st0" cx="21" cy="12.7" r="1.6"/>
		<circle class="st0" cx="21" cy="8.9" r="1.6"/>
		<circle class="st0" cx="21" cy="25.7" r="1.6"/>
		<circle class="st0" cx="18" cy="19.4" r="1.6"/>
		<circle class="st0" cx="21" cy="22.4" r="1.8"/>
		<circle class="st0" cx="18" cy="22.4" r="1.8"/>
		<circle class="st0" cx="18" cy="26" r="1.8"/>
		<circle class="st0" cx="14.6" cy="19.4" r="1.6"/>
		<circle class="st0" cx="14.6" cy="25.7" r="1.6"/>
		<circle class="st0" cx="18" cy="16.1" r="1.6"/>
		<circle class="st0" cx="18" cy="10.6" r="1.6"/>
		<circle class="st0" cx="18" cy="6.6" r="1.6"/>
		<circle class="st0" cx="14.6" cy="16.1" r="1.6"/>
		<circle class="st0" cx="14.6" cy="7.7" r="1.6"/>
		<circle class="st0" cx="4.7" cy="7.7" r="1.6"/>
		<circle class="st0" cx="4.7" cy="10.8" r="1.6"/>
		<circle class="st0" cx="3.1" cy="4.8" r="1.6"/>
		<circle class="st0" cx="11.1" cy="5.6" r="1.6"/>
		<circle class="st0" cx="14.6" cy="22.4" r="1.8"/>
		<circle class="st0" cx="18" cy="13.3" r="1"/>
		<circle class="st0" cx="14.6" cy="13.2" r="1.2"/>
		<circle class="st0" cx="14.6" cy="10.8" r="1.2"/>
		<circle class="st0" cx="11.2" cy="17.3" r="1.6"/>
		<circle class="st0" cx="11.2" cy="14.1" r="1.6"/>
		<circle class="st0" cx="11.2" cy="11.2" r="1.2"/>
		<circle class="st0" cx="11.2" cy="20.3" r="1.2"/>
		<circle class="st0" cx="11.2" cy="22.8" r="1.2"/>
		<circle class="st0" cx="11.2" cy="8.7" r="1.2"/>
		<circle class="st0" cx="7.7" cy="2.1" r="2"/>
		<circle class="st0" cx="7.8" cy="14.2" r="1.6"/>
		<circle class="st0" cx="7.8" cy="11" r="1.6"/>
		<circle class="st0" cx="7.8" cy="8.1" r="1.2"/>
		<circle class="st0" cx="7.8" cy="17.2" r="1.2"/>
		<circle class="st0" cx="7.8" cy="5.6" r="1.2"/>
		<circle class="st0" cx="37.1" cy="26.1" r="1.5"/>
		<circle class="st0" cx="37.1" cy="28.9" r="1.8"/>
		<circle class="st0" cx="37.1" cy="31.8" r="1.5"/>
		<circle class="st0" cx="37.1" cy="34.6" r="1.3"/>
		<circle class="st0" cx="37.1" cy="22.9" r="0.9"/>
		<circle class="st0" cx="37.1" cy="39.5" r="0.9"/>
		<circle class="st0" cx="37.1" cy="41.5" r="0.9"/>
		<circle class="st0" cx="37.1" cy="26.1" r="1.6"/>
		<circle class="st0" cx="37.1" cy="22.8" r="1.6"/>
		<circle class="st0" cx="37.1" cy="28.9" r="1.7"/>
		<circle class="st0" cx="37.1" cy="31.8" r="1.5"/>
		<circle class="st0" cx="37.1" cy="34.6" r="1.3"/>
		<circle class="st0" cx="37.1" cy="37.1" r="1.3"/>
	</g>
</g>
</svg>
