<?xml version="1.0" encoding="utf-8"?>
<!-- Generator: Adobe Illustrator 26.3.1, SVG Export Plug-In . SVG Version: 6.00 Build 0)  -->
<svg version="1.1" id="圖層_1" xmlns="http://www.w3.org/2000/svg" xmlns:xlink="http://www.w3.org/1999/xlink" x="0px" y="0px"
	 viewBox="0 0 34 34" style="enable-background:new 0 0 34 34;" xml:space="preserve">
<g>
	<circle cx="15.58" cy="12.25" r="0.31"/>
	<circle cx="17.07" cy="12.43" r="0.4"/>
	<circle cx="15.31" cy="22.23" r="0.4"/>
	<circle cx="19.05" cy="22.23" r="0.4"/>
	<circle cx="18.28" cy="12.25" r="0.31"/>
	<circle cx="17.07" cy="11.35" r="0.31"/>
	<circle cx="15.63" cy="11.3" r="0.31"/>
	<circle cx="14.42" cy="11.21" r="0.18"/>
	<circle cx="18.01" cy="11.26" r="0.13"/>
	<circle cx="15.36" cy="23.3" r="0.31"/>
	<circle cx="19.14" cy="23.57" r="0.31"/>
	<circle cx="7.27" cy="22.72" r="0.4"/>
	<circle cx="5.56" cy="16.56" r="0.31"/>
	<circle cx="18.42" cy="21.37" r="0.31"/>
	<circle cx="18.46" cy="19.98" r="0.31"/>
	<circle cx="27.9" cy="21.1" r="0.31"/>
	<circle cx="4.48" cy="15.3" r="0.18"/>
	<circle cx="16.17" cy="21.33" r="0.13"/>
	<circle cx="15.4" cy="24.29" r="0.13"/>
	<circle cx="19.27" cy="13.06" r="0.13"/>
	<circle cx="19.09" cy="22.99" r="0.13"/>
	<circle cx="4.75" cy="17.01" r="0.18"/>
	<circle cx="16.03" cy="20.25" r="0.13"/>
	<circle cx="19.27" cy="11.3" r="0.13"/>
	<circle cx="7.31" cy="18.81" r="0.13"/>
	<circle cx="7.22" cy="20.52" r="0.13"/>
	<circle cx="6.5" cy="20.52" r="0.13"/>
	<circle cx="19.27" cy="10.63" r="0.13"/>
	<circle cx="20.44" cy="10.63" r="0.13"/>
	<circle cx="20.44" cy="11.21" r="0.13"/>
	<circle cx="19.27" cy="12.25" r="0.31"/>
	<circle cx="17.07" cy="13.5" r="0.31"/>
	<circle cx="8.26" cy="17.87" r="0.27"/>
	<circle cx="19.27" cy="12.16" r="0.04"/>
	<circle cx="19.81" cy="22.9" r="0.27"/>
	<circle cx="32.08" cy="11.84" r="0.27"/>
	<circle cx="27.86" cy="17.51" r="0.27"/>
	<circle cx="27.86" cy="19.48" r="0.27"/>
	<circle cx="30.24" cy="29.69" r="0.31"/>
	<circle cx="6.01" cy="18.13" r="0.27"/>
	<circle cx="7.22" cy="19.71" r="0.27"/>
	<circle cx="7.22" cy="21.96" r="0.13"/>
	<circle cx="6.5" cy="21.96" r="0.13"/>
	<circle cx="7.22" cy="21.19" r="0.27"/>
	<circle cx="28.8" cy="17.51" r="0.27"/>
	<circle cx="28.8" cy="16.65" r="0.27"/>
	<circle cx="29.65" cy="16.65" r="0.27"/>
	<circle cx="29.56" cy="17.55" r="0.13"/>
	<circle cx="31.99" cy="12.79" r="0.27"/>
	<circle cx="7.31" cy="17.91" r="0.27"/>
	<circle cx="6.01" cy="19.08" r="0.27"/>
	<circle cx="31.09" cy="14.9" r="0.13"/>
	<circle cx="26.28" cy="17.69" r="0.13"/>
	<circle cx="27.9" cy="20.38" r="0.13"/>
	<circle cx="31" cy="29.73" r="0.13"/>
	<circle cx="27.9" cy="18.58" r="0.13"/>
	<circle cx="26.96" cy="18.45" r="0.27"/>
	<rect x="4.48" y="16.97" width="0" height="0"/>
	<rect x="26.78" y="18.4" width="0" height="0"/>
	<circle cx="1.42" cy="8.38" r="0.54"/>
	<circle cx="0.84" cy="7.03" r="0.31"/>
	<circle cx="1.74" cy="5.55" r="0.54"/>
	<circle cx="18.87" cy="16.11" r="0.81"/>
	<circle cx="18.87" cy="17.46" r="0.72"/>
	<circle cx="18.87" cy="18.81" r="0.63"/>
	<circle cx="20.62" cy="22.9" r="0.49"/>
	<circle cx="19.32" cy="19.89" r="0.31"/>
	<circle cx="26.87" cy="7.03" r="0.31"/>
	<circle cx="30.06" cy="13.46" r="0.31"/>
	<circle cx="28.53" cy="15.75" r="0.31"/>
	<circle cx="31.63" cy="10.67" r="0.31"/>
	<circle cx="22.28" cy="10.13" r="0.31"/>
	<circle cx="19.36" cy="13.82" r="0.22"/>
	<circle cx="23.99" cy="27.98" r="0.22"/>
	<circle cx="20.35" cy="13.46" r="0.72"/>
	<circle cx="21.7" cy="13.46" r="0.72"/>
	<circle cx="20.35" cy="14.81" r="0.81"/>
	<circle cx="21.7" cy="14.81" r="0.81"/>
	<circle cx="20.35" cy="16.11" r="0.81"/>
	<circle cx="21.7" cy="16.11" r="0.81"/>
	<circle cx="20.35" cy="17.46" r="0.72"/>
	<circle cx="21.7" cy="17.46" r="0.72"/>
	<circle cx="20.35" cy="18.81" r="0.67"/>
	<circle cx="21.7" cy="18.81" r="0.67"/>
	<circle cx="21.7" cy="24.16" r="0.63"/>
	<circle cx="22.15" cy="26.45" r="0.49"/>
	<circle cx="23.23" cy="28.34" r="0.45"/>
	<circle cx="23.63" cy="29.19" r="0.45"/>
	<circle cx="23.23" cy="13.46" r="0.72"/>
	<circle cx="21.7" cy="11.98" r="0.72"/>
	<circle cx="23.23" cy="11.98" r="0.72"/>
	<circle cx="23.23" cy="14.81" r="0.81"/>
	<circle cx="23.23" cy="16.11" r="0.81"/>
	<circle cx="23.23" cy="17.46" r="0.72"/>
	<circle cx="23.23" cy="18.81" r="0.67"/>
	<circle cx="23.23" cy="24.16" r="0.63"/>
	<circle cx="23.23" cy="26.5" r="0.49"/>
	<circle cx="18.37" cy="14.04" r="0.45"/>
	<circle cx="23.23" cy="27.44" r="0.45"/>
	<circle cx="21.79" cy="10.72" r="0.45"/>
	<circle cx="26.24" cy="27.44" r="0.45"/>
	<circle cx="24.66" cy="27.75" r="0.45"/>
	<circle cx="31.5" cy="6.85" r="0.4"/>
	<circle cx="25.52" cy="18.09" r="0.22"/>
	<circle cx="24.66" cy="18.76" r="0.67"/>
	<circle cx="20.35" cy="20.11" r="0.72"/>
	<circle cx="21.7" cy="20.11" r="0.72"/>
	<circle cx="21.7" cy="22.9" r="0.67"/>
	<circle cx="23.23" cy="20.11" r="0.72"/>
	<circle cx="24.66" cy="20.11" r="0.72"/>
	<circle cx="24.66" cy="26.59" r="0.72"/>
	<circle cx="26.24" cy="28.61" r="0.72"/>
	<circle cx="27.59" cy="28.56" r="0.63"/>
	<circle cx="23.23" cy="22.9" r="0.67"/>
	<circle cx="24.66" cy="22.9" r="0.67"/>
	<circle cx="24.66" cy="24.11" r="0.63"/>
	<circle cx="27.27" cy="25.42" r="0.49"/>
	<circle cx="24.66" cy="17.64" r="0.49"/>
	<circle cx="25.97" cy="18.9" r="0.49"/>
	<circle cx="20.62" cy="23.98" r="0.45"/>
	<circle cx="27.05" cy="26.45" r="0.22"/>
	<circle cx="29.65" cy="30.86" r="0.22"/>
	<circle cx="18.33" cy="13.1" r="0.22"/>
	<circle cx="15.9" cy="13.1" r="0.22"/>
	<circle cx="26.24" cy="24.16" r="0.63"/>
	<circle cx="26.51" cy="29.78" r="0.49"/>
	<circle cx="21.7" cy="25.37" r="0.63"/>
	<circle cx="23.23" cy="25.37" r="0.63"/>
	<circle cx="24.66" cy="25.37" r="0.63"/>
	<circle cx="24.66" cy="28.83" r="0.63"/>
	<circle cx="26.24" cy="25.37" r="0.63"/>
	<circle cx="26.24" cy="26.5" r="0.49"/>
	<circle cx="27.27" cy="30.5" r="0.45"/>
	<circle cx="27.36" cy="24.07" r="0.45"/>
	<circle cx="28.53" cy="30.36" r="0.45"/>
	<circle cx="26.51" cy="30.72" r="0.22"/>
	<circle cx="29.7" cy="28.92" r="0.22"/>
	<circle cx="26.82" cy="19.3" r="0.22"/>
	<circle cx="29.83" cy="14.18" r="0.22"/>
	<circle cx="27.95" cy="29.64" r="0.49"/>
	<circle cx="29.25" cy="29.64" r="0.49"/>
	<circle cx="31.99" cy="29.64" r="0.49"/>
	<circle cx="31.9" cy="5.23" r="0.49"/>
	<circle cx="28.84" cy="28.56" r="0.49"/>
	<circle cx="3.72" cy="13.73" r="0.49"/>
	<circle cx="27.14" cy="27.4" r="0.49"/>
	<circle cx="25.56" cy="29.69" r="0.45"/>
	<circle cx="31" cy="27.98" r="0.4"/>
	<circle cx="26.24" cy="20.11" r="0.72"/>
	<circle cx="19.32" cy="21.19" r="0.31"/>
	<circle cx="20.35" cy="21.46" r="0.72"/>
	<circle cx="21.7" cy="21.46" r="0.72"/>
	<circle cx="23.23" cy="21.46" r="0.72"/>
	<circle cx="24.66" cy="21.46" r="0.72"/>
	<circle cx="26.24" cy="21.46" r="0.72"/>
	<circle cx="26.24" cy="22.9" r="0.67"/>
	<circle cx="20.35" cy="12.16" r="0.54"/>
	<circle cx="18.96" cy="14.81" r="0.54"/>
	<circle cx="15.58" cy="14.81" r="0.54"/>
	<circle cx="27.81" cy="6.49" r="0.54"/>
	<circle cx="23.23" cy="10.67" r="0.54"/>
	<circle cx="23.23" cy="9.59" r="0.54"/>
	<circle cx="29.02" cy="5.82" r="0.54"/>
	<circle cx="24.66" cy="13.46" r="0.72"/>
	<circle cx="24.66" cy="11.98" r="0.72"/>
	<circle cx="24.66" cy="10.45" r="0.72"/>
	<circle cx="24.66" cy="8.74" r="0.72"/>
	<circle cx="24.66" cy="16.29" r="0.72"/>
	<circle cx="26.01" cy="13.46" r="0.72"/>
	<circle cx="24.66" cy="14.81" r="0.81"/>
	<circle cx="26.01" cy="14.81" r="0.81"/>
	<circle cx="26.01" cy="16.43" r="0.81"/>
	<circle cx="27.54" cy="13.46" r="0.72"/>
	<circle cx="27.54" cy="16.29" r="0.72"/>
	<circle cx="26.01" cy="11.98" r="0.72"/>
	<circle cx="26.01" cy="9.5" r="0.72"/>
	<circle cx="26.01" cy="7.71" r="0.72"/>
	<circle cx="27.54" cy="11.98" r="0.72"/>
	<circle cx="27.54" cy="8.2" r="0.72"/>
	<circle cx="31.99" cy="8.2" r="0.72"/>
	<circle cx="31.99" cy="9.59" r="0.72"/>
	<circle cx="32.71" cy="6.9" r="0.72"/>
	<circle cx="29.11" cy="7.26" r="0.72"/>
	<circle cx="27.54" cy="14.81" r="0.81"/>
	<circle cx="26.01" cy="10.72" r="0.45"/>
	<circle cx="32.94" cy="5.55" r="0.54"/>
	<circle cx="27.54" cy="10.67" r="0.54"/>
	<circle cx="27.54" cy="9.59" r="0.54"/>
	<circle cx="29.07" cy="12.52" r="0.72"/>
	<circle cx="29.07" cy="11.08" r="0.72"/>
	<circle cx="29.07" cy="9.77" r="0.54"/>
	<circle cx="29.07" cy="13.86" r="0.54"/>
	<circle cx="29.07" cy="14.99" r="0.54"/>
	<circle cx="29.07" cy="8.65" r="0.54"/>
	<circle cx="30.64" cy="5.68" r="0.94"/>
	<circle cx="30.6" cy="11.12" r="0.72"/>
	<circle cx="30.6" cy="9.68" r="0.72"/>
	<circle cx="30.6" cy="8.38" r="0.54"/>
	<circle cx="30.6" cy="12.47" r="0.54"/>
	<circle cx="30.6" cy="7.26" r="0.54"/>
	<circle cx="15.76" cy="16.11" r="0.81"/>
	<circle cx="15.76" cy="17.46" r="0.72"/>
	<circle cx="15.76" cy="18.81" r="0.63"/>
	<circle cx="14.01" cy="22.9" r="0.49"/>
	<circle cx="15.31" cy="19.89" r="0.31"/>
	<circle cx="7.76" cy="7.03" r="0.31"/>
	<circle cx="4.57" cy="13.46" r="0.31"/>
	<circle cx="6.1" cy="15.75" r="0.31"/>
	<circle cx="3" cy="10.67" r="0.31"/>
	<circle cx="12.35" cy="10.13" r="0.31"/>
	<circle cx="15.27" cy="13.82" r="0.22"/>
	<circle cx="10.64" cy="27.98" r="0.22"/>
	<circle cx="14.28" cy="13.46" r="0.72"/>
	<circle cx="12.93" cy="13.46" r="0.72"/>
	<circle cx="14.28" cy="14.81" r="0.81"/>
	<circle cx="12.93" cy="14.81" r="0.81"/>
	<circle cx="14.28" cy="16.11" r="0.81"/>
	<circle cx="12.93" cy="16.11" r="0.81"/>
	<circle cx="14.28" cy="17.46" r="0.72"/>
	<circle cx="12.93" cy="17.46" r="0.72"/>
	<circle cx="14.28" cy="18.81" r="0.67"/>
	<circle cx="12.93" cy="18.81" r="0.67"/>
	<circle cx="12.93" cy="24.16" r="0.63"/>
	<circle cx="12.48" cy="26.45" r="0.49"/>
	<circle cx="11.4" cy="28.34" r="0.45"/>
	<circle cx="11" cy="29.19" r="0.45"/>
	<circle cx="11.4" cy="13.46" r="0.72"/>
	<circle cx="12.93" cy="11.98" r="0.72"/>
	<circle cx="11.4" cy="11.98" r="0.72"/>
	<circle cx="11.4" cy="14.81" r="0.81"/>
	<circle cx="11.4" cy="16.11" r="0.81"/>
	<circle cx="11.4" cy="17.46" r="0.72"/>
	<circle cx="11.4" cy="18.81" r="0.67"/>
	<circle cx="11.4" cy="24.16" r="0.63"/>
	<circle cx="11.4" cy="26.5" r="0.49"/>
	<circle cx="11.4" cy="27.44" r="0.45"/>
	<circle cx="12.84" cy="10.72" r="0.45"/>
	<circle cx="8.44" cy="27.44" r="0.45"/>
	<circle cx="9.96" cy="27.75" r="0.45"/>
	<circle cx="3.13" cy="6.85" r="0.4"/>
	<circle cx="9.11" cy="18.09" r="0.22"/>
	<circle cx="9.96" cy="18.76" r="0.67"/>
	<circle cx="14.28" cy="20.11" r="0.72"/>
	<circle cx="12.93" cy="20.11" r="0.72"/>
	<circle cx="12.93" cy="22.9" r="0.67"/>
	<circle cx="11.4" cy="20.11" r="0.72"/>
	<circle cx="9.96" cy="20.11" r="0.72"/>
	<circle cx="9.96" cy="26.59" r="0.72"/>
	<circle cx="8.44" cy="28.61" r="0.72"/>
	<circle cx="7" cy="28.61" r="0.72"/>
	<circle cx="11.4" cy="22.9" r="0.67"/>
	<circle cx="9.96" cy="22.9" r="0.67"/>
	<circle cx="9.96" cy="24.11" r="0.63"/>
	<circle cx="7.36" cy="25.42" r="0.49"/>
	<circle cx="9.96" cy="17.64" r="0.49"/>
	<circle cx="8.66" cy="18.9" r="0.49"/>
	<circle cx="14.06" cy="23.98" r="0.45"/>
	<circle cx="7.58" cy="26.45" r="0.22"/>
	<circle cx="6.59" cy="31.04" r="0.22"/>
	<circle cx="5.2" cy="30.63" r="0.22"/>
	<circle cx="8.44" cy="24.16" r="0.63"/>
	<circle cx="8.12" cy="29.78" r="0.49"/>
	<circle cx="12.93" cy="25.37" r="0.63"/>
	<circle cx="11.4" cy="25.37" r="0.63"/>
	<circle cx="9.96" cy="25.37" r="0.63"/>
	<circle cx="9.96" cy="28.83" r="0.63"/>
	<circle cx="8.44" cy="25.37" r="0.63"/>
	<circle cx="8.44" cy="26.5" r="0.49"/>
	<circle cx="7.36" cy="30.5" r="0.45"/>
	<circle cx="7.27" cy="24.07" r="0.45"/>
	<circle cx="6.1" cy="30.36" r="0.45"/>
	<circle cx="8.12" cy="30.72" r="0.22"/>
	<circle cx="4.93" cy="28.92" r="0.22"/>
	<circle cx="7.81" cy="19.3" r="0.22"/>
	<circle cx="4.8" cy="14.18" r="0.22"/>
	<circle cx="6.68" cy="29.64" r="0.49"/>
	<circle cx="5.42" cy="29.64" r="0.49"/>
	<circle cx="4.3" cy="29.82" r="0.49"/>
	<circle cx="2.73" cy="5.23" r="0.49"/>
	<circle cx="5.78" cy="28.56" r="0.49"/>
	<circle cx="7.49" cy="27.4" r="0.49"/>
	<circle cx="9.11" cy="29.69" r="0.45"/>
	<circle cx="12.48" cy="27.44" r="0.45"/>
	<circle cx="8.44" cy="20.11" r="0.72"/>
	<circle cx="15.31" cy="21.19" r="0.31"/>
	<circle cx="14.28" cy="21.46" r="0.72"/>
	<circle cx="12.93" cy="21.46" r="0.72"/>
	<circle cx="11.4" cy="21.46" r="0.72"/>
	<circle cx="9.96" cy="21.46" r="0.72"/>
	<circle cx="8.44" cy="21.46" r="0.72"/>
	<circle cx="8.44" cy="22.9" r="0.67"/>
	<circle cx="14.28" cy="12.16" r="0.54"/>
	<circle cx="6.82" cy="6.49" r="0.54"/>
	<circle cx="11.4" cy="10.67" r="0.54"/>
	<circle cx="11.4" cy="9.59" r="0.54"/>
	<circle cx="5.6" cy="5.82" r="0.54"/>
	<circle cx="9.96" cy="13.46" r="0.72"/>
	<circle cx="9.96" cy="11.98" r="0.72"/>
	<circle cx="9.96" cy="10.45" r="0.72"/>
	<circle cx="9.96" cy="8.74" r="0.72"/>
	<circle cx="9.96" cy="16.29" r="0.72"/>
	<circle cx="8.62" cy="13.46" r="0.72"/>
	<circle cx="9.96" cy="14.81" r="0.81"/>
	<circle cx="8.62" cy="14.81" r="0.81"/>
	<circle cx="8.62" cy="16.43" r="0.81"/>
	<circle cx="7.09" cy="13.46" r="0.72"/>
	<circle cx="7.09" cy="16.29" r="0.72"/>
	<circle cx="8.62" cy="11.98" r="0.72"/>
	<circle cx="8.62" cy="9.5" r="0.72"/>
	<circle cx="8.62" cy="7.71" r="0.72"/>
	<circle cx="7.09" cy="11.98" r="0.72"/>
	<circle cx="7.09" cy="8.2" r="0.72"/>
	<circle cx="2.64" cy="8.2" r="0.72"/>
	<circle cx="2.64" cy="9.59" r="0.72"/>
	<circle cx="1.92" cy="6.9" r="0.72"/>
	<circle cx="5.51" cy="7.26" r="0.72"/>
	<circle cx="7.09" cy="14.81" r="0.81"/>
	<circle cx="8.62" cy="10.72" r="0.45"/>
	<circle cx="7.09" cy="10.67" r="0.54"/>
	<circle cx="7.09" cy="9.59" r="0.54"/>
	<circle cx="5.56" cy="12.52" r="0.72"/>
	<circle cx="5.56" cy="11.08" r="0.72"/>
	<circle cx="5.56" cy="9.77" r="0.54"/>
	<circle cx="5.56" cy="13.86" r="0.54"/>
	<circle cx="5.56" cy="14.99" r="0.54"/>
	<circle cx="5.56" cy="8.65" r="0.54"/>
	<circle cx="3.99" cy="5.68" r="0.9"/>
	<circle cx="4.03" cy="11.12" r="0.72"/>
	<circle cx="4.03" cy="9.68" r="0.72"/>
	<circle cx="4.03" cy="8.38" r="0.54"/>
	<circle cx="4.03" cy="12.47" r="0.54"/>
	<circle cx="4.03" cy="7.26" r="0.54"/>
	<circle cx="17.2" cy="16.47" r="0.67"/>
	<circle cx="17.2" cy="17.73" r="0.81"/>
	<circle cx="17.2" cy="19.03" r="0.67"/>
	<circle cx="17.2" cy="20.29" r="0.58"/>
	<circle cx="17.2" cy="15.03" r="0.4"/>
	<circle cx="17.2" cy="22.5" r="0.4"/>
	<circle cx="17.2" cy="23.39" r="0.4"/>
	<circle cx="17.2" cy="16.47" r="0.72"/>
	<circle cx="17.2" cy="14.99" r="0.72"/>
	<circle cx="17.2" cy="17.73" r="0.76"/>
	<circle cx="17.2" cy="19.03" r="0.67"/>
	<circle cx="17.2" cy="20.29" r="0.58"/>
	<circle cx="17.2" cy="21.42" r="0.58"/>
</g>
</svg>
