<svg xmlns="http://www.w3.org/2000/svg" viewBox="0 0 60.55 48.72"><defs><style>.cls-1{fill:#e5c926;}</style></defs><title>資產 5</title><g id="圖層_2" data-name="圖層 2"><g id="homepage"><circle class="cls-1" cx="27.72" cy="13.76" r="0.54"/><circle class="cls-1" cx="30.37" cy="14.14" r="0.74"/><circle class="cls-1" cx="27.19" cy="32.16" r="0.74"/><circle class="cls-1" cx="34" cy="32.16" r="0.74"/><circle class="cls-1" cx="32.6" cy="13.76" r="0.54"/><circle class="cls-1" cx="30.37" cy="12.12" r="0.54"/><circle class="cls-1" cx="27.77" cy="12.06" r="0.54"/><circle class="cls-1" cx="25.56" cy="11.88" r="0.29"/><circle class="cls-1" cx="32.17" cy="12.01" r="0.29"/><circle class="cls-1" cx="27.29" cy="34.14" r="0.54"/><circle class="cls-1" cx="34.19" cy="34.63" r="0.54"/><circle class="cls-1" cx="12.42" cy="33.05" r="0.74"/><circle class="cls-1" cx="9.29" cy="21.74" r="0.54"/><circle class="cls-1" cx="32.9" cy="30.54" r="0.54"/><circle class="cls-1" cx="32.95" cy="28.03" r="0.54"/><circle class="cls-1" cx="50.35" cy="30.06" r="0.54"/><circle class="cls-1" cx="7.3" cy="19.38" r="0.29"/><circle class="cls-1" cx="28.78" cy="30.48" r="0.29"/><circle class="cls-1" cx="27.32" cy="35.98" r="0.29"/><circle class="cls-1" cx="34.47" cy="15.28" r="0.29"/><circle class="cls-1" cx="34.11" cy="33.53" r="0.29"/><circle class="cls-1" cx="7.74" cy="22.53" r="0.29"/><circle class="cls-1" cx="28.48" cy="28.51" r="0.29"/><circle class="cls-1" cx="34.42" cy="12.1" r="0.28"/><circle class="cls-1" cx="12.44" cy="25.87" r="0.28"/><circle class="cls-1" cx="12.34" cy="29" r="0.28"/><circle class="cls-1" cx="10.96" cy="29" r="0.28"/><circle class="cls-1" cx="34.42" cy="10.79" r="0.28"/><circle class="cls-1" cx="36.63" cy="10.79" r="0.28"/><circle class="cls-1" cx="36.63" cy="11.88" r="0.28"/><circle class="cls-1" cx="34.42" cy="13.8" r="0.54"/><circle class="cls-1" cx="30.37" cy="16.13" r="0.54"/><circle class="cls-1" cx="14.19" cy="24.1" r="0.5"/><circle class="cls-1" cx="34.42" cy="13.68" r="0.05"/><circle class="cls-1" cx="35.47" cy="33.38" r="0.5"/><circle class="cls-1" cx="58.01" cy="13.06" r="0.5"/><circle class="cls-1" cx="50.28" cy="23.48" r="0.5"/><circle class="cls-1" cx="50.28" cy="27.07" r="0.5"/><circle class="cls-1" cx="54.6" cy="45.9" r="0.54"/><circle class="cls-1" cx="10.07" cy="24.6" r="0.5"/><circle class="cls-1" cx="12.28" cy="27.53" r="0.5"/><circle class="cls-1" cx="12.34" cy="31.69" r="0.28"/><circle class="cls-1" cx="10.96" cy="31.69" r="0.28"/><circle class="cls-1" cx="12.28" cy="30.22" r="0.5"/><circle class="cls-1" cx="52" cy="23.5" r="0.5"/><circle class="cls-1" cx="52" cy="21.88" r="0.5"/><circle class="cls-1" cx="53.55" cy="21.88" r="0.5"/><circle class="cls-1" cx="53.38" cy="23.54" r="0.27"/><circle class="cls-1" cx="57.82" cy="14.75" r="0.5"/><circle class="cls-1" cx="12.46" cy="24.18" r="0.5"/><circle class="cls-1" cx="10.13" cy="26.33" r="0.5"/><circle class="cls-1" cx="56.22" cy="18.66" r="0.27"/><circle class="cls-1" cx="47.37" cy="23.81" r="0.27"/><circle class="cls-1" cx="50.3" cy="28.73" r="0.25"/><circle class="cls-1" cx="56.04" cy="45.97" r="0.25"/><circle class="cls-1" cx="50.3" cy="25.45" r="0.25"/><circle class="cls-1" cx="48.57" cy="25.17" r="0.5"/><circle class="cls-1" cx="7.3" cy="22.51" r="0.04"/><circle class="cls-1" cx="48.29" cy="25.09" r="0.04"/><circle class="cls-1" cx="1.63" cy="6.67" r="1.01"/><circle class="cls-1" cx="0.56" cy="4.19" r="0.56"/><circle class="cls-1" cx="2.19" cy="1.5" r="1.01"/><circle class="cls-1" cx="33.74" cy="20.94" r="1.51"/><circle class="cls-1" cx="33.74" cy="23.4" r="1.32"/><circle class="cls-1" cx="33.74" cy="25.85" r="1.12"/><circle class="cls-1" cx="36.9" cy="33.38" r="0.93"/><circle class="cls-1" cx="34.56" cy="27.81" r="0.56"/><circle class="cls-1" cx="48.43" cy="4.19" r="0.56"/><circle class="cls-1" cx="54.33" cy="16.06" r="0.56"/><circle class="cls-1" cx="51.51" cy="20.28" r="0.56"/><circle class="cls-1" cx="57.18" cy="10.94" r="0.56"/><circle class="cls-1" cx="39.97" cy="9.94" r="0.56"/><circle class="cls-1" cx="34.6" cy="16.72" r="0.4"/><circle class="cls-1" cx="43.13" cy="42.76" r="0.4"/><circle class="cls-1" cx="36.47" cy="16.02" r="1.35"/><circle class="cls-1" cx="38.92" cy="16.02" r="1.35"/><circle class="cls-1" cx="36.47" cy="18.48" r="1.47"/><circle class="cls-1" cx="38.92" cy="18.48" r="1.47"/><circle class="cls-1" cx="36.47" cy="20.94" r="1.46"/><circle class="cls-1" cx="38.92" cy="20.94" r="1.46"/><circle class="cls-1" cx="36.47" cy="23.4" r="1.35"/><circle class="cls-1" cx="38.92" cy="23.4" r="1.35"/><circle class="cls-1" cx="36.47" cy="25.85" r="1.23"/><circle class="cls-1" cx="38.92" cy="25.85" r="1.23"/><circle class="cls-1" cx="38.92" cy="35.7" r="1.12"/><circle class="cls-1" cx="39.78" cy="39.95" r="0.9"/><circle class="cls-1" cx="41.75" cy="43.37" r="0.78"/><circle class="cls-1" cx="42.45" cy="44.98" r="0.78"/><circle class="cls-1" cx="41.71" cy="16.02" r="1.35"/><circle class="cls-1" cx="38.92" cy="13.31" r="1.35"/><circle class="cls-1" cx="41.71" cy="13.31" r="1.35"/><circle class="cls-1" cx="41.71" cy="18.48" r="1.47"/><circle class="cls-1" cx="41.71" cy="20.94" r="1.46"/><circle class="cls-1" cx="41.71" cy="23.4" r="1.35"/><circle class="cls-1" cx="41.71" cy="25.85" r="1.23"/><circle class="cls-1" cx="41.71" cy="35.7" r="1.12"/><circle class="cls-1" cx="41.71" cy="40.03" r="0.9"/><circle class="cls-1" cx="32.79" cy="17.1" r="0.78"/><circle class="cls-1" cx="41.71" cy="41.72" r="0.78"/><circle class="cls-1" cx="39.07" cy="11.02" r="0.78"/><circle class="cls-1" cx="47.23" cy="41.72" r="0.78"/><circle class="cls-1" cx="44.38" cy="42.28" r="0.78"/><circle class="cls-1" cx="56.98" cy="3.91" r="0.78"/><circle class="cls-1" cx="45.99" cy="24.55" r="0.4"/><circle class="cls-1" cx="44.38" cy="25.81" r="1.23"/><circle class="cls-1" cx="36.47" cy="28.29" r="1.35"/><circle class="cls-1" cx="38.92" cy="28.29" r="1.35"/><circle class="cls-1" cx="38.92" cy="33.42" r="1.23"/><circle class="cls-1" cx="41.71" cy="28.29" r="1.35"/><circle class="cls-1" cx="44.38" cy="28.29" r="1.35"/><circle class="cls-1" cx="44.38" cy="40.16" r="1.35"/><circle class="cls-1" cx="47.23" cy="43.86" r="1.35"/><circle class="cls-1" cx="49.79" cy="43.83" r="1.14"/><circle class="cls-1" cx="41.71" cy="33.42" r="1.23"/><circle class="cls-1" cx="44.38" cy="33.37" r="1.23"/><circle class="cls-1" cx="44.38" cy="35.65" r="1.12"/><circle class="cls-1" cx="49.2" cy="37.97" r="0.9"/><circle class="cls-1" cx="44.38" cy="23.69" r="0.9"/><circle class="cls-1" cx="46.75" cy="26.02" r="0.9"/><circle class="cls-1" cx="36.9" cy="35.41" r="0.78"/><circle class="cls-1" cx="48.76" cy="39.93" r="0.4"/><circle class="cls-1" cx="53.51" cy="48.01" r="0.4"/><circle class="cls-1" cx="32.72" cy="15.35" r="0.4"/><circle class="cls-1" cx="28.27" cy="15.35" r="0.4"/><circle class="cls-1" cx="47.23" cy="35.7" r="1.12"/><circle class="cls-1" cx="47.8" cy="46.02" r="0.93"/><circle class="cls-1" cx="38.92" cy="37.96" r="1.12"/><circle class="cls-1" cx="41.71" cy="37.96" r="1.12"/><circle class="cls-1" cx="44.38" cy="37.91" r="1.12"/><circle class="cls-1" cx="44.38" cy="44.26" r="1.12"/><circle class="cls-1" cx="47.23" cy="37.96" r="1.12"/><circle class="cls-1" cx="47.23" cy="40.03" r="0.9"/><circle class="cls-1" cx="49.16" cy="47.32" r="0.78"/><circle class="cls-1" cx="49.36" cy="35.55" r="0.78"/><circle class="cls-1" cx="51.45" cy="47.09" r="0.78"/><circle class="cls-1" cx="47.8" cy="47.76" r="0.4"/><circle class="cls-1" cx="53.66" cy="44.46" r="0.4"/><circle class="cls-1" cx="48.36" cy="26.77" r="0.4"/><circle class="cls-1" cx="53.88" cy="17.39" r="0.4"/><circle class="cls-1" cx="50.4" cy="45.82" r="0.9"/><circle class="cls-1" cx="52.77" cy="45.82" r="0.9"/><circle class="cls-1" cx="57.81" cy="45.82" r="0.9"/><circle class="cls-1" cx="57.66" cy="0.9" r="0.9"/><circle class="cls-1" cx="52.1" cy="43.8" r="0.9"/><circle class="cls-1" cx="5.9" cy="16.56" r="0.9"/><circle class="cls-1" cx="48.96" cy="41.69" r="0.9"/><circle class="cls-1" cx="45.99" cy="45.83" r="0.78"/><circle class="cls-1" cx="55.99" cy="42.72" r="0.78"/><circle class="cls-1" cx="47.23" cy="28.29" r="1.35"/><circle class="cls-1" cx="34.56" cy="30.26" r="0.56"/><circle class="cls-1" cx="36.47" cy="30.74" r="1.35"/><circle class="cls-1" cx="38.92" cy="30.74" r="1.35"/><circle class="cls-1" cx="41.71" cy="30.74" r="1.35"/><circle class="cls-1" cx="44.38" cy="30.74" r="1.35"/><circle class="cls-1" cx="47.23" cy="30.74" r="1.35"/><circle class="cls-1" cx="47.23" cy="33.42" r="1.23"/><circle class="cls-1" cx="36.46" cy="13.64" r="1.01"/><circle class="cls-1" cx="33.91" cy="18.5" r="1.01"/><circle class="cls-1" cx="27.73" cy="18.5" r="1.01"/><circle class="cls-1" cx="50.2" cy="3.25" r="1.01"/><circle class="cls-1" cx="41.71" cy="10.93" r="1.01"/><circle class="cls-1" cx="41.71" cy="8.9" r="1.01"/><circle class="cls-1" cx="52.42" cy="2.01" r="1.01"/><circle class="cls-1" cx="44.4" cy="16.02" r="1.35"/><circle class="cls-1" cx="44.4" cy="13.28" r="1.35"/><circle class="cls-1" cx="44.4" cy="10.53" r="1.35"/><circle class="cls-1" cx="44.4" cy="7.34" r="1.35"/><circle class="cls-1" cx="44.4" cy="21.21" r="1.35"/><circle class="cls-1" cx="46.86" cy="16.02" r="1.35"/><circle class="cls-1" cx="44.4" cy="18.48" r="1.47"/><circle class="cls-1" cx="46.86" cy="18.48" r="1.47"/><circle class="cls-1" cx="46.86" cy="21.46" r="1.46"/><circle class="cls-1" cx="49.64" cy="16.02" r="1.35"/><circle class="cls-1" cx="49.64" cy="21.21" r="1.35"/><circle class="cls-1" cx="46.86" cy="13.31" r="1.35"/><circle class="cls-1" cx="46.86" cy="8.72" r="1.35"/><circle class="cls-1" cx="46.86" cy="5.49" r="1.35"/><circle class="cls-1" cx="49.64" cy="13.31" r="1.35"/><circle class="cls-1" cx="49.64" cy="6.34" r="1.35"/><circle class="cls-1" cx="57.84" cy="6.34" r="1.35"/><circle class="cls-1" cx="57.84" cy="8.94" r="1.35"/><circle class="cls-1" cx="59.17" cy="3.96" r="1.35"/><circle class="cls-1" cx="52.57" cy="4.64" r="1.35"/><circle class="cls-1" cx="49.64" cy="18.48" r="1.47"/><circle class="cls-1" cx="46.86" cy="11.02" r="0.78"/><circle class="cls-1" cx="59.54" cy="1.5" r="1.01"/><circle class="cls-1" cx="49.64" cy="10.93" r="1.01"/><circle class="cls-1" cx="49.64" cy="8.9" r="1.01"/><circle class="cls-1" cx="52.5" cy="14.31" r="1.35"/><circle class="cls-1" cx="52.5" cy="11.61" r="1.35"/><circle class="cls-1" cx="52.5" cy="9.22" r="1.01"/><circle class="cls-1" cx="52.5" cy="16.79" r="1.01"/><circle class="cls-1" cx="52.5" cy="18.83" r="1.01"/><circle class="cls-1" cx="52.5" cy="7.2" r="1.01"/><circle class="cls-1" cx="55.35" cy="1.73" r="1.7"/><circle class="cls-1" cx="55.27" cy="11.76" r="1.35"/><circle class="cls-1" cx="55.27" cy="9.05" r="1.35"/><circle class="cls-1" cx="55.27" cy="6.67" r="1.01"/><circle class="cls-1" cx="55.27" cy="14.24" r="1.01"/><circle class="cls-1" cx="55.27" cy="4.64" r="1.01"/><circle class="cls-1" cx="28" cy="20.94" r="1.51"/><circle class="cls-1" cx="28" cy="23.4" r="1.32"/><circle class="cls-1" cx="28" cy="25.85" r="1.12"/><circle class="cls-1" cx="24.83" cy="33.38" r="0.93"/><circle class="cls-1" cx="27.18" cy="27.81" r="0.56"/><circle class="cls-1" cx="13.31" cy="4.19" r="0.56"/><circle class="cls-1" cx="7.41" cy="16.06" r="0.56"/><circle class="cls-1" cx="10.23" cy="20.28" r="0.56"/><circle class="cls-1" cx="4.56" cy="10.94" r="0.56"/><circle class="cls-1" cx="21.77" cy="9.94" r="0.56"/><circle class="cls-1" cx="27.14" cy="16.72" r="0.4"/><circle class="cls-1" cx="18.61" cy="42.76" r="0.4"/><circle class="cls-1" cx="25.27" cy="16.02" r="1.35"/><circle class="cls-1" cx="22.81" cy="16.02" r="1.35"/><circle class="cls-1" cx="25.27" cy="18.48" r="1.47"/><circle class="cls-1" cx="22.81" cy="18.48" r="1.47"/><circle class="cls-1" cx="25.27" cy="20.94" r="1.46"/><circle class="cls-1" cx="22.81" cy="20.94" r="1.46"/><circle class="cls-1" cx="25.27" cy="23.4" r="1.35"/><circle class="cls-1" cx="22.81" cy="23.4" r="1.35"/><circle class="cls-1" cx="25.27" cy="25.85" r="1.23"/><circle class="cls-1" cx="22.81" cy="25.85" r="1.23"/><circle class="cls-1" cx="22.81" cy="35.7" r="1.12"/><circle class="cls-1" cx="21.96" cy="39.95" r="0.9"/><circle class="cls-1" cx="19.99" cy="43.37" r="0.78"/><circle class="cls-1" cx="19.28" cy="44.98" r="0.78"/><circle class="cls-1" cx="20.03" cy="16.02" r="1.35"/><circle class="cls-1" cx="22.81" cy="13.31" r="1.35"/><circle class="cls-1" cx="20.03" cy="13.31" r="1.35"/><circle class="cls-1" cx="20.03" cy="18.48" r="1.47"/><circle class="cls-1" cx="20.03" cy="20.94" r="1.46"/><circle class="cls-1" cx="20.03" cy="23.4" r="1.35"/><circle class="cls-1" cx="20.03" cy="25.85" r="1.23"/><circle class="cls-1" cx="20.03" cy="35.7" r="1.12"/><circle class="cls-1" cx="20.03" cy="40.03" r="0.9"/><circle class="cls-1" cx="20.03" cy="41.72" r="0.78"/><circle class="cls-1" cx="22.66" cy="11.02" r="0.78"/><circle class="cls-1" cx="14.51" cy="41.72" r="0.78"/><circle class="cls-1" cx="17.36" cy="42.28" r="0.78"/><circle class="cls-1" cx="4.76" cy="3.91" r="0.78"/><circle class="cls-1" cx="15.75" cy="24.55" r="0.4"/><circle class="cls-1" cx="17.36" cy="25.81" r="1.23"/><circle class="cls-1" cx="25.27" cy="28.29" r="1.35"/><circle class="cls-1" cx="22.81" cy="28.29" r="1.35"/><circle class="cls-1" cx="22.81" cy="33.42" r="1.23"/><circle class="cls-1" cx="20.03" cy="28.29" r="1.35"/><circle class="cls-1" cx="17.36" cy="28.29" r="1.35"/><circle class="cls-1" cx="17.36" cy="40.16" r="1.35"/><circle class="cls-1" cx="14.51" cy="43.86" r="1.35"/><circle class="cls-1" cx="11.91" cy="43.86" r="1.35"/><circle class="cls-1" cx="20.03" cy="33.42" r="1.23"/><circle class="cls-1" cx="17.36" cy="33.37" r="1.23"/><circle class="cls-1" cx="17.36" cy="35.65" r="1.12"/><circle class="cls-1" cx="12.54" cy="37.97" r="0.9"/><circle class="cls-1" cx="17.36" cy="23.69" r="0.9"/><circle class="cls-1" cx="14.99" cy="26.02" r="0.9"/><circle class="cls-1" cx="24.84" cy="35.41" r="0.78"/><circle class="cls-1" cx="12.98" cy="39.93" r="0.4"/><circle class="cls-1" cx="11.16" cy="48.32" r="0.4"/><circle class="cls-1" cx="8.6" cy="47.57" r="0.4"/><circle class="cls-1" cx="14.51" cy="35.7" r="1.12"/><circle class="cls-1" cx="13.93" cy="46.02" r="0.93"/><circle class="cls-1" cx="22.81" cy="37.96" r="1.12"/><circle class="cls-1" cx="20.03" cy="37.96" r="1.12"/><circle class="cls-1" cx="17.36" cy="37.91" r="1.12"/><circle class="cls-1" cx="17.36" cy="44.26" r="1.12"/><circle class="cls-1" cx="14.51" cy="37.96" r="1.12"/><circle class="cls-1" cx="14.51" cy="40.03" r="0.9"/><circle class="cls-1" cx="12.58" cy="47.32" r="0.78"/><circle class="cls-1" cx="12.38" cy="35.55" r="0.78"/><circle class="cls-1" cx="10.29" cy="47.09" r="0.78"/><circle class="cls-1" cx="13.93" cy="47.76" r="0.4"/><circle class="cls-1" cx="8.08" cy="44.46" r="0.4"/><circle class="cls-1" cx="13.38" cy="26.77" r="0.4"/><circle class="cls-1" cx="7.86" cy="17.39" r="0.4"/><circle class="cls-1" cx="11.34" cy="45.82" r="0.9"/><circle class="cls-1" cx="8.97" cy="45.82" r="0.9"/><circle class="cls-1" cx="6.94" cy="46.11" r="0.9"/><circle class="cls-1" cx="4.08" cy="0.9" r="0.9"/><circle class="cls-1" cx="9.64" cy="43.8" r="0.9"/><circle class="cls-1" cx="12.77" cy="41.69" r="0.9"/><circle class="cls-1" cx="15.75" cy="45.83" r="0.78"/><circle class="cls-1" cx="21.96" cy="41.72" r="0.78"/><circle class="cls-1" cx="14.51" cy="28.29" r="1.35"/><circle class="cls-1" cx="27.18" cy="30.26" r="0.56"/><circle class="cls-1" cx="25.27" cy="30.74" r="1.35"/><circle class="cls-1" cx="22.81" cy="30.74" r="1.35"/><circle class="cls-1" cx="20.03" cy="30.74" r="1.35"/><circle class="cls-1" cx="17.36" cy="30.74" r="1.35"/><circle class="cls-1" cx="14.51" cy="30.74" r="1.35"/><circle class="cls-1" cx="14.51" cy="33.42" r="1.23"/><circle class="cls-1" cx="25.27" cy="13.64" r="1.01"/><circle class="cls-1" cx="11.54" cy="3.25" r="1.01"/><circle class="cls-1" cx="20.03" cy="10.93" r="1.01"/><circle class="cls-1" cx="20.03" cy="8.9" r="1.01"/><circle class="cls-1" cx="9.32" cy="2.01" r="1.01"/><circle class="cls-1" cx="17.34" cy="16.02" r="1.35"/><circle class="cls-1" cx="17.34" cy="13.28" r="1.35"/><circle class="cls-1" cx="17.34" cy="10.53" r="1.35"/><circle class="cls-1" cx="17.34" cy="7.34" r="1.35"/><circle class="cls-1" cx="17.34" cy="21.21" r="1.35"/><circle class="cls-1" cx="14.88" cy="16.02" r="1.35"/><circle class="cls-1" cx="17.34" cy="18.48" r="1.47"/><circle class="cls-1" cx="14.88" cy="18.48" r="1.47"/><circle class="cls-1" cx="14.88" cy="21.46" r="1.46"/><circle class="cls-1" cx="12.1" cy="16.02" r="1.35"/><circle class="cls-1" cx="12.1" cy="21.21" r="1.35"/><circle class="cls-1" cx="14.88" cy="13.31" r="1.35"/><circle class="cls-1" cx="14.88" cy="8.72" r="1.35"/><circle class="cls-1" cx="14.88" cy="5.49" r="1.35"/><circle class="cls-1" cx="12.1" cy="13.31" r="1.35"/><circle class="cls-1" cx="12.1" cy="6.34" r="1.35"/><circle class="cls-1" cx="3.9" cy="6.34" r="1.35"/><circle class="cls-1" cx="3.9" cy="8.94" r="1.35"/><circle class="cls-1" cx="2.57" cy="3.96" r="1.35"/><circle class="cls-1" cx="9.17" cy="4.64" r="1.35"/><circle class="cls-1" cx="12.1" cy="18.48" r="1.47"/><circle class="cls-1" cx="14.88" cy="11.02" r="0.78"/><circle class="cls-1" cx="12.1" cy="10.93" r="1.01"/><circle class="cls-1" cx="12.1" cy="8.9" r="1.01"/><circle class="cls-1" cx="9.24" cy="14.31" r="1.35"/><circle class="cls-1" cx="9.24" cy="11.61" r="1.35"/><circle class="cls-1" cx="9.24" cy="9.22" r="1.01"/><circle class="cls-1" cx="9.24" cy="16.79" r="1.01"/><circle class="cls-1" cx="9.24" cy="18.83" r="1.01"/><circle class="cls-1" cx="9.24" cy="7.2" r="1.01"/><circle class="cls-1" cx="6.39" cy="1.73" r="1.7"/><circle class="cls-1" cx="6.47" cy="11.76" r="1.35"/><circle class="cls-1" cx="6.47" cy="9.05" r="1.35"/><circle class="cls-1" cx="6.47" cy="6.67" r="1.01"/><circle class="cls-1" cx="6.47" cy="14.24" r="1.01"/><circle class="cls-1" cx="6.47" cy="4.64" r="1.01"/><circle class="cls-1" cx="30.69" cy="21.56" r="1.28"/><circle class="cls-1" cx="30.69" cy="23.91" r="1.44"/><circle class="cls-1" cx="30.69" cy="26.27" r="1.26"/><circle class="cls-1" cx="30.69" cy="28.62" r="1.08"/><circle class="cls-1" cx="30.69" cy="18.93" r="0.71"/><circle class="cls-1" cx="30.69" cy="32.63" r="0.71"/><circle class="cls-1" cx="30.69" cy="34.26" r="0.71"/><circle class="cls-1" cx="30.69" cy="21.56" r="1.36"/><circle class="cls-1" cx="30.69" cy="18.84" r="1.36"/><circle class="cls-1" cx="30.69" cy="23.91" r="1.39"/><circle class="cls-1" cx="30.69" cy="26.27" r="1.22"/><circle class="cls-1" cx="30.69" cy="28.62" r="1.05"/><circle class="cls-1" cx="30.69" cy="30.65" r="1.05"/></g></g></svg>