<?xml version="1.0" encoding="utf-8"?>
<!-- Generator: Adobe Illustrator 26.4.1, SVG Export Plug-In . SVG Version: 6.00 Build 0)  -->
<svg version="1.1" id="圖層_1" xmlns="http://www.w3.org/2000/svg" xmlns:xlink="http://www.w3.org/1999/xlink" x="0px" y="0px"
	 viewBox="0 0 423.28 57.89" style="enable-background:new 0 0 423.28 57.89;" xml:space="preserve">
<style type="text/css">
	.st0{fill:#FFFFFF;}
</style>
<g>
	<path class="st0" d="M24.19,54.1c-3.2,0-6.18-0.56-8.94-1.67c-2.76-1.11-5.17-2.68-7.23-4.68c-2.07-2.01-3.68-4.34-4.83-6.99
		c-1.16-2.65-1.73-5.52-1.73-8.6c0-3.08,0.58-5.95,1.73-8.6c1.15-2.65,2.77-4.99,4.83-6.99c2.07-2.01,4.48-3.57,7.23-4.68
		c2.76-1.11,5.73-1.67,8.94-1.67c3.2,0,6.18,0.56,8.94,1.67c2.76,1.12,5.17,2.68,7.23,4.68c2.07,2.01,3.68,4.34,4.83,6.99
		c1.16,2.66,1.73,5.52,1.73,8.6c0,3.08-0.58,5.95-1.73,8.6c-1.16,2.66-2.77,4.99-4.83,6.99c-2.07,2.01-4.48,3.57-7.23,4.68
		C30.37,53.54,27.39,54.1,24.19,54.1z M24.19,44.49c1.7,0,3.28-0.31,4.74-0.94c1.46-0.63,2.73-1.49,3.8-2.58
		c1.07-1.09,1.92-2.4,2.52-3.92c0.61-1.52,0.91-3.15,0.91-4.89c0-1.78-0.3-3.42-0.91-4.92c-0.61-1.5-1.45-2.8-2.52-3.89
		c-1.07-1.09-2.34-1.95-3.8-2.58c-1.46-0.63-3.04-0.94-4.74-0.94c-1.7,0-3.28,0.31-4.74,0.94c-1.46,0.63-2.73,1.49-3.8,2.58
		c-1.07,1.09-1.92,2.39-2.52,3.89c-0.61,1.5-0.91,3.12-0.91,4.86c0,1.78,0.3,3.44,0.91,4.96c0.61,1.52,1.45,2.83,2.52,3.92
		c1.07,1.09,2.34,1.96,3.8,2.58C20.91,44.18,22.49,44.49,24.19,44.49z"/>
	<path class="st0" d="M57.08,53.43V29.48h-7.05v-8.21h7.05v-1.95c0-3.81,1.12-6.72,3.37-8.72s5.48-3.01,9.7-3.01
		c0.85,0,1.77,0.05,2.77,0.15c0.99,0.1,1.81,0.25,2.46,0.46v8.15c-0.77-0.16-1.45-0.27-2.04-0.33c-0.59-0.06-1.21-0.09-1.85-0.09
		c-1.5,0-2.64,0.29-3.4,0.88c-0.77,0.59-1.16,1.49-1.16,2.71v1.76h8.45v8.21h-8.45v23.95H57.08z"/>
	<path class="st0" d="M84.62,53.43V29.48h-7.05v-8.21h7.05v-1.95c0-3.81,1.12-6.72,3.37-8.72s5.48-3.01,9.7-3.01
		c0.85,0,1.77,0.05,2.77,0.15c0.99,0.1,1.81,0.25,2.46,0.46v8.15c-0.77-0.16-1.45-0.27-2.04-0.33c-0.59-0.06-1.21-0.09-1.85-0.09
		c-1.5,0-2.64,0.29-3.4,0.88c-0.77,0.59-1.16,1.49-1.16,2.71v1.76h8.45v8.21h-8.45v23.95H84.62z"/>
	<path class="st0" d="M111.98,18.29c-1.5,0-2.78-0.53-3.83-1.58c-1.05-1.05-1.58-2.33-1.58-3.83c0-1.5,0.53-2.78,1.58-3.83
		c1.05-1.05,2.33-1.58,3.83-1.58c1.5,0,2.78,0.53,3.83,1.58c1.05,1.05,1.58,2.33,1.58,3.83c0,1.5-0.53,2.78-1.58,3.83
		C114.75,17.76,113.48,18.29,111.98,18.29z M107.05,53.43V21.27h9.85v32.16H107.05z"/>
	<path class="st0" d="M138.55,54.04c-3.2,0-6.09-0.73-8.66-2.19c-2.57-1.46-4.61-3.46-6.11-5.99c-1.5-2.53-2.25-5.36-2.25-8.48
		c0-3.16,0.75-6,2.25-8.51c1.5-2.51,3.54-4.51,6.11-5.99c2.57-1.48,5.46-2.22,8.66-2.22c2.63,0,5.15,0.52,7.54,1.55
		c2.39,1.03,4.42,2.5,6.08,4.41l-6.02,6.26c-1.14-1.3-2.29-2.24-3.47-2.83c-1.18-0.59-2.47-0.88-3.89-0.88
		c-1.42,0-2.7,0.35-3.83,1.06c-1.14,0.71-2.03,1.68-2.68,2.92c-0.65,1.24-0.97,2.65-0.97,4.23c0,1.54,0.33,2.93,1,4.16
		c0.67,1.24,1.59,2.21,2.77,2.92c1.18,0.71,2.49,1.06,3.95,1.06c1.34,0,2.57-0.28,3.71-0.85c1.13-0.57,2.23-1.44,3.28-2.61
		l5.84,6.08c-1.62,1.86-3.61,3.31-5.96,4.35C143.55,53.52,141.1,54.04,138.55,54.04z"/>
	<path class="st0" d="M160.68,18.29c-1.5,0-2.78-0.53-3.83-1.58c-1.05-1.05-1.58-2.33-1.58-3.83c0-1.5,0.53-2.78,1.58-3.83
		c1.05-1.05,2.33-1.58,3.83-1.58c1.5,0,2.78,0.53,3.83,1.58c1.05,1.05,1.58,2.33,1.58,3.83c0,1.5-0.53,2.78-1.58,3.83
		C163.45,17.76,162.18,18.29,160.68,18.29z M155.75,53.43V21.27h9.85v32.16H155.75z"/>
	<path class="st0" d="M181.96,53.98c-2.27,0-4.29-0.43-6.05-1.28c-1.76-0.85-3.14-2.03-4.13-3.53c-0.99-1.5-1.49-3.22-1.49-5.17
		c0-3.08,1.16-5.46,3.5-7.14c2.33-1.68,5.58-2.52,9.76-2.52c2.51,0,4.94,0.3,7.3,0.91v-1.58c0-1.62-0.52-2.83-1.55-3.62
		c-1.03-0.79-2.56-1.19-4.59-1.19c-1.26,0-2.67,0.2-4.23,0.61c-1.56,0.41-3.4,1.05-5.5,1.95l-3.53-7.23
		c2.63-1.18,5.18-2.06,7.63-2.65c2.45-0.59,4.91-0.88,7.39-0.88c4.46,0,7.92,1.06,10.4,3.19c2.47,2.13,3.71,5.12,3.71,8.97v20.61
		h-9.73v-1.95c-1.3,0.89-2.67,1.53-4.1,1.92C185.29,53.78,183.7,53.98,181.96,53.98z M179.65,43.82c0,1.01,0.45,1.8,1.34,2.37
		c0.89,0.57,2.13,0.85,3.71,0.85c1.17,0,2.28-0.12,3.31-0.36s1.98-0.63,2.83-1.16v-4.13c-0.93-0.24-1.88-0.43-2.86-0.55
		c-0.97-0.12-1.97-0.18-2.98-0.18c-1.7,0-3.02,0.27-3.95,0.82C180.11,42.03,179.65,42.81,179.65,43.82z"/>
	<path class="st0" d="M206.4,53.43V10.87l9.85-1.52v44.08H206.4z"/>
	<path class="st0" d="M246.16,53.43V20.11h-13.92v-9.24h38.3v9.24h-13.92v33.32H246.16z"/>
	<path class="st0" d="M272.24,53.43V21.27h9.85v3.22c1.05-1.3,2.29-2.28,3.71-2.95c1.42-0.67,3-1,4.74-1
		c1.74,0.04,2.98,0.3,3.71,0.79v8.57c-0.65-0.32-1.38-0.57-2.19-0.73c-0.81-0.16-1.64-0.24-2.49-0.24c-1.54,0-2.97,0.35-4.29,1.06
		c-1.32,0.71-2.38,1.71-3.19,3.01v20.43H272.24z"/>
	<path class="st0" d="M308.17,53.98c-2.27,0-4.29-0.43-6.05-1.28c-1.76-0.85-3.14-2.03-4.13-3.53c-0.99-1.5-1.49-3.22-1.49-5.17
		c0-3.08,1.16-5.46,3.5-7.14c2.33-1.68,5.58-2.52,9.76-2.52c2.51,0,4.94,0.3,7.3,0.91v-1.58c0-1.62-0.52-2.83-1.55-3.62
		c-1.03-0.79-2.56-1.19-4.59-1.19c-1.26,0-2.67,0.2-4.23,0.61c-1.56,0.41-3.4,1.05-5.5,1.95l-3.53-7.23
		c2.63-1.18,5.18-2.06,7.63-2.65c2.45-0.59,4.91-0.88,7.39-0.88c4.46,0,7.92,1.06,10.4,3.19c2.47,2.13,3.71,5.12,3.71,8.97v20.61
		h-9.73v-1.95c-1.3,0.89-2.67,1.53-4.1,1.92C311.5,53.78,309.91,53.98,308.17,53.98z M305.86,43.82c0,1.01,0.45,1.8,1.34,2.37
		c0.89,0.57,2.13,0.85,3.71,0.85c1.17,0,2.28-0.12,3.31-0.36s1.98-0.63,2.83-1.16v-4.13c-0.93-0.24-1.88-0.43-2.86-0.55
		s-1.97-0.18-2.98-0.18c-1.7,0-3.02,0.27-3.95,0.82S305.86,42.81,305.86,43.82z"/>
	<path class="st0" d="M337.54,18.29c-1.5,0-2.78-0.53-3.83-1.58c-1.05-1.05-1.58-2.33-1.58-3.83c0-1.5,0.53-2.78,1.58-3.83
		c1.05-1.05,2.33-1.58,3.83-1.58c1.5,0,2.78,0.53,3.83,1.58c1.05,1.05,1.58,2.33,1.58,3.83c0,1.5-0.53,2.78-1.58,3.83
		C340.31,17.76,339.04,18.29,337.54,18.29z M332.61,53.43V21.27h9.85v32.16H332.61z"/>
	<path class="st0" d="M348.54,53.43V10.87l9.85-1.52v44.08H348.54z"/>
	<path class="st0" d="M380.52,54.04c-3.28,0-6.25-0.74-8.91-2.22c-2.66-1.48-4.75-3.47-6.29-5.99c-1.54-2.51-2.31-5.33-2.31-8.45
		c0-3.12,0.74-5.94,2.22-8.45c1.48-2.51,3.5-4.51,6.05-5.99c2.55-1.48,5.39-2.22,8.51-2.22c3.16,0,5.96,0.76,8.39,2.28
		c2.43,1.52,4.35,3.6,5.75,6.23c1.4,2.64,2.1,5.65,2.1,9.06v2.43H373.1c0.45,1.01,1.04,1.91,1.79,2.67
		c0.75,0.77,1.65,1.37,2.71,1.79c1.05,0.43,2.19,0.64,3.41,0.64c1.34,0,2.55-0.21,3.65-0.64c1.09-0.43,2.03-1.02,2.8-1.79l6.51,5.78
		c-2.03,1.7-4.1,2.94-6.23,3.71S383.2,54.04,380.52,54.04z M372.92,33.85h13.44c-0.32-1.05-0.82-1.96-1.49-2.71
		s-1.45-1.34-2.34-1.76c-0.89-0.43-1.86-0.64-2.92-0.64c-1.09,0-2.09,0.2-2.98,0.61c-0.89,0.41-1.65,0.98-2.28,1.73
		C373.72,31.84,373.24,32.76,372.92,33.85z"/>
	<path class="st0" d="M400.64,53.43V21.27h9.85v3.22c1.05-1.3,2.29-2.28,3.71-2.95c1.42-0.67,3-1,4.74-1
		c1.74,0.04,2.98,0.3,3.71,0.79v8.57c-0.65-0.32-1.38-0.57-2.19-0.73c-0.81-0.16-1.64-0.24-2.49-0.24c-1.54,0-2.97,0.35-4.29,1.06
		c-1.32,0.71-2.38,1.71-3.19,3.01v20.43H400.64z"/>
</g>
</svg>
