<?xml version="1.0" encoding="utf-8"?>
<!-- Generator: Adobe Illustrator 26.3.1, SVG Export Plug-In . SVG Version: 6.00 Build 0)  -->
<svg version="1.1" id="圖層_1" xmlns="http://www.w3.org/2000/svg" xmlns:xlink="http://www.w3.org/1999/xlink" x="0px" y="0px"
	 viewBox="0 0 400 90" style="enable-background:new 0 0 400 90;" xml:space="preserve">
<style type="text/css">
	.st0{fill:#CFD14D;}
	.st1{fill:#EEEFEF;}
</style>
<g>
	<g>
		<path class="st0" d="M3.15,6.08h36.14v10.73H27.16v32.72H15.27V16.81H3.15V6.08z"/>
		<path class="st0" d="M51.82,28.25l-10.21-1.22c0.38-2.02,0.94-3.6,1.67-4.76c0.73-1.16,1.77-2.16,3.14-3.01
			c0.98-0.61,2.33-1.09,4.04-1.42c1.71-0.34,3.57-0.5,5.56-0.5c3.2,0,5.77,0.2,7.71,0.61c1.94,0.4,3.56,1.25,4.86,2.53
			c0.91,0.89,1.63,2.15,2.15,3.78c0.53,1.63,0.79,3.19,0.79,4.67v13.9c0,1.48,0.08,2.64,0.25,3.48c0.17,0.84,0.53,1.91,1.09,3.22
			H62.84c-0.4-0.81-0.67-1.43-0.79-1.85c-0.12-0.42-0.25-1.09-0.37-2c-1.4,1.52-2.79,2.61-4.17,3.26c-1.89,0.87-4.08,1.3-6.59,1.3
			c-3.32,0-5.85-0.87-7.57-2.61c-1.72-1.74-2.58-3.88-2.58-6.43c0-2.39,0.62-4.36,1.86-5.9s3.53-2.69,6.88-3.44
			c4.01-0.91,6.6-1.55,7.79-1.91c1.19-0.37,2.45-0.84,3.78-1.44c0-1.48-0.27-2.52-0.81-3.11s-1.5-0.89-2.86-0.89
			c-1.75,0-3.06,0.32-3.94,0.95C52.79,25.96,52.24,26.89,51.82,28.25z M61.08,34.6c-1.47,0.59-3,1.12-4.59,1.57
			c-2.17,0.65-3.54,1.29-4.12,1.93c-0.59,0.65-0.89,1.39-0.89,2.22c0,0.95,0.29,1.72,0.88,2.33s1.45,0.9,2.58,0.9
			c1.19,0,2.3-0.33,3.32-0.98c1.02-0.65,1.75-1.45,2.18-2.39c0.43-0.94,0.64-2.16,0.64-3.66V34.6z"/>
		<path class="st0" d="M79.18,6.08h10.68v8.21H79.18V6.08z M79.18,18.06h10.68v31.48H79.18V18.06z"/>
		<path class="st0" d="M94.42,18.06h10.33l4.47,19.82l5.65-19.82h9.65l5.89,19.87l4.49-19.87h10.26l-10.27,31.48h-9.5l-5.65-18.94
			l-5.46,18.94h-9.55L94.42,18.06z"/>
		<path class="st0" d="M158.27,28.25l-10.21-1.22c0.38-2.02,0.94-3.6,1.67-4.76c0.73-1.16,1.77-2.16,3.14-3.01
			c0.98-0.61,2.33-1.09,4.04-1.42c1.71-0.34,3.57-0.5,5.56-0.5c3.2,0,5.77,0.2,7.71,0.61c1.94,0.4,3.56,1.25,4.86,2.53
			c0.91,0.89,1.63,2.15,2.15,3.78c0.53,1.63,0.79,3.19,0.79,4.67v13.9c0,1.48,0.08,2.64,0.25,3.48c0.17,0.84,0.53,1.91,1.09,3.22
			h-10.02c-0.4-0.81-0.67-1.43-0.79-1.85c-0.12-0.42-0.25-1.09-0.37-2c-1.4,1.52-2.79,2.61-4.17,3.26c-1.89,0.87-4.08,1.3-6.59,1.3
			c-3.32,0-5.85-0.87-7.57-2.61c-1.72-1.74-2.58-3.88-2.58-6.43c0-2.39,0.62-4.36,1.86-5.9c1.24-1.54,3.53-2.69,6.88-3.44
			c4.01-0.91,6.6-1.55,7.79-1.91c1.19-0.37,2.45-0.84,3.78-1.44c0-1.48-0.27-2.52-0.81-3.11s-1.5-0.89-2.86-0.89
			c-1.75,0-3.06,0.32-3.94,0.95C159.24,25.96,158.69,26.89,158.27,28.25z M167.53,34.6c-1.47,0.59-3,1.12-4.59,1.57
			c-2.17,0.65-3.54,1.29-4.12,1.93c-0.59,0.65-0.89,1.39-0.89,2.22c0,0.95,0.29,1.72,0.88,2.33s1.45,0.9,2.58,0.9
			c1.19,0,2.3-0.33,3.32-0.98c1.02-0.65,1.75-1.45,2.18-2.39c0.43-0.94,0.64-2.16,0.64-3.66V34.6z"/>
		<path class="st0" d="M185.24,18.06h9.95v5.13c1.49-2.09,2.99-3.59,4.51-4.49c1.52-0.9,3.38-1.35,5.56-1.35
			c2.96,0,5.27,0.99,6.94,2.98c1.67,1.99,2.51,5.05,2.51,9.2v20.01h-10.73V32.22c0-1.98-0.32-3.37-0.97-4.19
			c-0.65-0.82-1.56-1.23-2.73-1.23c-1.29,0-2.34,0.55-3.15,1.66c-0.81,1.11-1.21,3.09-1.21,5.96v15.12h-10.68V18.06z"/>
		<path class="st1" d="M20.76,65.5H10.47v5.19h10.29v4.65H10.47v10.08H4.53V60.85h16.22V65.5z"/>
		<path class="st1" d="M31.01,63.33c0,1.62-1.24,2.88-2.73,2.88c-1.52,0-2.76-1.26-2.76-2.88c0-1.62,1.28-2.84,2.76-2.84
			C29.76,60.49,31.01,61.71,31.01,63.33z M30.56,85.41h-4.8v-16.6h4.8V85.41z"/>
		<path class="st1" d="M40.95,85.41h-5.04V60.85h5.04V85.41z"/>
		<path class="st1" d="M51.06,70.93c2.11-1.98,4.04-2.45,5.59-2.45c1.14,0,2.9,0.25,4.25,1.51c0.86,0.79,1.17,1.44,1.45,2.02
			c0.9-1.12,2.93-3.53,6.28-3.53c1.93,0,3.76,0.72,4.94,2.34c1.17,1.62,1.31,2.95,1.31,4.57v10.01h-5.04v-8.97
			c0-1.44,0-4.25-2.97-4.25c-1.76,0-3.07,1.3-3.93,2.59v10.62h-5v-9.25c0-0.9,0-1.69-0.41-2.48c-0.59-1.08-1.73-1.51-2.62-1.51
			c-0.69,0-2.17,0.22-3.83,2.12v11.13h-4.97v-16.6h4.97V70.93z"/>
		<path class="st1" d="M107.18,65.5H96.89v5.19h10.29v4.65H96.89v10.08h-5.94V60.85h16.22V65.5z"/>
		<path class="st1" d="M126.61,83.54c-2.93,2.16-6.11,2.2-7.25,2.2c-7.04,0-9.08-5.04-9.08-8.61c0-5.33,3.97-8.64,8.42-8.64
			c3.31,0,8.28,2.05,8.18,9.47h-11.42c0.21,3.02,2.17,4.54,5.28,4.54c2.86,0,4.31-1.12,5.87-2.3V83.54z M122.47,75.22
			c-0.14-1.48-1.07-3.56-3.45-3.56c-2.45,0-3.35,2.12-3.45,3.56H122.47z"/>
		<path class="st1" d="M142.35,73.42c-1.73-0.97-3.42-1.62-4.94-1.62c-0.45,0-2.21,0.07-2.21,1.15c0,0.65,0.35,0.9,1.97,1.62
			c3.14,1.3,5.97,2.52,5.97,5.87c0,3.38-2.42,5.29-6.49,5.29c-2.49,0-4.9-0.76-5.7-1.22v-3.67c2.52,1.37,4.14,1.55,5.07,1.55
			c1.66,0,2.42-0.58,2.42-1.26c0-0.94-0.62-1.19-3.04-2.23c-1.62-0.72-2-0.9-2.66-1.3c-1.24-0.79-2.11-2.2-2.11-3.96
			c0-2.81,2.28-5.15,6.49-5.15c2.86,0,4.42,0.79,5.21,1.22V73.42z"/>
		<path class="st1" d="M158.02,72.41h-5.73v3.64c0,2.59,0,3.17,0.14,4.03c0.28,1.66,1.73,1.8,2.24,1.8c1.35,0,2.28-0.43,3.35-0.97
			v3.78c-0.9,0.36-2.42,1.04-4.66,1.04c-2,0-4-0.79-5.18-2.49c-0.76-1.12-0.97-2.34-0.97-4.83v-6.01h-2.28v-0.97l6.66-7.85h0.69
			v5.22h5.73V72.41z"/>
		<path class="st1" d="M167.3,63.33c0,1.62-1.24,2.88-2.73,2.88c-1.52,0-2.76-1.26-2.76-2.88c0-1.62,1.28-2.84,2.76-2.84
			C166.06,60.49,167.3,61.71,167.3,63.33z M166.86,85.41h-4.8v-16.6h4.8V85.41z"/>
		<path class="st1" d="M180.49,85.73h-3.04l-7.32-16.92h5.32l3.45,8.82l3.35-8.82h5.32L180.49,85.73z"/>
		<path class="st1" d="M206.55,84.22c-1.17,0.76-3.18,1.51-4.69,1.51c-2.35,0-2.66-1.19-2.83-1.84c-1.17,0.79-2.8,1.84-5.25,1.84
			c-2.38,0-4.45-1.69-4.45-4.36c0-3.31,3.25-4.5,4.42-4.93c0.79-0.29,4.31-1.48,5.04-1.69c0-0.86,0.03-2.81-2.73-2.81
			c-3.11,0-5.42,2.23-5.9,2.81V70.5c2.31-1.51,4.73-2.02,6.94-2.02c0.79,0,4.83,0.04,6.25,2.7c0.24,0.43,0.48,1.01,0.48,3.03v6.55
			c0,0.58,0,1.33,0.79,1.33c0.52,0,1.04-0.29,1.93-0.79V84.22z M198.78,77.38c-0.35,0.14-2.14,0.86-2.52,1.04
			c-0.45,0.22-1.86,0.94-1.86,2.41c0,1.15,0.9,1.76,1.59,1.76c0.14,0,1.52,0,2.8-1.22V77.38z"/>
		<path class="st1" d="M214.56,85.41h-5.04V60.85h5.04V85.41z"/>
	</g>
	<g>
		<path class="st1" d="M245.99,37.32h-12.77c0.15-1.42,0.59-2.76,1.33-4.02c0.74-1.25,2.13-2.74,4.17-4.44
			c1.25-1.05,2.04-1.84,2.39-2.38c0.35-0.54,0.52-1.06,0.52-1.54c0-0.53-0.17-0.98-0.52-1.35s-0.78-0.56-1.3-0.56
			c-0.54,0-0.99,0.19-1.33,0.58s-0.58,1.07-0.7,2.04l-4.26-0.39c0.17-1.35,0.47-2.41,0.92-3.17c0.45-0.76,1.07-1.34,1.89-1.75
			s1.93-0.61,3.37-0.61c1.5,0,2.66,0.19,3.5,0.58c0.83,0.39,1.49,0.98,1.96,1.77c0.48,0.8,0.72,1.69,0.72,2.68
			c0,1.05-0.27,2.06-0.82,3.02c-0.55,0.96-1.54,2.01-2.98,3.16c-0.86,0.67-1.43,1.14-1.72,1.4c-0.29,0.27-0.63,0.62-1.02,1.05h6.64
			V37.32z"/>
		<path class="st1" d="M251.93,25.02l-4.02-0.81c0.33-1.45,0.98-2.56,1.93-3.33c0.95-0.77,2.3-1.16,4.04-1.16
			c2,0,3.44,0.42,4.34,1.26c0.89,0.84,1.34,1.9,1.34,3.17c0,0.75-0.18,1.42-0.54,2.03c-0.36,0.61-0.91,1.14-1.64,1.59
			c0.59,0.17,1.04,0.36,1.36,0.58c0.51,0.35,0.9,0.82,1.19,1.4s0.42,1.27,0.42,2.07c0,1.01-0.23,1.97-0.7,2.9
			c-0.47,0.92-1.14,1.64-2.02,2.14c-0.88,0.5-2.03,0.75-3.46,0.75c-1.39,0-2.49-0.18-3.3-0.55c-0.8-0.37-1.47-0.91-1.99-1.62
			s-0.92-1.61-1.2-2.68l4.25-0.64c0.17,0.97,0.43,1.64,0.78,2.01c0.35,0.37,0.8,0.56,1.34,0.56c0.57,0,1.05-0.24,1.43-0.71
			c0.38-0.47,0.57-1.1,0.57-1.89c0-0.8-0.18-1.42-0.55-1.86c-0.37-0.44-0.86-0.66-1.49-0.66c-0.33,0-0.79,0.09-1.38,0.28l0.22-3.43
			c0.24,0.04,0.42,0.06,0.55,0.06c0.56,0,1.02-0.2,1.39-0.6c0.37-0.4,0.56-0.88,0.56-1.43c0-0.53-0.14-0.95-0.42-1.26
			c-0.28-0.31-0.66-0.47-1.15-0.47c-0.5,0-0.91,0.17-1.22,0.51C252.26,23.57,252.05,24.17,251.93,25.02z"/>
		<path class="st1" d="M269.08,31.6l4.5-0.32c0.1,0.83,0.3,1.46,0.6,1.89c0.49,0.7,1.18,1.05,2.09,1.05c0.67,0,1.2-0.18,1.56-0.54
			c0.37-0.36,0.55-0.77,0.55-1.25c0-0.45-0.17-0.85-0.52-1.2c-0.35-0.35-1.16-0.69-2.42-1c-2.08-0.53-3.56-1.23-4.44-2.1
			c-0.89-0.87-1.34-1.99-1.34-3.34c0-0.89,0.23-1.73,0.68-2.52c0.46-0.79,1.14-1.41,2.06-1.86c0.92-0.45,2.17-0.68,3.77-0.68
			c1.96,0,3.45,0.41,4.48,1.23c1.03,0.82,1.64,2.13,1.83,3.92l-4.46,0.29c-0.12-0.78-0.37-1.34-0.75-1.7
			c-0.38-0.35-0.9-0.53-1.57-0.53c-0.55,0-0.96,0.13-1.24,0.4c-0.28,0.26-0.42,0.58-0.42,0.96c0,0.28,0.12,0.52,0.34,0.74
			c0.22,0.23,0.75,0.44,1.59,0.64c2.07,0.5,3.55,1.01,4.45,1.53c0.9,0.52,1.55,1.16,1.95,1.92s0.61,1.62,0.61,2.56
			c0,1.11-0.27,2.13-0.82,3.07c-0.54,0.94-1.3,1.65-2.28,2.13c-0.97,0.48-2.2,0.73-3.69,0.73c-2.61,0-4.41-0.57-5.41-1.7
			S269.21,33.34,269.08,31.6z"/>
		<path class="st1" d="M297.39,32.25h-8.53c0.08,0.77,0.26,1.34,0.55,1.72c0.41,0.54,0.95,0.81,1.61,0.81
			c0.42,0,0.81-0.12,1.19-0.35c0.23-0.15,0.48-0.41,0.74-0.79l4.19,0.44c-0.64,1.26-1.41,2.16-2.32,2.71
			c-0.91,0.55-2.21,0.82-3.9,0.82c-1.47,0-2.62-0.23-3.47-0.7s-1.54-1.21-2.09-2.23c-0.55-1.02-0.83-2.22-0.83-3.59
			c0-1.96,0.56-3.54,1.67-4.75c1.11-1.21,2.64-1.82,4.6-1.82c1.59,0,2.84,0.27,3.76,0.81c0.92,0.54,1.62,1.33,2.1,2.36
			c0.48,1.03,0.72,2.37,0.72,4.02V32.25z M293.07,29.95c-0.08-0.93-0.3-1.59-0.66-1.99c-0.36-0.4-0.83-0.6-1.42-0.6
			c-0.68,0-1.22,0.3-1.62,0.91c-0.26,0.38-0.42,0.94-0.49,1.69H293.07z"/>
		<path class="st1" d="M299.37,42.09v-17.3h3.98v1.85c0.55-0.78,1.06-1.31,1.51-1.58c0.62-0.37,1.31-0.55,2.06-0.55
			c1.48,0,2.63,0.64,3.44,1.92s1.22,2.87,1.22,4.75c0,2.08-0.44,3.68-1.33,4.77c-0.88,1.1-2,1.65-3.35,1.65
			c-0.65,0-1.25-0.13-1.79-0.38c-0.54-0.25-1.02-0.62-1.45-1.12v5.98H299.37z M303.63,31.09c0,0.99,0.18,1.73,0.55,2.21
			s0.84,0.72,1.4,0.72c0.5,0,0.91-0.23,1.24-0.69c0.33-0.46,0.5-1.24,0.5-2.34c0-1.01-0.17-1.76-0.52-2.24
			c-0.35-0.48-0.77-0.71-1.27-0.71c-0.54,0-1,0.24-1.36,0.72C303.81,29.23,303.63,30.01,303.63,31.09z"/>
		<path class="st1" d="M312.8,29.15h6.19v3.72h-6.19V29.15z"/>
		<path class="st1" d="M320.33,28.6c0-3.29,0.52-5.59,1.57-6.9c1.05-1.31,2.64-1.97,4.79-1.97c1.03,0,1.88,0.14,2.54,0.43
			c0.66,0.29,1.2,0.66,1.62,1.12s0.75,0.94,0.99,1.45c0.24,0.51,0.43,1.1,0.58,1.78c0.29,1.29,0.43,2.63,0.43,4.04
			c0,3.14-0.47,5.44-1.41,6.89c-0.94,1.46-2.56,2.18-4.86,2.18c-1.29,0-2.33-0.23-3.12-0.7s-1.45-1.14-1.95-2.04
			c-0.37-0.64-0.66-1.51-0.86-2.61C320.44,31.16,320.33,29.94,320.33,28.6z M324.55,28.61c0,2.2,0.17,3.71,0.52,4.51
			c0.34,0.81,0.84,1.21,1.5,1.21c0.43,0,0.81-0.17,1.12-0.51c0.32-0.34,0.55-0.88,0.7-1.62c0.15-0.74,0.22-1.89,0.22-3.46
			c0-2.3-0.17-3.84-0.52-4.63c-0.34-0.79-0.86-1.19-1.55-1.19c-0.7,0-1.21,0.4-1.53,1.21S324.55,26.43,324.55,28.61z"/>
		<path class="st1" d="M347.06,37.32h-12.77c0.15-1.42,0.59-2.76,1.33-4.02c0.74-1.25,2.13-2.74,4.17-4.44
			c1.25-1.05,2.04-1.84,2.39-2.38c0.35-0.54,0.52-1.06,0.52-1.54c0-0.53-0.17-0.98-0.52-1.35s-0.78-0.56-1.3-0.56
			c-0.54,0-0.99,0.19-1.33,0.58s-0.58,1.07-0.7,2.04l-4.26-0.39c0.17-1.35,0.47-2.41,0.92-3.17c0.45-0.76,1.07-1.34,1.89-1.75
			s1.93-0.61,3.37-0.61c1.5,0,2.66,0.19,3.5,0.58c0.83,0.39,1.49,0.98,1.96,1.77c0.48,0.8,0.72,1.69,0.72,2.68
			c0,1.05-0.27,2.06-0.82,3.02c-0.55,0.96-1.54,2.01-2.98,3.16c-0.86,0.67-1.43,1.14-1.72,1.4c-0.29,0.27-0.63,0.62-1.02,1.05h6.64
			V37.32z"/>
		<path class="st1" d="M356.1,28.68c0-2.82,0.7-5.02,2.09-6.6c1.39-1.57,3.33-2.36,5.82-2.36c2.55,0,4.51,0.77,5.89,2.32
			c1.38,1.54,2.07,3.71,2.07,6.5c0,2.02-0.3,3.68-0.9,4.97c-0.6,1.29-1.47,2.3-2.61,3.02s-2.56,1.08-4.26,1.08
			c-1.73,0-3.16-0.31-4.29-0.93c-1.13-0.62-2.05-1.61-2.75-2.95C356.46,32.39,356.1,30.7,356.1,28.68z M360.84,28.71
			c0,1.75,0.29,3,0.86,3.76c0.57,0.76,1.36,1.14,2.34,1.14c1.02,0,1.8-0.37,2.36-1.12c0.56-0.75,0.84-2.09,0.84-4.02
			c0-1.63-0.29-2.82-0.87-3.57c-0.58-0.75-1.37-1.13-2.37-1.13c-0.96,0-1.72,0.38-2.3,1.14C361.12,25.68,360.84,26.94,360.84,28.71z
			"/>
		<path class="st1" d="M382.51,32.41l4.04,0.52c-0.22,0.95-0.59,1.78-1.1,2.47c-0.51,0.7-1.16,1.24-1.95,1.62
			c-0.79,0.39-1.79,0.58-3.01,0.58c-1.18,0-2.16-0.12-2.94-0.37c-0.78-0.25-1.46-0.65-2.02-1.2c-0.56-0.55-1.01-1.2-1.33-1.95
			c-0.32-0.75-0.48-1.74-0.48-2.97c0-1.29,0.19-2.36,0.58-3.22c0.29-0.63,0.67-1.19,1.17-1.69c0.49-0.5,1-0.87,1.53-1.11
			c0.83-0.38,1.89-0.58,3.19-0.58c1.81,0,3.19,0.37,4.14,1.1c0.95,0.73,1.62,1.8,2,3.21l-4,0.6c-0.13-0.54-0.35-0.94-0.68-1.21
			c-0.33-0.27-0.77-0.41-1.33-0.41c-0.7,0-1.27,0.28-1.71,0.85s-0.65,1.43-0.65,2.58c0,1.03,0.22,1.81,0.65,2.34
			c0.43,0.53,0.98,0.8,1.65,0.8c0.56,0,1.03-0.16,1.41-0.48C382.04,33.58,382.33,33.08,382.51,32.41z"/>
		<path class="st1" d="M393.64,20.02v4.77h2.34v3.52h-2.34v4.44c0,0.53,0.04,0.89,0.14,1.06c0.14,0.27,0.38,0.4,0.73,0.4
			c0.31,0,0.75-0.1,1.32-0.31l0.31,3.31c-1.05,0.26-2.03,0.39-2.95,0.39c-1.06,0-1.84-0.15-2.34-0.46c-0.5-0.31-0.87-0.77-1.11-1.4
			c-0.24-0.62-0.36-1.64-0.36-3.03V28.3h-1.57v-3.52h1.57v-2.3L393.64,20.02z"/>
	</g>
	<g>
		<path class="st1" d="M260.09,84.81h-29.05c0.33-3.24,1.34-6.29,3.03-9.14s4.85-6.22,9.5-10.11c2.84-2.38,4.65-4.19,5.44-5.42
			c0.79-1.23,1.19-2.41,1.19-3.52c0-1.2-0.39-2.22-1.18-3.07c-0.78-0.85-1.77-1.28-2.96-1.28c-1.24,0-2.25,0.44-3.03,1.32
			c-0.78,0.88-1.31,2.43-1.58,4.64l-9.7-0.89c0.38-3.08,1.08-5.48,2.09-7.21c1.01-1.73,2.44-3.05,4.29-3.97
			c1.85-0.92,4.4-1.38,7.67-1.38c3.41,0,6.06,0.44,7.95,1.32c1.89,0.88,3.38,2.22,4.47,4.04c1.08,1.82,1.63,3.85,1.63,6.11
			c0,2.4-0.62,4.69-1.87,6.87c-1.25,2.18-3.51,4.58-6.79,7.2c-1.95,1.52-3.25,2.59-3.91,3.2c-0.66,0.61-1.43,1.41-2.32,2.39h15.12
			V84.81z"/>
		<path class="st1" d="M276.4,64.96c0-7.48,1.19-12.72,3.58-15.71c2.39-2.99,6.02-4.48,10.9-4.48c2.35,0,4.27,0.33,5.78,0.98
			c1.51,0.65,2.73,1.5,3.69,2.55c0.95,1.05,1.7,2.15,2.25,3.3c0.55,1.16,0.99,2.5,1.32,4.04c0.65,2.94,0.97,6,0.97,9.18
			c0,7.14-1.07,12.37-3.21,15.68c-2.14,3.31-5.82,4.97-11.05,4.97c-2.93,0-5.3-0.53-7.11-1.58s-3.29-2.6-4.45-4.64
			c-0.84-1.45-1.49-3.43-1.96-5.95C276.63,70.79,276.4,68.01,276.4,64.96z M286,64.99c0,5.01,0.39,8.44,1.18,10.27
			c0.78,1.83,1.92,2.75,3.41,2.75c0.98,0,1.83-0.39,2.56-1.17c0.72-0.78,1.25-2.01,1.59-3.69c0.34-1.68,0.51-4.3,0.51-7.87
			c0-5.23-0.39-8.74-1.18-10.54c-0.78-1.8-1.96-2.7-3.53-2.7c-1.6,0-2.76,0.92-3.47,2.75C286.36,56.64,286,60.03,286,64.99z"/>
		<path class="st1" d="M349.38,84.81h-29.05c0.33-3.24,1.34-6.29,3.03-9.14s4.85-6.22,9.5-10.11c2.84-2.38,4.65-4.19,5.44-5.42
			c0.79-1.23,1.19-2.41,1.19-3.52c0-1.2-0.39-2.22-1.18-3.07c-0.78-0.85-1.77-1.28-2.96-1.28c-1.24,0-2.25,0.44-3.03,1.32
			c-0.78,0.88-1.31,2.43-1.58,4.64l-9.7-0.89c0.38-3.08,1.08-5.48,2.09-7.21c1.01-1.73,2.44-3.05,4.29-3.97
			c1.85-0.92,4.4-1.38,7.67-1.38c3.41,0,6.06,0.44,7.95,1.32c1.89,0.88,3.38,2.22,4.47,4.04c1.08,1.82,1.63,3.85,1.63,6.11
			c0,2.4-0.62,4.69-1.87,6.87c-1.25,2.18-3.51,4.58-6.79,7.2c-1.95,1.52-3.25,2.59-3.91,3.2c-0.66,0.61-1.43,1.41-2.32,2.39h15.12
			V84.81z"/>
		<path class="st1" d="M394.02,84.81h-29.05c0.33-3.24,1.34-6.29,3.03-9.14s4.85-6.22,9.5-10.11c2.84-2.38,4.65-4.19,5.44-5.42
			c0.79-1.23,1.19-2.41,1.19-3.52c0-1.2-0.39-2.22-1.18-3.07c-0.78-0.85-1.77-1.28-2.96-1.28c-1.24,0-2.25,0.44-3.03,1.32
			c-0.78,0.88-1.31,2.43-1.58,4.64l-9.7-0.89c0.38-3.08,1.08-5.48,2.09-7.21c1.01-1.73,2.44-3.05,4.29-3.97
			c1.85-0.92,4.4-1.38,7.67-1.38c3.41,0,6.06,0.44,7.95,1.32c1.89,0.88,3.38,2.22,4.47,4.04c1.08,1.82,1.63,3.85,1.63,6.11
			c0,2.4-0.62,4.69-1.87,6.87c-1.25,2.18-3.51,4.58-6.79,7.2c-1.95,1.52-3.25,2.59-3.91,3.2c-0.66,0.61-1.43,1.41-2.32,2.39h15.12
			V84.81z"/>
	</g>
</g>
</svg>
